<svg width="502" height="502" viewBox="0 0 502 502" fill="none" xmlns="http://www.w3.org/2000/svg">
<path d="M210.8 345.299C207.2 345.299 203.6 343.899 200.9 341.199L119.3 259.599C113.8 254.099 113.8 245.299 119.3 239.799C124.8 234.299 133.6 234.299 139.1 239.799L210.8 311.499L362 160.199C367.5 154.699 376.3 154.699 381.8 160.199C387.3 165.699 387.3 174.499 381.8 179.999L220.7 341.199C217.9 343.899 214.3 345.299 210.8 345.299Z" fill="black"/>
<path d="M442.5 501.2H59.4004C26.9004 501.2 0.400391 474.7 0.400391 442.2V59.0996C0.400391 26.5996 26.9004 0.0996094 59.4004 0.0996094H442.5C475 0.0996094 501.5 26.5996 501.5 59.0996V442.2C501.5 474.8 475 501.2 442.5 501.2ZM59.4004 28.0996C42.3004 28.0996 28.4004 41.9996 28.4004 59.0996V442.2C28.4004 459.3 42.3004 473.2 59.4004 473.2H442.5C459.6 473.2 473.5 459.3 473.5 442.2V59.0996C473.5 41.9996 459.6 28.0996 442.5 28.0996H59.4004Z" fill="black"/>
</svg>
