<svg width="384" height="512" viewBox="0 0 384 512" fill="none" xmlns="http://www.w3.org/2000/svg">
<path d="M127.9 254.8C127.9 238.5 129 222.7 129.8 207C132.9 144.8 154.3 89.8998 195.4 42.8998C207.8 28.6998 221.3 15.6998 236.4 4.39983C240.5 1.29983 244.7 -0.800177 249.7 1.69982C254.7 4.19982 255.8 8.5998 255.8 13.7998C256.1 42.8998 266.2 68.9998 281.5 93.1998C296.9 117.7 315.3 140.1 331.6 163.9C354.5 197.2 371.9 232.9 379 273C385 307.3 385.7 341.5 375.3 375.1C365.4 407.1 348.4 434.9 324.1 458.1C303.9 477.4 280.6 491.7 254.1 500.8C224.5 510.9 194.2 514 163.2 509.1C122.2 502.7 86.7997 485 57.2996 456C30.9996 430.1 13.6 399 5.20004 363C0.70004 343.8 -0.600155 324.3 0.499845 304.6C1.69984 284 4.09994 263.6 10.0999 243.7C17.2999 219.7 28.0996 197.7 47.2996 180.6C50.0996 178.1 53.1997 175.7 56.3997 173.6C64.9997 167.9 72.9997 171.2 74.8997 181.3C77.3997 194.4 81.3997 207 87.3997 218.9C94.2998 232.6 103.5 244.5 117.9 251.2C118.9 251.7 120 252.3 121.1 252.6C123.1 253.6 125.2 254.1 127.9 254.8ZM235.6 32.5998C180.9 82.5998 154.5 139.1 150.8 211.2C149.9 229.1 149.5 247.1 149.1 265C149 273.6 144.8 277.3 136.3 277.2C130.4 277.1 124.7 276.3 119.1 274.7C98.6999 268.8 84.2997 255.3 73.2997 237.7C66.2997 226.4 61.2 214.3 57.2 200.9C49.2 209.1 43.5 218 39.2 227.6C21.8 266.8 16.9997 308.1 24.3997 349.9C34.3997 406.4 66.7998 447.3 117.9 473.3C119.3 474 120.6 475.4 122.5 474.5C122.5 474.2 122.6 473.8 122.5 473.6C104.4 446.8 103.3 417.7 111 387.6C114.3 374.8 120.2 363 131.2 354.7C139.5 348.6 147.7 351.7 149.8 361.8C150.9 366.9 152.4 371.7 154.7 376.4C155.8 378.6 156.5 381.2 159.3 382.4C159.4 381.7 159.5 381.4 159.5 381.1C159.6 379.1 159.7 377.1 159.8 375.1C161 341.1 173.3 311.8 197.8 287.9C200.1 285.7 202.5 283.7 204.9 281.6C208.6 278.3 212.7 276.4 217.6 278.4C222.8 280.5 224.3 285 224.4 290.1C224.6 300.7 228.1 310.2 233.3 319.3C239.6 330.3 247.2 340.3 254.2 350.9C262.7 363.9 269.5 377.6 273.1 392.8C279.9 421.5 277.8 448.8 260.8 473.9C260.7 474 261 474.4 261 474.7C262.9 475.3 264.2 474 265.6 473.3C325.9 444.2 364.7 380.9 361.6 312.6C359.5 267.3 346.1 226.1 321.6 188.1C307 165.5 290.3 144.3 274.8 122.3C259.7 100.9 246.6 78.4998 239.7 52.9998C238.3 46.2998 237.1 39.5998 235.6 32.5998ZM134.9 385.1C126.6 400.8 125.8 430 132.9 448.4C145.2 480.1 177.7 496.8 209.4 487.6C234.9 480.2 254.5 454.5 255.5 426.3C256.3 402.6 249.1 381.2 236 361.7C225.1 345.4 212.4 330 206.6 310.9C205.3 310.9 204.9 311.7 204.4 312.3C193 326.6 185.5 342.6 182.8 360.8C181.1 372.7 180.8 384.6 180.7 396.6C180.6 406.4 175.4 410.8 165.7 409.5C156.4 408.3 148.8 403.9 142.7 396.8C139.6 393.2 137.5 389.2 134.9 385.1Z" fill="#030303"/>
</svg>
