<svg width="705" height="415" viewBox="0 0 705 415" fill="none" xmlns="http://www.w3.org/2000/svg">
<path d="M352.501 413.9C247.701 413.9 142.801 413.9 38.0007 413.9C18.3007 413.9 5.10088 404.3 1.70088 387.3C1.00088 384 1.00068 380.5 1.00068 377.1C0.900684 349.4 1.00068 321.8 1.00068 294.1C1.00068 279.7 4.30049 276.1 18.8005 274.8C58.2005 271.1 84.8008 239.8 82.1008 200.4C80.0008 170 52.4006 142.1 21.9006 139.6C18.9006 139.4 16.0007 139.2 13.0007 138.7C5.30068 137.4 1.10068 133 1.00068 125.2C0.800684 93.6996 0.600879 62.0996 1.20088 30.5996C1.50088 15.5996 13.2006 3.49966 27.9006 0.899658C31.0006 0.399658 34.3006 0.0996094 37.4006 0.0996094C247.101 0.0996094 456.801 0.0996094 666.501 0.0996094C677.401 0.0996094 687.401 2.29961 695.201 10.5996C701.601 17.3996 704.3 25.6996 704.3 34.9996C704.201 63.5996 704.3 92.1996 704.3 120.7C704.3 134.2 700.601 138.4 687.201 139.3C665.901 140.9 649.001 150.3 635.901 167.2C609.101 201.7 625.901 256.9 667.401 270.7C674.801 273.2 682.401 274.5 690.201 275.3C700.101 276.2 704.3 281 704.3 291.1C704.4 320.6 704.4 350.1 704.3 379.6C704.201 399.9 690.801 413.5 670.501 414.1C663.401 414.3 656.301 414.1 649.201 414.1C550.301 413.9 451.401 413.9 352.501 413.9ZM352.101 386.7C457.201 386.7 562.301 386.7 667.401 386.7C676.601 386.7 677.3 386.1 677.3 377C677.3 354.1 677.001 331.3 677.501 308.4C677.601 302 675.401 300 669.601 298.8C627.301 289.7 596.001 250.6 596.001 207.4C596.001 162 626.701 124.1 671.8 114.2C675.9 113.3 677.501 112.2 677.401 107.8C677.201 83.7996 677.201 59.7996 677.401 35.7996C677.401 29.8996 675.501 26.9996 669.101 27.0996C635.701 27.2996 602.201 27.1996 568.8 27.0996C564.8 27.0996 563.801 28.2996 563.901 32.0996C564.101 42.7996 564.101 53.5996 564.001 64.2996C563.901 73.9996 558.601 79.9997 550.501 79.8997C542.301 79.7997 537.101 73.8996 537.001 64.2996C536.901 53.7996 536.701 43.2996 537.101 32.6996C537.301 28.1996 535.901 27.0996 531.401 27.0996C366.501 27.1996 201.7 27.1996 36.8005 27.0996C30.2005 27.0996 27.9007 29.5996 28.0007 35.9996C28.2007 59.0996 28.3006 82.1996 27.9006 105.3C27.8006 111.5 29.4008 113.9 35.6008 115.1C53.7008 118.4 69.3009 127.2 81.7009 140.4C106.501 166.8 115.7 198.1 105.3 233.3C94.7005 269.2 70.1009 291.2 33.7009 299.7C29.2009 300.8 27.9006 302.1 27.9006 306.7C28.1006 329.8 28.0007 352.9 28.0007 376C28.0007 386.5 28.4006 386.8 38.9006 386.8C143.301 386.7 247.701 386.7 352.101 386.7Z" fill="#040404"/>
<path d="M321.9 340C276.3 340 230.801 340 185.201 340C161.301 340 148.101 326.9 148.101 303.3C148.101 239.1 148.101 174.8 148.101 110.6C148.101 87.4 161.501 74 184.701 74C276.501 74 368.301 74 460.101 74C483.501 74 496.8 87.2 496.8 110.5C496.8 175 496.8 239.4 496.8 303.9C496.8 326.8 483.401 340.1 460.601 340.1C414.401 340 368.1 340 321.9 340ZM322.4 312.9C368.2 312.9 413.901 312.9 459.701 312.9C469.301 312.9 469.701 312.4 469.701 302.7C469.701 238.7 469.701 174.7 469.701 110.7C469.701 101.6 469 100.9 459.9 100.9C368.4 100.9 276.8 100.9 185.3 100.9C175.7 100.9 175.201 101.3 175.201 111.1C175.201 174.9 175.201 238.6 175.201 302.4C175.201 312.3 175.701 312.8 185.701 312.8C231.301 313 276.9 312.9 322.4 312.9Z" fill="#040404"/>
<path d="M563.9 309.2C563.9 317.2 564 325.2 563.9 333.2C563.7 342.4 558.4 348.2 550.5 348.3C542.4 348.4 536.9 342.3 536.8 332.8C536.7 316.8 536.7 300.8 536.8 284.8C536.9 275.2 542.3 268.9 550.1 268.8C557.9 268.7 563.5 274.9 563.8 284.5C564.1 292.7 563.9 300.9 563.9 309.2Z" fill="#040404"/>
<path d="M536.8 173.899C536.8 165.899 536.7 157.899 536.8 149.899C537 140.799 542.3 134.699 550 134.399C557.5 134.099 563.6 140.299 563.8 149.299C564.1 166.199 564.1 183.099 563.8 199.999C563.6 208.599 557.7 213.999 550 213.799C542.3 213.599 537.1 207.999 536.9 199.299C536.7 190.799 536.8 182.399 536.8 173.899Z" fill="#040404"/>
</svg>
