<svg width="518" height="430" viewBox="0 0 518 430" fill="none" xmlns="http://www.w3.org/2000/svg">
<path d="M423.2 429.8H95.4004C62.9004 429.8 36.4004 403.3 36.4004 370.8V103.9H482.1V370.8C482.1 403.3 455.7 429.8 423.2 429.8ZM64.4004 131.9V370.8C64.4004 387.9 78.3004 401.8 95.4004 401.8H423.2C440.3 401.8 454.2 387.9 454.2 370.8V131.9H64.4004Z" fill="black"/>
<path d="M475.9 131.9H42.7002C19.5002 131.9 0.700195 113.1 0.700195 89.9V43C0.700195 19.8 19.5002 1 42.7002 1H475.9C499.1 1 517.9 19.8 517.9 43V89.9C517.9 113 499 131.9 475.9 131.9ZM42.7002 28.9C35.0002 28.9 28.7002 35.2 28.7002 42.9V89.8C28.7002 97.5 35.0002 103.8 42.7002 103.8H475.9C483.6 103.8 489.9 97.5 489.9 89.8V42.9C489.9 35.2 483.6 28.9 475.9 28.9H42.7002Z" fill="black"/>
<path d="M312.3 429.8H206.2V0.900391H312.3V429.8ZM234.2 401.8H284.3V28.9004H234.2V401.8Z" fill="black"/>
</svg>
