<svg width="502" height="502" viewBox="0 0 502 502" fill="none" xmlns="http://www.w3.org/2000/svg">
<path d="M442.6 501.2H59.5C27 501.2 0.5 474.7 0.5 442.2V59.0996C0.5 26.5996 27 0.0996094 59.5 0.0996094H442.6C475.1 0.0996094 501.6 26.5996 501.6 59.0996V442.2C501.6 474.8 475.1 501.2 442.6 501.2ZM59.5 28.0996C42.4 28.0996 28.5 41.9996 28.5 59.0996V442.2C28.5 459.3 42.4 473.2 59.5 473.2H442.6C459.7 473.2 473.6 459.3 473.6 442.2V59.0996C473.6 41.9996 459.7 28.0996 442.6 28.0996H59.5Z" fill="black"/>
<path d="M352.4 366.1C348.8 366.1 345.2 364.7 342.5 362L139.7 159.2C134.2 153.7 134.2 144.9 139.7 139.4C145.2 133.9 154 133.9 159.5 139.4L362.3 342.2C367.8 347.7 367.8 356.5 362.3 362C359.6 364.7 356 366.1 352.4 366.1Z" fill="black"/>
<path d="M149.701 366.1C146.101 366.1 142.501 364.7 139.801 362C134.301 356.5 134.301 347.7 139.801 342.2L342.601 139.4C348.101 133.9 356.901 133.9 362.401 139.4C367.901 144.9 367.901 153.7 362.401 159.2L159.601 362C156.801 364.7 153.301 366.1 149.701 366.1Z" fill="black"/>
</svg>
