<svg width="374" height="491" viewBox="0 0 374 491" fill="none" xmlns="http://www.w3.org/2000/svg">
<path d="M373.5 35.0998C373.5 33.8998 373.5 32.5999 373.5 31.3999C373.3 25.0999 371.3 19.3999 367.6 14.3999C362.1 6.89987 354.3 2.19986 345.7 1.19986C336.5 0.0998594 327 3.19987 319.1 9.89987C230.7 84.1999 151.9 150.5 78.1001 212.5C78.0001 212.6 77.7999 212.7 77.7 212.8V69.8999C77.7 65.4999 77.7 61.1998 77.7 56.7998C77.7 46.9998 77.8001 36.8999 77.6001 26.8999C77.4001 11.3999 66.7999 0.999847 51.2 0.999847C45.2999 0.999847 39.4 0.999847 33.5 0.999847H27.8C9.90005 0.999847 0 10.8999 0 28.8999C0 84.1999 0 139.5 0 194.7V303.3C0 356.6 0 409.9 0 463.2C0 480.1 10.1001 490.2 27.1001 490.3C29.5001 490.3 31.9 490.3 34.3 490.2C39 490.1 43.7999 490 48.3999 490.4C49.2999 490.5 50.1 490.5 51 490.5C58.2 490.5 64.5 488.2 69.2 483.7C74.7999 478.4 77.9 470.5 77.8 461.4C77.5 415 77.6001 367.9 77.6001 322.3C77.6001 307.7 77.6001 293.1 77.6001 278.5L99.1001 296.6C146.9 336.8 194.7 376.9 242.6 417.1L253.9 426.6C275.5 444.7 297.8 463.5 319.7 482C328.1 489.1 337.4 491.7 347.2 489.7C363.7 486.4 373.5 473.7 373.5 455.8C373.5 327.4 373.5 199 373.5 70.4998V35.0998ZM352.5 245.9V284.3C352.5 341.3 352.5 398.4 352.5 455.4C352.5 459.2 352.1 462.1 350.4 464.5C348.5 467.1 346 468.7 343.1 469C339.9 469.4 336.4 468.2 333.3 465.6C319.5 454.1 305.5 442.3 292 430.9C286.2 426 280.3 421.1 274.5 416.2L83.5 255.8C79.4 252.4 77.3999 249 77.3999 245.7C77.3999 242.4 79.5001 238.9 83.6001 235.4C166.2 166 248.8 96.4998 331.4 27.0998L332 26.5998C333.1 25.6998 334.1 24.8998 335.1 24.0998C337.2 22.6998 339.2 21.8999 341.4 21.8999C343 21.8999 344.6 22.2998 346.2 23.0998C350.1 24.9998 352.2 28.0999 352.4 32.3999C352.5 34.6999 352.5 36.8998 352.5 39.2998C352.5 40.2998 352.5 41.1999 352.5 42.1999V245.9ZM56.3999 461.8C56.3999 462.9 56.4 464 56.3 465C56.1 468 54.8 469.2 51.8 469.2C43.3 469.3 34.3999 469.3 25.3999 469.2C22.2999 469.2 21 467.9 21 464.6C20.9 459.8 20.9 454.9 21 450.2C21 448.2 21 446.2 21 444.2V29.4998C21 22.4998 21.5 21.9998 28.5 21.9998H34.7C37 21.9998 39.4 21.9998 41.8 21.9998C44.8 21.9998 47.8999 21.9998 50.8999 21.9998C55.0999 21.9998 56.1999 22.9999 56.3999 27.1999C56.3999 27.8999 56.3999 28.6998 56.3999 29.4998C56.3999 29.8998 56.3999 30.1998 56.3999 30.5998C56.3999 174 56.3999 317.4 56.3999 460.7V461.8Z" fill="black"/>
</svg>
