<svg width="532" height="531" viewBox="0 0 532 531" fill="none" xmlns="http://www.w3.org/2000/svg">
<path d="M525.9 458.4L271.9 219.4L312.5 178.8C315.4 180.7 318.4 182.2 321.6 183.3C325.9 184.8 330.4 185.6 335 185.6C346.1 185.6 356.7 181.2 364.5 173.4C380.8 157.1 380.8 130.7 364.5 114.3L262.5 12.3C254.7 4.4 244 0 233 0C221.9 0 211.3 4.4 203.5 12.2C197.1 18.6 193 26.8 191.8 35.7C191.2 40 191.3 44.5 192 48.8C192.6 52.2 193.6 55.4 195 58.6L59.1999 194.4C53.7999 192 47.9998 190.8 42.0998 190.8C36.6998 190.8 31.3996 191.8 26.3996 193.8C21.2996 195.9 16.5999 198.9 12.6999 202.8C4.79991 210.6 0.399715 221.2 0.499715 232.3C0.499715 243.4 4.89991 254 12.6999 261.8L114.7 363.8C122.5 371.6 133.1 376 144.2 376C144.2 376 144.2 376 144.3 376C167.3 376 186 357.3 186 334.3C186 326.3 183.6 318.5 179.2 311.8L219.8 271.2L458.8 525.1C462.2 528.7 467 530.8 472 530.9H472.2C477.1 530.9 481.7 529 485.2 525.5L526 484.7C526.1 484.6 526.2 484.5 526.299 484.4C533.599 477 533.3 465.4 525.9 458.4ZM158.6 320.2C166.2 328 166.2 340.4 158.6 348.2C150.9 356.1 138.1 356.3 130.2 348.6L28.1999 246.6C24.3999 242.8 22.2995 237.7 22.2995 232.4C22.2995 227.1 24.3999 222 28.1999 218.2C31.8999 214.5 36.9995 212.4 42.2995 212.4C46.6995 212.4 50.9997 213.8 54.4997 216.5L55.3996 217.2C55.7996 217.5 56.1998 217.8 56.5998 218.2L158.6 320.2ZM296.4 164.2L164.9 295.7L76.6999 207.5L208.2 76L296.4 164.2ZM213.1 40.4C213.4 35.6 215.4 31 218.8 27.6C222.6 23.9 227.7 21.9 233 22C238.3 21.9 243.4 24 247.2 27.7L349.2 129.7C353 133.5 355.1 138.6 355.1 143.9C355.1 149.2 353 154.4 349.2 158.1C345.4 161.9 340.3 164 335 164C329.7 164 324.6 161.9 320.8 158.1L218.8 56.1C218.4 55.6 218 55.1 217.6 54.6L217.5 54.4C214.4 50.3 212.8 45.4 213.1 40.4ZM508.6 471.8L472.5 507.9L236.5 257.2L257.8 235.9L508.6 471.8Z" fill="black"/>
</svg>
