<svg width="507" height="486" viewBox="0 0 507 486" fill="none" xmlns="http://www.w3.org/2000/svg">
<path d="M329.7 358.801C363.6 358.801 395.9 358.801 428.2 358.801C430.2 358.801 432.2 358.601 434.1 358.901C439.8 359.801 443.1 363.301 443.5 369.101C443.8 374.601 439.7 379.101 434 379.801C432 380.001 430 379.901 428.1 379.901C311.8 379.901 195.6 379.901 79.3 379.901C78.2 379.901 77.0999 379.901 75.9999 379.901C68.3999 379.701 63.6 375.601 63.8 369.101C63.9 362.901 68.5 358.901 75.8 358.801C88.1 358.701 100.4 358.801 112.8 358.801C113.4 356.401 111.3 355.801 110.2 354.701C32.2999 277.101 55.8999 145.301 156 99.3009C159.2 97.8009 161.3 96.0009 162.8 92.8009C190.9 31.2009 253.8 -4.59913 318.7 0.800866C388.4 6.70087 442.9 53.4009 460.2 120.401C478.7 192.101 442.1 269.701 374.6 301.001C369.9 303.201 367 306.101 364.9 310.801C356.7 328.701 345 344.201 329.7 358.801ZM221.9 358.801C244.5 358.801 267.2 358.801 289.8 358.801C292.9 358.801 295.7 358.501 298.4 356.601C344.7 323.101 365.7 277.701 357.1 221.301C344.8 141.301 267.4 90.1009 189.1 110.101C131.8 124.801 96.3998 163.001 86.8998 221.301C77.7998 277.301 98.6 322.701 144.8 356.101C147.6 358.101 150.5 358.901 153.9 358.801C176.7 358.801 199.3 358.801 221.9 358.801ZM376.6 274.501C411.3 266.401 446.5 200.001 443.3 149.701C439 81.9009 386.1 27.9009 317 21.8009C254.9 16.4009 205.4 55.3009 190.4 87.4009C302.9 63.8009 400.3 166.501 376.6 274.501Z" fill="#030303"/>
<path d="M73.0999 253.401C72.0999 253.301 29.6997 253.301 28.6997 253.301C0.299707 253.301 0.299805 264.301 0.299805 282.801C0.299805 340.301 0.299805 397.901 0.299805 455.401C0.299805 475.001 10.6997 485.401 30.3997 485.401C104.7 485.401 179 485.401 253.2 485.401C327.7 485.401 402.2 485.401 476.7 485.401C496.3 485.401 506.7 475.001 506.7 455.401C506.7 398.501 506.7 341.601 506.7 284.701C506.7 264.201 506.7 253.501 478.1 253.501C477.2 253.501 410.5 253.401 409.6 253.401V274.501C411.2 274.501 478.3 274.601 479.4 274.601C485.6 274.601 485.5 276.601 485.5 285.101C485.5 341.301 485.5 397.501 485.5 453.801C485.5 463.901 485.1 464.401 475.2 464.401C327.3 464.401 179.4 464.401 31.4998 464.401C21.7998 464.401 21.2998 463.901 21.2998 454.501C21.2998 398.301 21.2998 342.101 21.2998 285.801C21.2998 276.601 21.1997 274.901 28.3997 274.901C29.2997 274.901 71.7998 274.701 72.9998 274.701" fill="#030303"/>
<path d="M295.8 242.6C295.9 246.1 294.2 248.9 291.8 251.3C271.3 271.8 250.9 292.3 230.3 312.7C224.7 318.3 219.2 318.2 213.6 312.6C193 292.2 172.5 271.7 152.1 251.2C146.5 245.6 146.5 240.2 152.2 234.5C172.6 213.9 193.1 193.5 213.7 173.1C219.3 167.5 224.7 167.5 230.4 173.1C251 193.5 271.4 214 291.9 234.5C294.1 236.7 295.6 239.3 295.8 242.6ZM222.6 195.3C220.7 195.2 220 196.5 219.1 197.4C205 211.5 190.9 225.7 176.7 239.7C174.3 242.1 173.9 243.4 176.5 245.9C190.7 259.9 204.9 274 218.8 288.2C221.3 290.8 222.6 290.5 225 288.1C238.8 274 252.8 260.1 266.9 246.2C269.5 243.7 269.9 242.2 267.1 239.5C253 225.7 239.1 211.7 225.2 197.7C224.3 196.9 223.3 196 222.6 195.3Z" fill="#030303"/>
</svg>
