<svg width="551" height="545" viewBox="0 0 551 545" fill="none" xmlns="http://www.w3.org/2000/svg">
<path d="M491.3 544.099H59C26.5 544.099 0 517.599 0 485.099V103.199C0 70.6992 26.5 44.1992 59 44.1992H491.3C523.8 44.1992 550.3 70.6992 550.3 103.199V485.099C550.3 517.599 523.8 544.099 491.3 544.099ZM59 72.1992C41.9 72.1992 28 86.0992 28 103.199V485.099C28 502.199 41.9 516.099 59 516.099H491.3C508.4 516.099 522.3 502.199 522.3 485.099V103.199C522.3 86.0992 508.4 72.1992 491.3 72.1992H59Z" fill="black"/>
<path d="M410.6 115.9C402.9 115.9 396.6 109.6 396.6 101.9V14.5996C396.6 6.89961 402.9 0.599609 410.6 0.599609C418.3 0.599609 424.6 6.89961 424.6 14.5996V101.9C424.6 109.6 418.3 115.9 410.6 115.9Z" fill="black"/>
<path d="M275.1 115.9C267.4 115.9 261.1 109.6 261.1 101.9V14.5996C261.1 6.89961 267.4 0.599609 275.1 0.599609C282.8 0.599609 289.1 6.89961 289.1 14.5996V101.9C289.1 109.6 282.9 115.9 275.1 115.9Z" fill="black"/>
<path d="M139.6 115.9C131.9 115.9 125.6 109.6 125.6 101.9V14.5996C125.6 6.89961 131.9 0.599609 139.6 0.599609C147.3 0.599609 153.6 6.89961 153.6 14.5996V101.9C153.6 109.6 147.3 115.9 139.6 115.9Z" fill="black"/>
<path d="M536.3 168.299H14C6.3 168.299 0 161.999 0 154.299C0 146.599 6.3 140.299 14 140.299H536.3C544 140.299 550.3 146.599 550.3 154.299C550.3 161.999 544 168.299 536.3 168.299Z" fill="black"/>
<path d="M252.9 432.599C252.9 421.599 262.8 411.799 275.1 411.799C287.4 411.799 297.3 421.499 297.3 432.599C297.3 443.599 287.4 452.999 275.1 452.999C262.8 452.999 252.9 443.599 252.9 432.599ZM294.5 246.499C294.5 258.499 290.6 289.299 286 334.699L281.4 379.799H268.7L264.1 334.699C259.5 289.299 255.6 258.499 255.6 246.499C255.6 232.599 263 226.699 275 226.699C287.1 226.699 294.5 232.599 294.5 246.499Z" fill="black"/>
</svg>
