<svg width="357" height="452" viewBox="0 0 357 452" fill="none" xmlns="http://www.w3.org/2000/svg">
<path d="M347.7 224.201C346.4 224.001 345.2 224.001 344 224.001C343.6 224.001 343.2 224.001 342.8 224.001H315.5C274.7 224.001 232.5 224.001 191 224.101C191 224.101 191 224.101 190.9 224.101C189.1 224.101 188.7 223.901 188.6 223.801C188.5 223.701 188.3 223.401 188.3 221.601C188.5 192.201 188.5 161.001 188.3 123.301C188.3 121.801 188.5 121.501 188.5 121.401C188.5 121.401 188.8 121.201 190.2 121.301C202.1 122.001 214.4 121.001 226.9 118.301C250.5 113.201 272.6 99.6008 289.2 80.0008C305.8 60.4008 315.5 36.6008 316.4 12.9008C316.6 8.30082 315.8 5.30078 313.8 3.30078C311.8 1.20078 308.9 0.300781 304.2 0.300781C287.5 0.300781 270.6 2.40077 253.9 6.60077C229.7 12.7008 212.9 21.0008 199.5 33.3008C183.3 48.2008 173.7 68.0008 169.4 95.6008C168.3 102.801 168.4 109.801 168.4 117.301C168.4 120.301 168.5 123.301 168.4 126.401C159.9 113.401 149.6 103.201 137.1 95.5008C105.6 76.0008 67.7998 66.4008 18.2998 65.5008C15.2998 65.4008 12.7997 66.4008 10.8997 68.2008C8.89969 70.2008 7.89969 73.1008 7.89969 76.6008C7.99969 82.5008 8.69974 88.7008 10.1997 96.2008C16.1997 127.201 33.3997 157.001 57.3997 177.901C85.0997 202.201 119.9 213.601 158 211.001C159.5 210.901 161 210.501 162.6 210.201C164.5 209.801 167.6 209.101 168.2 209.801C169.1 210.901 168.9 213.401 168.7 215.901C168.6 217.701 168.4 219.601 168.6 221.301C168.8 223.101 168.5 223.501 168.4 223.601C168.2 223.801 167.5 224.001 165.3 224.001C124.8 223.901 83.5998 223.901 43.7998 223.901H14.4998C14.0998 223.901 13.6998 223.901 13.2998 223.901C12.1998 223.901 10.9998 223.901 9.79984 224.001C4.39984 224.601 0.499738 228.901 0.699738 234.101C0.899738 239.401 3.99984 242.801 9.29984 243.801C10.5998 244.001 11.7998 244.001 12.9998 244.001C13.3998 244.001 13.7997 244.001 14.1997 244.001H58.8997C92.0997 244.001 125.3 244.001 158.5 244.001C159.7 244.001 161 243.901 162.2 243.801C164.5 243.601 167.4 243.301 168.3 244.101C169.2 244.901 168.9 247.101 168.7 249.301C168.5 250.901 168.3 252.601 168.5 254.201C168.7 255.601 168.5 256.001 168.3 256.201C168.2 256.401 167.7 256.701 166.1 256.901C140 259.901 115.8 274.101 99.6997 295.701C83.6997 317.301 77.1997 344.401 81.8997 370.101C86.6997 396.701 101.3 419.501 123 434.401C139.4 445.701 158.5 451.501 178.4 451.501C184.8 451.501 191.3 450.901 197.7 449.701C219.7 445.501 239.7 433.501 254.1 415.901C268.5 398.301 276.4 376.101 276.3 353.401C276.3 331.001 268.3 309.001 253.8 291.401C239.3 273.901 219.2 262.001 197.3 257.801C196.2 257.601 194.9 257.501 193.7 257.401C192 257.301 189.2 257.001 188.7 256.401C188 255.501 188.2 253.401 188.3 251.401C188.4 249.801 188.5 248.201 188.3 246.701C188.1 244.901 188.4 244.401 188.4 244.301C188.6 244.101 189.1 243.801 191.3 243.801H191.4C232.1 243.901 273.5 243.901 313.5 243.901H342.2C342.6 243.901 343.1 243.901 343.5 243.901C344.8 243.901 346.2 244.001 347.5 243.701C352.9 242.701 356 239.101 356 233.901C356.2 228.801 353.1 225.201 347.7 224.201ZM150.2 191.101C149.8 191.101 149.4 191.101 149 191.101C77.3998 191.101 36.6998 136.901 28.9998 86.2008C28.9998 86.0008 28.8997 85.8008 28.8997 85.6008C28.9997 85.6008 28.9999 85.6008 29.0999 85.6008C64.0999 87.9008 91.5997 94.4008 115.4 106.001C143.5 119.701 160.2 142.901 166.4 177.101C166.7 178.801 166.9 180.501 167.1 182.301C167.3 184.301 167.6 186.401 168 188.501C168.2 189.401 168.1 189.801 168.1 189.801C168.1 189.801 167.8 190.001 166.5 190.101C164.6 190.201 162.7 190.401 160.9 190.601C157.2 190.901 153.6 191.301 150.2 191.101ZM179.1 276.001C199.6 276.001 219 284.201 233.6 298.901C248.3 313.601 256.4 333.001 256.4 353.601C256.4 374.601 248.2 394.301 233.4 409.101C218.7 423.701 199.3 431.801 178.7 431.801C157.7 431.801 138.1 423.601 123.4 408.901C108.7 394.201 100.6 374.501 100.7 353.501C100.7 332.801 108.9 313.401 123.7 298.701C138.5 284.101 158.1 276.101 179 276.101C179 276.001 179.1 276.001 179.1 276.001ZM189.3 101.201C189.3 100.901 189.4 100.501 189.5 100.101C189.6 99.7008 189.6 99.4008 189.7 99.0008C194.3 63.7008 211.9 41.3008 243.5 30.6008C257.8 25.8008 282 20.7008 296 20.6008C291.5 45.0008 278.8 66.3008 260.2 80.9008C241 95.9008 216.3 103.201 190.6 101.401C189.8 101.401 189.5 101.301 189.3 101.201Z" fill="black"/>
<path d="M170.6 401.101C173.3 403.701 175.9 405.101 178.6 405.101C181.2 405.101 183.8 403.802 186.4 401.302C195.1 392.602 204 383.802 212.5 375.302C217 370.802 221.5 366.302 225.9 361.902C227.7 360.102 229.7 357.602 229.5 353.902C229.6 350.302 227.6 347.802 225.8 346.002C221.1 341.302 216.3 336.502 211.6 331.802C203.3 323.502 195 315.102 186.6 306.802C181.1 301.402 175.8 301.301 170.4 306.701C157.6 319.501 144.4 332.602 131.2 345.902C125.8 351.302 125.8 356.601 131.3 362.101C145.2 375.801 158 388.601 170.6 401.101ZM151.6 353.902C151.6 353.902 151.7 353.602 152.4 352.802C161.7 343.802 170.7 334.702 177.5 327.802C178.1 327.202 178.4 327.002 178.5 326.902C178.6 327.002 178.9 327.101 179.3 327.601C184.7 333.201 190.3 338.801 195.8 344.201C198.7 347.101 201.7 350.102 204.6 353.002C204.8 353.202 205 353.302 205.1 353.502C205.2 353.602 205.3 353.701 205.4 353.701C205.1 354.001 204.8 354.402 204.4 354.802C202 357.202 199.6 359.602 197.2 362.002C191.3 367.802 185.3 373.902 179.4 379.902C178.7 380.602 178.4 380.701 178.4 380.701C178.3 380.701 178 380.501 177.2 379.701C169 371.301 160.7 363.002 152.5 355.002C151.8 354.202 151.6 353.902 151.6 353.902Z" fill="black"/>
</svg>
