<svg width="416" height="416" viewBox="0 0 416 416" fill="none" xmlns="http://www.w3.org/2000/svg">
<path d="M189.3 415.701C172.3 415.701 155.4 409.301 142.5 396.401L19.8003 274.001C-5.99966 248.401 -6.09962 206.501 19.6004 180.701L19.8003 180.501L177.5 23.3006C179 21.8006 180.4 20.3006 181.6 18.8006L182.3 18.0005C186 13.5005 190.4 9.50055 195.1 6.10055L195.8 5.60055C202.1 1.80055 209.2 0.000546858 216.5 0.200547H376.4C398.1 0.200547 415.9 17.9005 415.9 39.6005V199.401C415.9 203.401 415.4 207.401 414.2 211.301C413.2 214.901 411.5 218.501 409.4 221.701L409.2 222.001C405.7 226.901 401.7 231.501 397.2 235.501L393.6 239.001L235.9 396.201C223.2 409.201 206.2 415.701 189.3 415.701ZM208.6 26.0005C205.6 28.2006 203 30.7006 200.6 33.5005L200.2 33.9006L199.4 34.8006C198 36.4006 196.3 38.2005 194.4 40.2005L36.5003 197.601C20.2003 214.001 20.3002 240.601 36.7002 256.901L159.4 379.201C175.9 395.601 202.7 395.601 219.2 379.201L377 222.001L381.3 217.801C384.4 215.001 387.3 211.901 389.7 208.401C390.4 207.301 391 206.001 391.4 204.701C391.9 203.001 392.1 201.301 392.1 199.501V39.8006C392.1 31.3006 385.1 24.3006 376.6 24.3006H215.8C213.2 24.2006 210.8 24.8005 208.6 26.0005Z" fill="black"/>
<path d="M285.7 190C285.6 190 285.6 190 285.7 190C253.2 189.9 227 163.6 227 131.2C227 107.2 241.4 85.8996 263.7 76.8996C270.8 74.0996 278.2 72.5996 285.8 72.5996C318.2 72.5996 344.5 98.9996 344.4 131.4C344.3 163.7 318 190 285.7 190ZM285.7 96.5996C281.2 96.5996 276.8 97.4996 272.6 99.0996C259.5 104.4 251 117 250.9 131.2C250.9 150.3 266.4 165.9 285.5 166V178V166C304.6 166 320.2 150.5 320.2 131.3C320.4 112.2 304.9 96.5996 285.7 96.5996Z" fill="black"/>
</svg>
