<svg width="603" height="603" viewBox="0 0 603 603" fill="none" xmlns="http://www.w3.org/2000/svg">
<path d="M586.6 398.2L547.5 359.1C502.8 314.4 456.7 268.2 411.2 222.8C410.7 222.3 409.3 220.9 409.3 220.1C409.3 219.8 409.5 219.1 411 217.7C420 209 428.9 200 437.6 191.3C442 186.9 446.3 182.5 450.7 178.1C460.8 168.1 467.2 155.2 467.1 145.2C466.8 125.9 461.8 112.8 450.4 101.3C437.6 88.6004 424.8 75.8004 412 63.0004C397.2 48.2004 382.3 33.3004 367.5 18.5004C343.6 -5.29961 312.7 -5.29961 288.8 18.5004L283.3 24.0004C272.2 35.1004 260.8 46.5004 249.6 57.9004C248.3 59.2004 247.9 59.2004 247.8 59.2004C247.8 59.2004 247.4 59.2004 246.2 57.9004C242.9 54.2004 239.2 50.5004 234.1 45.8004C221.3 33.9004 202.8 33.8004 190.2 45.5004C180.8 54.2004 172 63.0004 164.1 71.7004C152.7 84.2004 152.9 102.5 164.7 115.2C168.3 119.1 172.2 123.2 176.4 126.9C177.9 128.2 178 128.8 178.1 128.9C178.1 129.1 178 129.7 176.5 131.1C166 141.3 155.5 151.9 145.4 162.1C142.7 164.8 140 167.6 137.2 170.3C113.9 193.7 113.8 225 137 248.2C163.7 275 191.7 302.9 220 331.1C231.6 342.6 245.2 348.4 258.9 348.4C272.6 348.4 286.3 342.6 298 331L304 325C314.4 314.7 325.2 304 335.5 293.3C337.3 291.5 338.4 290.7 339.2 290.7C340 290.7 341.2 291.5 342.8 293.2C387.6 338.3 433.3 383.9 477.5 428.1L508.6 459.2C509.5 460.1 510.5 461.1 511.4 462C514.3 464.9 517.2 467.9 520.3 470.7C529.5 479.1 541.3 483.5 553.3 483.5C557.5 483.5 561.7 483 565.9 481.9C581.8 477.7 594.4 465.8 599.5 450.1C605.9 430.5 601.6 413.1 586.6 398.2ZM182.8 99.5004C181 97.8004 180.1 95.7004 179.8 93.1004C179.9 90.5004 181 88.2004 182.9 86.3004C185.5 83.7004 188.2 81.0004 190.8 78.4004C195.5 73.7004 200.3 68.8004 205.2 64.1004C209.8 59.6004 214.1 59.7004 218.8 64.2004C220.1 65.4004 221.5 66.6004 222.9 67.8004C226.4 70.7004 230 73.7004 230.3 76.5004C230.6 78.6004 227.1 81.3004 224.1 83.7004C222.5 85.0004 220.8 86.4004 219.4 87.8004C215.9 91.5004 212.2 95.1004 208.6 98.7004C204.7 102.6 200.7 106.6 196.8 110.6C195.5 111.9 195.2 111.9 195.2 111.9C195.2 111.9 194.8 111.9 193.9 110.8C191.1 107.7 188.1 104.7 185.1 101.9C184.4 101.1 183.6 100.3 182.8 99.5004ZM433.4 161.7C413.1 181.9 392.4 202.6 372.5 222.5C365.1 229.9 357.8 237.2 350.4 244.6L329.5 265.5C313.5 281.5 297.5 297.5 281.5 313.5C267 328 250.9 328 236.3 313.4C209.2 286.4 182 259.3 154.9 232.2C147.3 224.7 143.5 216.9 143.5 209.2C143.5 201.5 147.4 193.7 154.9 186.2C205.2 136 255.4 85.8004 305.6 35.6004C312.9 28.3004 320.5 24.7004 328.1 24.7004C335.7 24.7004 343.4 28.3004 350.7 35.6004C361.2 46.1004 371.7 56.6004 382.2 67.1004C398.9 83.8004 416.2 101.1 433.3 118.1C440 124.8 443.2 131.7 443.2 139.2C443.2 147.8 440.1 155 433.4 161.7ZM535.6 451.9C511.5 427.8 487.4 403.8 463.3 379.7C427.9 344.4 392.6 309.1 357.2 273.8C356.5 273.1 356.3 272.8 356.2 272.6C356.3 272.5 356.4 272.2 357 271.6C367.5 261.3 378.6 250.2 390.9 237.8C391.4 237.3 391.7 237.1 391.9 237C392 237.1 392.2 237.2 392.6 237.7C392.9 238.1 393.3 238.5 393.6 238.8C393.7 238.9 393.8 239 394 239.1L439.6 284.7C482.2 327.4 526.3 371.5 569.7 414.9C575.3 420.5 578.3 427.3 578.2 434.2C578.1 440.8 575.4 446.9 570.2 451.9C565.5 456.4 559.8 458.7 552.7 458.8C546 458.9 540.1 456.5 535.6 451.9Z" fill="black"/>
<path d="M218.799 387.401C195.399 373.401 170.799 359.301 145.499 345.401C129.899 336.801 113.199 337.001 97.2992 345.801C73.4992 359.001 49.4992 372.701 25.9992 386.601C9.29922 396.501 0.599219 411.701 0.299219 431.801C0.199219 440.701 0.199219 449.701 0.199219 458.401C0.199219 462.401 0.199219 466.401 0.199219 470.401C0.199219 474.401 0.199219 478.401 0.199219 482.401C0.199219 491.101 0.199219 500.101 0.199219 509.001C0.299219 529.901 9.29922 545.701 26.9992 556.001C49.6992 569.201 72.8992 582.601 96.1992 595.601C104.599 600.301 113.199 602.701 121.799 602.701C130.199 602.701 138.499 600.501 146.599 596.001C170.699 582.701 194.699 568.901 217.899 555.201C234.199 545.501 242.999 530.201 243.299 511.001C243.799 484.501 243.699 457.601 243.299 431.001C242.999 411.901 234.499 396.801 218.799 387.401ZM24.1992 433.201C24.1992 421.001 29.2992 412.201 39.6992 406.201L48.4992 401.201C68.0992 390.001 87.7992 378.701 107.499 367.501C112.299 364.701 117.199 363.401 121.999 363.401C126.699 363.401 131.399 364.701 135.999 367.301C163.899 383.201 185.199 395.401 205.199 406.901C214.699 412.401 219.499 420.901 219.599 432.201C219.799 458.301 219.799 484.401 219.599 509.801C219.499 521.101 214.499 529.701 204.599 535.401C189.599 544.001 174.299 552.701 159.599 561.201C151.899 565.601 144.199 570.001 136.399 574.401C126.699 580.001 117.199 579.901 107.399 574.301C102.199 571.301 96.8992 568.301 91.6992 565.301C74.4992 555.501 56.6992 545.301 39.1992 535.201C29.3992 529.501 24.2992 520.701 24.2992 509.001C24.2992 500.201 24.2992 491.401 24.2992 482.701V459.201C24.1992 450.601 24.1992 441.901 24.1992 433.201Z" fill="black"/>
<path d="M40 479C40 485 40 491.3 40 497.5C40.2 510.2 45.7 519.8 56.6 526.1C69.2 533.3 82 540.6 94.4 547.6C98 549.6 101.6 551.6 105.2 553.7C110.7 556.8 116.3 558.4 121.8 558.4C127.3 558.4 132.8 556.9 138.2 553.8C148.2 548.2 158.1 542.6 168.1 536.9C174.2 533.5 180.3 530 186.3 526.6C197.6 520.2 203.4 510.3 203.5 497.2C203.6 480.8 203.6 463.8 203.5 445.3C203.4 432.1 197.7 422.2 186.4 415.8C175.6 409.7 164.8 403.6 154 397.5L138.3 388.7C127.3 382.5 116.2 382.5 105.3 388.6C101.6 390.7 97.8 392.8 94.1 394.9C81.8 401.8 69.1 408.9 56.7 416.1C45.7 422.4 40.1 432.2 40 445.2C40 451.1 40 457.2 40 463C40 465.6 40 468.2 40 470.8C40.1 473.4 40 476.2 40 479ZM179.7 496.5C179.7 500.8 177.9 503.8 173.9 506C161.3 513 144.7 522.4 127.8 532.1C123.6 534.5 120 534.5 115.6 532C99.5 522.6 84.7 514.3 70.5 506.5C65.6 503.8 63.6 500.5 63.8 495.3C64 489.6 63.9 483.7 63.9 478.1C63.9 475.7 63.9 473.2 63.9 470.8C63.9 468.3 63.9 465.8 63.9 463.3C63.9 457.5 63.9 451.6 63.9 445.7C63.8 441.3 65.6 438.3 69.5 436.1C84.5 427.8 99.7 419.1 116.1 409.7C118.2 408.5 120.1 407.9 121.9 407.9C123.6 407.9 125.4 408.4 127.2 409.5C141.3 417.6 156.7 426.3 174.3 436.1C178 438.2 179.7 441 179.7 445.2V453.7C179.7 468 179.6 482.3 179.7 496.5Z" fill="black"/>
</svg>
