<svg width="399" height="355" viewBox="0 0 399 355" fill="none" xmlns="http://www.w3.org/2000/svg">
<path d="M386.701 0.300781H318.001C318.001 0.300781 318.001 0.300781 317.901 0.300781C312.601 0.300781 308 3.70078 306.3 8.70078L289.201 60.8008L13.0007 56.5008C9.10069 56.4008 5.30069 58.3008 3.00069 61.5008C0.700686 64.7008 0.000490129 68.8008 1.30049 72.5008L52.4006 225.701C54.1006 230.701 58.7006 234.001 63.9006 234.001H64.0007H249.3C254.6 234.001 259.301 230.601 260.901 225.601L309.501 77.3008L326.701 24.8008H386.601C393.301 24.8008 398.8 19.3008 398.8 12.6008C398.9 5.80078 393.501 0.300781 386.701 0.300781ZM281.401 85.1008L240.501 209.601H72.7009L29.9006 81.2008L281.401 85.1008Z" fill="black"/>
<path d="M86.8999 252.9C58.8999 252.9 36.1 275.8 36 303.8C36 331.8 58.8999 354.7 86.8999 354.7C114.9 354.7 137.8 331.8 137.8 303.8C137.7 275.7 114.9 252.9 86.8999 252.9ZM117.1 303.8C117.1 320.4 103.5 334 86.8999 334C70.2999 334 56.7002 320.4 56.7002 303.8C56.7002 287.2 70.2999 273.6 86.8999 273.6C103.5 273.6 117 287.1 117.1 303.8Z" fill="black"/>
<path d="M232 252.9C204 252.9 181.101 275.8 181.101 303.8C181.101 331.8 204 354.7 232 354.7C260 354.7 282.9 331.8 282.9 303.8C282.8 275.7 260 252.9 232 252.9ZM262.201 303.8C262.201 320.4 248.6 334 232 334C215.4 334 201.8 320.4 201.8 303.8C201.8 287.2 215.4 273.6 232 273.6C248.6 273.6 262.201 287.1 262.201 303.8Z" fill="black"/>
</svg>
