<svg width="597" height="472" viewBox="0 0 597 472" fill="none" xmlns="http://www.w3.org/2000/svg">
<path d="M573.6 328.8C571.6 327.4 570.6 325 570.9 322.5C571.2 306.6 571.1 290.7 571.1 274.8C571.1 218.4 571.2 162 571 105.5C571 104.3 571.1 103 571.4 101.8C571.5 101.5 571.6 101.2 571.7 100.9C571.8 100.6 572 100.4 572.2 100.1C572.3 100 572.3 100 572.4 99.9C572.5 99.8 572.6 99.7 572.7 99.6C573.2 99.2 573.9 98.9 574.5 98.9C574.9 98.8 575.3 98.8 575.7 98.8C575.9 98.8 576 98.8 576.2 98.8C576.5 98.8 576.9 98.8 577.2 98.9C577.4 98.9 577.6 98.9 577.7 99C578 99 578.3 99.1 578.6 99.1C579.7 99.2 580.7 99.2 581.8 99.1C582.4 99.1 583 99 583.6 99C590.8 98.6 595.8 94 595.8 86.9C596 62.1 596 37.3 595.8 12.5C595.7 4.5 590.4 0 581.5 0C577.2 0 573 0 568.7 0H188.8C178.7 0 173.9 4.7 173.9 15C173.8 38.1 173.8 61.1 173.9 84.2C173.9 94.6 178.4 99 188.8 99.1C199 99.2 199 99.2 199 109.6C199 150.3 198.9 191 199.1 231.8C199.1 232.9 199.1 234 198.9 235.1C198.9 235.2 198.9 235.3 198.8 235.4C198.7 235.6 198.6 235.8 198.5 236C198.3 236.4 197.9 236.6 197.5 236.8C197.4 236.8 197.3 236.9 197.2 236.9C196.9 237 196.6 237 196.3 237C195.4 237 194.4 236.8 193.5 236.6C179.8 233.1 165.9 230.2 152 227.4C149.5 226.9 147.8 224.6 148.1 222.1C149.6 203.7 147.9 201 130.8 194C110.2 185.6 88.3004 182.2 66.4004 179.4C50.3004 177.3 34.0004 176.4 17.8004 174.5C17.7004 174.5 17.6003 174.5 17.6003 174.5C12.9003 174 8.30037 175.7 5.00037 179.1C4.80037 179.3 4.70037 179.5 4.50037 179.6C4.00037 180.2 3.50034 180.8 3.10034 181.4C2.80034 181.8 2.60041 182.3 2.30042 182.7C1.10041 185 0.400391 187.6 0.400391 190.3V406.3C0.400391 407.1 0.500342 408 0.600342 408.8C0.700342 409.3 0.800391 409.9 0.900391 410.4C1.50039 412.7 2.60034 414.9 4.10034 416.8C4.40034 417.2 4.80032 417.6 5.20032 418C5.40032 418.2 5.60042 418.4 5.80042 418.5C6.80042 419.4 7.80037 420.2 9.00037 420.8C9.50037 421.1 9.90039 421.3 10.4004 421.5C11.1004 421.8 11.9003 422.1 12.7003 422.3C14.0003 422.6 15.4004 422.8 16.8004 422.8H17.2003C26.7003 422.7 36.2003 422.6 45.7003 422.6C57.1003 422.6 68.5004 422.7 80.0004 422.7H83.6003C94.5003 422.7 97.3003 420.6 100.6 410C101.2 407.9 101.9 405.8 102.8 403.7C102.9 403.5 103 403.3 103.1 403.2C103.2 403 103.3 402.9 103.4 402.7C103.5 402.6 103.6 402.4 103.7 402.3C103.8 402.2 103.9 402.1 104 402C105.5 400.7 107.7 401.3 112.3 402.8C112.7 402.9 113.1 403.1 113.6 403.2C175.9 424.1 238.2 445 300.4 465.9C304.2 467.2 308 468.2 311.9 469C313.4 469.3 314.9 469.6 316.3 469.8C320.4 470.5 324.6 471 328.8 471.2C330 471.3 331.3 471.3 332.5 471.3C333.1 471.3 333.8 471.3 334.4 471.3C335.8 471.3 337.2 471.3 338.5 471.2C339.4 471.2 340.2 471.1 341.1 471.1C342.3 471 343.5 470.9 344.7 470.8C345.5 470.7 346.2 470.7 346.9 470.6C347.2 470.6 347.6 470.5 347.9 470.5C348.9 470.4 349.9 470.2 350.8 470.1C351.7 470 352.5 469.8 353.3 469.7C353.8 469.6 354.3 469.5 354.7 469.4C357.7 468.8 359.3 468.3 359.3 468.3C390.3 460.2 419.8 448.2 449 435.4C495.6 415.1 541.6 393.6 587.9 372.6C596.5 368.7 598.6 361.9 594.2 353.5C588.7 344 581.9 335.6 573.6 328.8ZM80.3004 396.1C79.6004 398.1 77.7003 399.4 75.6003 399.4C71.2003 399.4 66.9003 399.4 62.6003 399.4C56.9003 399.4 51.1004 399.4 45.4004 399.4C37.1004 399.4 30.0004 399.4 23.5004 399.5V198.6C28.0004 199 32.4003 199.4 36.7003 199.8C45.9003 200.6 88.0004 204.1 121.8 215.5C123.7 216.3 124.9 218.2 124.7 220.3C122 249.1 92.4004 362.1 80.3004 396.1ZM342.5 446.1C342.3 446.1 342.2 446.1 342 446.1C341.1 446.2 340.2 446.3 339.3 446.3C339.1 446.3 338.9 446.3 338.7 446.3C337.9 446.4 337 446.4 336.2 446.4H335.5C334.8 446.4 334.1 446.4 333.4 446.4C332.8 446.4 332.3 446.4 331.7 446.4C331.1 446.4 330.5 446.4 329.9 446.3C329.3 446.3 328.7 446.2 328.1 446.2C327.6 446.2 327 446.1 326.5 446.1C325.8 446 325.1 445.9 324.4 445.9C324 445.8 323.5 445.8 323.1 445.7C322 445.5 320.8 445.4 319.7 445.1C316.2 444.5 312.7 443.6 309.2 442.7C306.4 441.9 303.6 441 300.8 440.1C239.4 419 177.7 398.6 116.1 378.2C111.5 376.7 111 375.1 112.3 370.6C123.7 332.7 134.4 294.6 142.2 255.8C142.7 253 143.4 251.5 145.9 251.5C146.7 251.5 147.4 251.6 148.2 251.8C216.9 267.3 285.6 282.6 354.4 297.8C362.6 299.4 370.5 302.2 377.9 306C389.5 312.2 395.1 322.2 396.9 334.9C397.3 337.7 396.4 338.8 393.6 339.8C387.7 341.8 381.7 343.2 375.6 344.2C374.1 344.4 372.6 344.7 371.1 344.8C369.6 345 368.1 345.1 366.6 345.3C363.6 345.5 360.6 345.7 357.5 345.7C347.5 345.7 337.6 344.4 327.9 342C298.6 335 268.8 329.8 239.2 323.9C238.4 323.8 237.7 323.7 236.9 323.6C236.6 323.6 236.4 323.6 236.2 323.6C235 323.6 233.8 323.8 232.6 324.1C232 324.3 231.4 324.5 230.8 324.7C230.5 324.8 230.2 325 229.9 325.2C229.3 325.5 228.7 325.9 228.2 326.4C227.9 326.6 227.7 326.8 227.4 327.1C227.3 327.2 227.2 327.3 227.1 327.5C226.5 328.1 226 328.8 225.5 329.6C224.7 330.9 224.2 332.3 223.9 333.7C222.6 340.3 226.6 346.6 234.1 348.2C258.7 353.3 283.4 358.1 308.1 363.1C315.3 364.5 322.6 365.7 329.7 367.5C332.5 368.2 335.4 368.9 338.2 369.4C339.6 369.6 341 369.9 342.5 370.1C343.1 370.2 343.6 370.2 344.2 370.3C345.1 370.4 346 370.5 346.9 370.6C347.5 370.7 348.1 370.7 348.6 370.7C349.5 370.8 350.4 370.8 351.4 370.9C351.9 370.9 352.4 370.9 352.9 371C354 371 355 371.1 356.1 371.1C356.4 371.1 356.6 371.1 356.9 371.1C357 371.1 357.2 371.1 357.3 371.1C357.9 371.1 358.5 371.1 359.1 371.1C359.7 371.1 360.3 371.1 360.8 371.1C361.4 371.1 362.1 371.1 362.7 371C363.3 371 363.8 370.9 364.4 370.9C365 370.9 365.6 370.8 366.3 370.8C367.4 370.7 368.6 370.6 369.7 370.5C371.1 370.3 372.5 370.2 374 370C375.5 369.8 376.8 369.6 378.3 369.3C379.7 369.1 381.2 368.8 382.6 368.5C384 368.2 385.5 367.9 386.9 367.6C388.3 367.3 389.8 366.9 391.2 366.5C431.6 355.9 472.1 345.6 512.8 336.4C516.6 335.5 520.4 335.1 524.3 335.1C527.7 335.1 531.1 335.5 534.4 336.2C535.3 336.4 536.3 336.6 537.2 336.9C538.1 337.2 539 337.4 539.9 337.8C540.8 338.1 541.7 338.4 542.6 338.8C547.1 340.7 551.4 343.2 555.3 346.2C556.1 346.8 556.9 347.4 557.7 348.1C558.1 348.4 558.5 348.8 558.9 349.1C559.7 349.8 560.5 350.5 561.2 351.2C561.9 351.9 562.7 352.7 563.5 353.4C564.3 354.2 565 355 565.8 355.7C548.4 363.6 531.7 371.1 515.1 378.7C469.8 399.5 424.6 420.7 377.4 437.1C369.4 439.9 361.2 442.3 353 444.5C352.2 444.7 351.5 444.9 350.7 445.1C349.2 445.5 347.7 445.7 346.2 446C344.7 445.8 343.6 446 342.5 446.1ZM198.9 29.8C198.9 26.4 199.2 24.7 203.4 24.7C222.9 24.8 353.5 24.9 452.4 24.9C473.3 24.9 492.8 24.9 509.6 24.9C514.9 24.9 520 24.9 524.7 24.9C533.5 24.9 541.2 24.9 547.4 24.9C558 24.9 564.7 24.9 566 24.8C566.2 24.8 566.3 24.8 566.4 24.8C567 24.8 567.6 24.8 568.2 25C568.3 25 568.4 25 568.6 25.1C568.7 25.1 568.8 25.2 568.9 25.2H569C569.1 25.2 569.2 25.3 569.4 25.4C569.5 25.5 569.6 25.5 569.7 25.6C569.8 25.7 569.9 25.8 570 25.8C570 25.8 570 25.8 570 25.9C570.1 26 570.1 26 570.2 26.1C570.2 26.2 570.3 26.2 570.3 26.3C570.4 26.4 570.4 26.5 570.5 26.6C570.5 26.7 570.6 26.7 570.6 26.8C570.6 26.9 570.7 27 570.7 27.1V27.2C570.9 27.9 570.9 28.7 570.9 29.4C570.9 30.1 570.9 30.9 570.8 31.8C569.8 44 569.8 56.2 570.9 68.3C570.9 69 571 69.5 571 70.1C571 70.8 570.9 71.6 570.8 72.3C570.8 72.4 570.8 72.4 570.7 72.5C570.7 72.6 570.7 72.7 570.6 72.7C570.6 72.8 570.5 72.8 570.5 72.9C570.5 73 570.4 73 570.4 73.1C570.3 73.3 570.1 73.5 569.9 73.7C569.8 73.8 569.7 73.8 569.6 73.9C569.5 74 569.4 74 569.3 74.1C569.2 74.1 569.2 74.1 569.1 74.2H569H568.9C568.7 74.3 568.5 74.3 568.3 74.3C568 74.4 567.8 74.4 567.5 74.4C567.1 74.4 566.6 74.5 566.2 74.5H566.1C560.3 74.5 529.1 74.4 487.1 74.4C452 74.4 409.4 74.4 367.9 74.4C336.4 74.4 305.6 74.4 279.2 74.4C269.9 74.4 261.1 74.4 253.1 74.4C227.6 74.4 209.3 74.4 203.7 74.5H203.5C203.2 74.5 203 74.5 202.7 74.5C202.3 74.5 202 74.5 201.7 74.4C201.4 74.4 201.2 74.3 200.9 74.2L200.6 74.1C200.3 74 200.1 73.9 199.9 73.7C199.8 73.6 199.7 73.5 199.6 73.4C199.5 73.3 199.3 73.1 199.3 73C199.2 72.8 199.1 72.6 199 72.4C198.9 72.1 198.8 71.8 198.8 71.5C198.7 70.8 198.6 70 198.7 69.3C199.1 56.2 199 43 198.9 29.8ZM403.4 74.5H403.1C402.3 74.5 401.6 74.5 400.8 74.4H422.3C416 74.4 409.7 74.4 403.4 74.5ZM366.9 74.5H366.6C360.1 74.4 353.6 74.4 347 74.4H369C368.4 74.5 367.6 74.5 366.9 74.5ZM223.5 104.2C223.3 102.8 223.7 101.4 224.5 100.4C224.7 100.3 224.8 100.1 225 100.1C225.1 100 225.2 100 225.3 100C225.4 100 225.5 99.9 225.5 99.9C225.6 99.9 225.8 99.8 225.9 99.8C226 99.8 226.1 99.8 226.1 99.8C226.2 99.8 226.3 99.8 226.4 99.8C227 99.7 227.6 99.7 228.2 99.7H228.3C234.3 99.7 239.9 99.7 245.2 99.7C248.8 99.7 252.2 99.7 255.6 99.7C260 99.7 264.2 99.7 268.4 99.7C293.3 99.7 314.8 99.6 346.2 99.6L426.8 99.7C434.7 99.7 441.9 99.8 448.6 99.8C472 99.9 489.9 99.8 512.4 99.8H512.5H521.2C522 99.8 522.8 99.8 523.6 99.8C525.9 99.8 528.2 99.8 530.6 99.8C533.8 99.8 537.2 99.8 540.7 99.8H540.8C545.4 99.8 546.4 101.1 546.3 105.6C546.2 173 546.2 240.5 546.3 307.9C546.3 308.7 546.3 309.5 546.2 310.3C546.2 310.6 546.1 310.8 546.1 311.1C546 311.6 545.8 312.1 545.5 312.5C544.9 313.1 544 313.3 542.6 313.1C542.5 313.1 542.3 313.1 542.2 313C541.9 313 541.7 312.9 541.4 312.8C541.1 312.7 540.8 312.7 540.4 312.6C534.7 311.1 528.9 310.4 523 310.4C512.8 310.6 502.7 312.2 492.8 315C469.4 321.2 445.9 326.8 421.7 332.8C419.5 315.5 412.8 300.9 398.9 290.3C391.4 283.6 382.3 278.8 372.5 276.5C337.8 268.8 303.1 261 268.4 253.3C255.2 250.4 242 247.3 228.7 244.6C225.1 243.9 223.7 242.7 223.7 238.7C223.6 193.8 223.6 149 223.5 104.2Z" fill="black"/>
<path d="M400.7 74.4004C401.6 74.5004 402.4 74.6004 403.3 74.6004C409.6 74.5004 415.9 74.5004 422.2 74.4004H400.7Z" fill="black"/>
<path d="M349.416 110.264H420.216C424.416 110.264 427.716 113.664 427.716 117.764V119.764C427.716 123.964 424.316 127.264 420.216 127.264H349.416C345.216 127.264 341.916 123.864 341.916 119.764V117.764C341.916 113.664 345.216 110.264 349.416 110.264Z" fill="black"/>
</svg>
