<svg width="654" height="428" viewBox="0 0 654 428" fill="none" xmlns="http://www.w3.org/2000/svg">
<path d="M652.399 239.3C641.999 206.1 631.699 172.9 621.299 139.7C609.099 100.7 596.9 61.7 584.7 22.6C581.8 13.5 577.7 10.6 570 12.3L562.7 13.9C544.6 18 525.9 22.2 507.6 27C491.7 31.2 479.9 46 479 63C478.7 68.4 478.299 71.6 473.299 73.2C471.899 73.7 470.599 74.3 469.299 74.9C466.599 76.2 464 77.5 460.5 76.9C439.2 73.4 417.5 70 396.5 66.7C379.1 64 361.2 61.2 343.6 58.3C328.5 55.8 316.199 59.3 305.899 69C302.499 72.2 298.899 75.2 295.299 78.2C292.699 80.3 290.1 82.6 287.5 84.8C285.6 86.4 283.9 87.3 281.7 87.5C276.2 88 270.7 88.5 265.2 89C258.2 89.7 250.999 90.4 243.899 91C238.299 91.5 233.199 89.9 228.799 86.3C225.999 84 223.199 81.6 220.399 79.3C217.199 76.6 214 73.8 210.7 71.2C209 69.8 208.299 68.3 208.299 65.8C207.999 47.5 199.5 34.4 183 26.7C167 19.2 149.7 11.3 130.2 2.40001C122.3 -1.19999 117.599 0.400008 113.299 8.20001C73.9993 79.3 37.6995 144.9 2.49953 208.7C0.299528 212.7 -0.300374 216.1 0.599626 219.1C1.59963 222.1 4.09943 224.5 8.39943 226.5L13.9995 229.1C30.9995 237 48.5994 245.1 65.8994 252.9C81.8994 260.1 97.0995 258 111 246.9C111.3 246.6 111.6 246.3 112 246C113.2 244.9 113.9 244.3 115.1 244.7C115.9 244.9 116.7 245.2 117.5 245.4C122.5 246.8 126.8 248.1 129.7 253.7C152.9 300 186.399 337.5 229.399 365.2C245.999 375.9 262.5 387.2 278.6 398.1C289.1 405.3 299.999 412.7 310.799 419.9C318.199 424.8 326 427.3 333.7 427.3C337.1 427.3 340.4 426.8 343.6 425.9C354 422.8 362.4 414.8 367.2 403.4C367.6 402.5 368 401.5 368.5 401.4C369 401.2 369.999 401.7 370.799 402C381.099 406.7 392.2 407 402 402.6C411.5 398.4 418.5 390.5 421.7 380.2C422.8 376.8 423.499 376.6 426.799 377C449.299 379.8 466.2 366.5 469 343.9C469.3 341.3 469.5 340.7 472.1 340.3C485.3 338.4 495.8 331 501.1 319.9C506.3 308.9 505.4 296.1 498.6 284.7C496.9 281.9 497.399 281.4 499.899 279.5C509.499 272.3 520.299 263.2 527.5 250.5C528.799 248.2 530.1 246.9 531.1 246.9C532.1 246.9 533.399 248.1 534.799 250.5C542.999 264.6 555.5 271.9 572.1 272.3C575.8 272.5 579.8 272.1 584.1 271C601.1 267 618.4 263 635.1 259.1L641.399 257.6C647.399 256.2 650.799 254.3 652.399 251.4C654.299 248.8 654.199 245 652.399 239.3ZM628 237.4C627.5 238.2 626.099 238.7 624 239.1C613.299 241.4 602.399 244 591.899 246.5C587.099 247.6 582.299 248.8 577.5 249.9C576.099 250.2 574.7 250.5 573.7 250.6C573.4 250.7 573.099 250.7 572.899 250.7C572.799 250.7 572.8 250.7 572.7 250.7C562.9 250.7 555.299 245.2 552.5 236C541.099 199.4 529.799 162.9 518.399 126.3L501.299 71.1C499.799 66.4 500.5 61.1 503 56.6C505.6 52 509.899 48.7 514.899 47.4C522.699 45.4 530.699 43.6 538.399 41.8C546.499 39.9 554.9 38 563.2 35.9C563.8 35.7 564.299 35.7 564.799 35.7C565.299 35.7 565.599 35.8 565.799 35.9C566.399 36.3 566.5 37.2 566.7 38.2C566.8 38.7 566.9 39.2 567 39.7C576.2 69.1 585.6 99 594.6 127.9L598.5 140.5C601 148.5 603.5 156.6 606 164.7C613 187.2 620.2 210.5 627.5 233.3C628.299 235.4 628.4 236.6 628 237.4ZM365 251C361.6 255.1 361.5 259.8 364.7 264.3C365.7 265.7 366.999 266.7 368.299 267.8C368.599 268 368.9 268.3 369.2 268.5C383 280.1 396.8 291.7 410.6 303.4C420.7 311.9 430.699 320.4 440.799 328.9C448.899 335.7 450.199 343.9 444.399 350.8C438.799 357.5 429.8 357.6 422 351.1C404.3 336.3 386.599 321.4 368.899 306.6L349.799 290.6C349.499 290.3 349.199 290.1 348.899 289.8C348.399 289.4 347.899 288.9 347.299 288.5C341.699 284.2 335.5 284.6 331.5 289.6C327.5 294.6 328.2 300.3 333.5 304.8C343.6 313.4 353.899 322.1 363.899 330.5C369.299 335 374.6 339.5 380 344.1L381.7 345.5C386.7 349.7 391.899 354.1 396.899 358.5C403.399 364.2 404.3 372.3 399.2 378.6C393.8 385.3 385.3 386.1 378.5 380.6C369 373 359.499 365 350.399 357.3C346.699 354.2 342.999 351.1 339.299 348C335.099 344.5 330.9 341 326.7 337.5C318.6 330.8 310.3 323.8 302.1 317C295.7 311.7 289.5 311.6 285.1 316.7C283.1 319 282.099 321.5 282.299 324.1C282.499 327.4 284.599 330.6 288.299 333.8C301.599 345.1 314.999 356.3 328.399 367.6L341.399 378.5C349.299 385.1 350.7 392.9 345.2 399.9C340.1 406.4 331.999 407.2 323.799 401.9C303.099 388.3 282.3 374.1 262.2 360.3C250.7 352.4 238.8 344.2 227 336.3C198.3 316.9 175.3 290.2 152.7 249.8C152.1 248.8 151.6 247.8 151 246.8C149.7 244.6 148.399 242.4 147.399 240.1C143.899 232 138.399 227.6 130.799 226.6C128.599 226.3 127.999 225.8 127.799 225.4C127.399 224.6 128.2 222.9 129.2 221.2C145.7 191.5 162.299 161.3 178.399 132L191.799 107.7C192.499 106.5 193.199 105.2 193.899 104C195.599 101.1 197.3 98.1 198.7 95C199.7 92.9 200.5 91.8 201.2 91.7C201.3 91.7 201.299 91.7 201.399 91.7C202.099 91.7 203.099 92.4 204.299 93.6C205.299 94.7 206.6 95.6 207.7 96.5C208.7 97.2 209.599 97.9 210.399 98.6C222.499 110.1 236.9 114.7 253.2 112.4C254.1 112.3 255 112.3 256 112.3C256.3 112.3 256.499 112.3 256.799 112.3C256.899 112.3 256.9 112.4 257 112.4C257 112.4 257 112.4 257.1 112.4C238.3 122.8 230.9 139.4 233.1 165.6C233.5 170.7 233.399 176 233.299 181.2C233.199 184.7 233.199 188.2 233.299 191.8C233.799 209.5 245.599 224 262.899 227.8C280.099 231.6 295.3 224.2 303.7 208C310.2 195.4 313.399 183.1 313.299 170.6C313.299 168.9 313.299 166.8 313.799 165C313.999 164.2 314 163.3 314.1 162.4C314.2 160.1 314.4 158.8 316 158.2C318.9 157.2 321.399 159 323.799 161.1C344.599 179.1 365.8 197.3 386.2 214.9L395.6 223C420.2 244.2 445.6 266 470.6 287.5C471.9 288.6 473.399 289.6 474.899 290.6C475.499 291 476 291.3 476.6 291.7C480.4 294.3 482.9 298 483.6 302C484.2 305.6 483.3 309.4 481 312.5C478.5 316 475 318.1 471.1 318.6C467.1 319.1 463 317.8 459.5 314.9C443.2 301.4 426.799 287.7 410.799 274.4C401.899 267 393 259.5 384.1 252.1L383.6 251.7C382.1 250.4 380.5 249.1 378.7 248.1C373.2 245.7 368.6 246.7 365 251ZM469.899 258.8C454.899 245.9 440 233.1 425 220.2C395.9 195.2 365.899 169.4 336.399 144C330.399 138.8 324 136.2 317.1 136.2C313.5 136.2 309.9 136.9 306.1 138.3C296.4 142 291.299 150.4 290.799 163.4C290.399 173.6 289.4 185.5 284 196.6C280.1 204.7 274.1 208.4 267.1 207C258.6 205.3 253.7 199.2 253.6 190.3C253.5 181.9 253.5 173.3 253.5 165C253.5 160.3 253.5 155.7 253.5 151C253.5 145.1 255.799 140.4 260.399 136.4C280.799 119 300.8 102 321 84.5C325.7 80.4 331.099 78.9 337.799 80C348.799 81.7 359.899 83.4 370.899 85C400.099 89.4 430.299 94 459.899 98.9C467.299 100.1 472.7 97.2 478 94.5C479 93.9 480.1 93.4 481.2 92.8C482.3 92.3 483.399 91.8 483.799 92C484.099 92.1 484.5 92.6 485 94.4C495.7 129 506.4 162.8 517.7 198.5L526.299 225.9C525.599 225.9 524.899 225.9 524.299 225.8C521.999 225.7 520.1 225.7 518.1 226C514.1 226.7 511.299 229.3 510.799 232.6C509.199 243.9 501.099 250.8 493.299 257.4L491.7 258.8C486.1 263.6 483.2 266 480.7 266C478.2 266 475.399 263.6 469.899 258.9V258.8ZM183.399 75.7C169.999 100.2 156.5 124.6 143 149.1C129.4 173.8 115.799 198.4 102.299 223.1C97.8993 231.1 92.0995 234.9 83.9995 235.1C81.0995 235.3 78.0994 234.6 74.8994 233.2C70.0994 231 65.2994 228.8 60.3994 226.5C50.3994 221.9 39.9993 217.1 29.7993 212.5C28.1993 211.8 27.2996 211.1 27.0996 210.5C26.8996 209.8 27.1995 208.8 27.9995 207.3C61.6995 146.8 94.8997 86.8 126.7 29.1C127.8 27.1 128.699 26.3 129.899 26.3C130.699 26.3 131.7 26.7 133 27.3C140.9 31.1 148.999 34.8 156.799 38.3C162.399 40.9 168.199 43.5 173.899 46.2C180.199 49.1 184.4 53.4 186.1 58.5C187.6 63.7 186.699 69.6 183.399 75.7Z" fill="black"/>
</svg>
