<svg width="624" height="300" viewBox="0 0 624 300" fill="none" xmlns="http://www.w3.org/2000/svg">
<path d="M621 105.199C620.9 104.999 620.7 104.799 620.5 104.599L519.199 3.29922C517.199 1.29922 514.6 0.199219 511.8 0.199219C509 0.199219 506.299 1.29922 504.399 3.29922C502.399 5.29922 501.4 7.89922 501.3 10.6992V63.4992H206C205.9 63.4992 205.9 63.4992 205.8 63.4992C200 63.7992 195.599 68.7992 195.899 74.5992C196.199 79.8992 200.5 84.1992 205.8 84.4992C205.9 84.4992 205.9 84.4992 206 84.4992H511.8C517.6 84.4992 522.3 79.7992 522.3 73.9992V36.0992L598.199 111.999L522.3 187.899V149.999C522.3 144.199 517.6 139.499 511.8 139.499H122.899V86.1992C122.899 83.3992 121.8 80.6992 119.8 78.7992C117.8 76.7992 115.1 75.7992 112.3 75.7992C109.5 75.7992 106.899 76.8992 104.899 78.8992L3.59961 180.199C-0.400391 184.299 -0.400391 190.899 3.59961 194.999L104.899 295.999C106.899 297.999 109.5 299.099 112.3 299.099C115.1 299.099 117.799 297.999 119.699 295.999C121.699 293.999 122.7 291.399 122.8 288.599V235.299H411.1C411.2 235.299 411.2 235.299 411.3 235.299C414.1 235.099 416.7 233.899 418.6 231.799C420.5 229.699 421.399 226.999 421.199 224.199C420.899 218.899 416.6 214.599 411.3 214.299C411.2 214.299 411.2 214.299 411.1 214.299H112.199C106.399 214.299 101.699 218.999 101.699 224.799V263.199L25.7996 187.299L101.699 111.399V149.799C101.699 155.599 106.399 160.299 112.199 160.299H501.1V213.199C501.1 215.999 502.199 218.699 504.199 220.599C506.199 222.599 508.899 223.699 511.699 223.599C514.499 223.599 517.1 222.499 519.1 220.499L620.399 119.199C624.299 115.499 624.5 109.299 621 105.199Z" fill="black"/>
</svg>
