<svg width="611" height="584" viewBox="0 0 611 584" fill="none" xmlns="http://www.w3.org/2000/svg">
<path d="M608.3 341.101C606 337.401 603.6 333.801 601.3 330.301C599.5 327.601 597.8 324.901 596.1 322.201C587.9 309.301 579.5 296.301 571.4 283.701C557.5 262.201 543.2 240.001 529.6 217.801C522.3 206.001 514.2 201.801 502.3 204.001C502.2 204.001 502.1 204.001 502.1 204.001H502C501.3 204.001 500.6 203.901 499.9 203.901C498.3 203.801 496.6 203.701 494.9 203.701H473.6C441.1 203.701 407.5 203.701 374.5 203.801C372.8 203.801 371.7 203.601 371.4 203.201C371 202.801 370.9 201.801 370.9 200.201C371.1 185.801 371.2 170.101 370.9 152.201C370.9 150.401 371.2 149.801 371.3 149.601C371.5 149.401 372 149.101 373.9 149.201C381.8 149.301 389.9 149.301 397.7 149.301C403.9 149.301 410.2 149.301 416.5 149.301C421.1 149.301 426.6 148.601 429.2 142.401C431.9 136.101 428.6 131.401 425.8 128.401C402.4 102.601 378.7 76.2008 355.8 50.8008C342.4 35.9008 329 21.1008 315.6 6.20078C309.1 -0.999219 301.8 -0.999219 295.4 6.20078C283.4 19.5008 271.4 32.8007 259.4 46.1007C235.1 73.1007 209.9 101.101 185.1 128.501C182.4 131.501 179.1 136.201 181.9 142.601C184.6 148.601 190.1 149.301 194.1 149.201C199.7 149.201 205.3 149.201 210.8 149.201C219.1 149.201 227.6 149.201 236 149.101C237.9 149.101 239 149.301 239.5 149.701C239.8 150.001 240.1 150.801 240.1 153.001C239.9 162.801 239.9 172.701 239.9 182.301C239.9 187.501 239.9 192.701 239.9 197.901C239.9 198.901 239.9 199.801 239.9 200.501C239.9 201.801 239.9 203.101 239.8 203.601C239.3 203.701 238.1 203.701 236.9 203.701C236.2 203.701 235.3 203.701 234.4 203.701H218.7C180.1 203.701 140.1 203.801 100.9 203.601C93.7999 203.601 88.9999 206.101 85.2999 211.801C61.9999 248.401 38.0999 285.501 14.9999 321.401L3.19988 339.701C0.599884 343.701 -1.60015 348.601 1.59985 354.101C4.59985 359.201 9.59988 359.901 14.1999 359.901C21.5999 359.901 28.9999 359.901 36.2999 359.901C50.6999 359.901 65.4998 360.001 80.0998 359.701C82.4998 359.601 83.8999 359.901 84.4999 360.501C85.0999 361.101 85.3999 362.501 85.3999 365.301C85.1999 423.101 85.1999 481.801 85.1999 538.601V568.901C85.1999 574.201 86.3999 577.901 88.7999 580.301C91.1999 582.701 94.7998 583.901 100.1 583.901H100.2H101.6C119.3 583.801 137 583.801 154.7 583.601C156 583.601 157.3 583.401 158.6 583.301C159.1 583.201 159.6 583.201 160.1 583.101C161.5 583.101 162.9 583.201 164.3 583.201C167.4 583.301 170.6 583.401 173.8 583.401C285.6 583.501 397.4 583.501 509.1 583.501C515.7 583.501 519.4 582.501 521.9 580.101C524.4 577.701 525.4 574.001 525.4 567.401V530.901C525.4 476.101 525.4 419.501 525.2 363.801C525.2 361.801 525.4 360.601 525.9 360.201C526.3 359.801 527.5 359.601 529.4 359.601C552.3 359.901 575.7 359.801 597.7 359.701C603.1 359.701 607.3 357.501 609.4 353.801C611.6 350.401 611.1 345.701 608.3 341.101ZM578.1 336.901H567.2C553.1 336.901 539.8 336.901 526.3 336.901C525.8 336.901 525.6 336.801 525.5 336.801C525.4 336.501 525.4 335.801 525.4 335.301V333.801C525.4 308.401 525.4 282.201 526.2 256.001L578.1 336.901ZM128.2 560.401C121.8 560.301 116 560.301 110.8 560.401C109.2 560.401 108.8 560.101 108.8 560.101C108.7 560.001 108.6 559.501 108.7 558.601C108.8 557.901 108.8 557.301 108.7 556.701C108.7 556.501 108.7 556.201 108.7 556.001L108.6 257.401L108.7 257.501L111 261.301C125.9 286.301 141.4 312.201 156.4 337.701C159.6 343.101 163.8 345.501 169.7 345.501C208.9 345.501 248.1 345.501 287.4 345.501C310.2 345.501 333.1 345.501 355.9 345.501C356.6 345.501 357.3 345.401 357.9 345.301C358.1 345.301 358.3 345.201 358.4 345.201L380.1 345.301C401 345.401 421.9 345.401 442.7 345.501C450.1 345.501 453.7 340.701 455.8 337.101C468.5 315.101 481.9 292.001 496.8 266.401C498.5 263.501 500.3 260.801 502.4 257.701V319.201C502.4 396.901 502.3 477.301 502.5 556.301C502.5 558.301 502.3 559.601 501.8 560.001C501.2 560.601 499.4 560.701 497.9 560.701C405.5 560.601 311.6 560.701 220.8 560.701H182.7C180.9 560.701 179.1 560.801 177.3 560.801C176.5 560.801 175.7 560.801 174.9 560.901C168.7 560.401 162.4 560.301 156.2 560.301C152.6 560.301 149 560.301 145.4 560.401C139.8 560.401 134 560.501 128.2 560.401ZM492.8 228.601C492.5 229.001 492.3 229.401 492 229.801C486.2 239.701 480.4 249.601 474.5 259.501C463.2 278.801 451.5 298.701 440 318.301C438.1 321.501 436.4 322.501 432.9 322.501C418.1 322.401 403.1 322.401 388.5 322.501C383.2 322.501 377.9 322.601 372.6 322.601C371.8 322.601 371.1 322.501 370.3 322.501C368.7 322.401 367 322.301 365.3 322.301H337.7C285.7 322.301 231.9 322.301 179 322.501H178.9C175.1 322.501 173.3 321.501 171.4 318.101C162.6 303.101 153.6 288.001 144.9 273.301C137.3 260.501 129.4 247.301 121.7 234.201C121.1 233.101 120.2 232.101 119.3 231.101C117.7 229.301 116.6 228.001 117.1 227.201C117.7 226.101 119.6 226.301 122.4 226.701C123.6 226.901 124.8 227.001 125.9 227.001C217.6 226.901 310.8 227.001 401 227.001H479.9C481.7 227.001 483.5 226.901 485.3 226.801C486.1 226.801 486.9 226.701 487.7 226.701L493.7 227.001C493.5 227.501 493.2 228.001 492.8 228.601ZM227.1 116.601C235.2 107.601 242.9 99.0008 250.7 90.3008C255.6 84.9008 260.4 79.5007 265.3 74.1007C277.7 60.3007 290.6 46.1008 303.1 32.0008C303.6 31.4008 304.9 30.0008 305.4 30.0008C305.5 30.0008 306 30.0008 307.3 31.5008C328.1 54.8008 349.3 78.4008 369.8 101.201C377.3 109.601 384.8 117.901 392.3 126.301H385.6C378.1 126.301 370.8 126.301 363.4 126.301C351.3 126.301 347.5 130.001 347.5 142.001C347.5 146.601 347.5 151.301 347.5 155.901C347.5 170.401 347.4 185.301 347.6 200.101C347.6 201.401 347.6 203.001 347.1 203.401C346.9 203.601 346.2 204.001 344.2 203.901C318.6 203.601 292.4 203.701 266.3 203.901C264.2 203.901 263.6 203.601 263.4 203.401C262.9 202.901 262.9 201.401 262.9 200.101C263.1 183.901 263 167.501 263 151.601V140.901C263 130.501 258.9 126.401 248.4 126.401C244.1 126.401 239.8 126.401 235.4 126.401C232.1 126.401 228.7 126.401 225.3 126.401C223.1 126.401 220.8 126.401 218.4 126.401L227.1 116.601ZM85.4999 335.601C85.4999 336.701 85.3999 336.901 85.3999 336.901C85.3999 336.901 85.1998 337.001 84.5998 337.001C70.8998 337.001 57.3998 337.001 43.0998 337.001H32.8999L85.4999 254.901V266.601C85.3999 289.501 85.3999 312.501 85.4999 335.601Z" fill="black"/>
<path d="M157.4 459.701C157.4 461.601 157.6 463.801 159.1 465.301C160.4 466.601 162.3 466.801 163.9 466.801C164.1 466.801 164.2 466.801 164.4 466.801C171.8 466.601 179.4 466.601 186.7 466.701C189.6 466.701 192.5 466.701 195.4 466.701C201.8 466.701 208.1 466.701 214.5 466.701H218.7C233.5 466.701 234.4 465.801 234.6 451.501V450.801C234.6 448.901 234.5 446.601 232.9 445.001C231.3 443.401 229 443.301 226.7 443.301C213.8 443.501 200.7 443.401 188 443.401C183.2 443.401 178.4 443.401 173.6 443.401C165.8 443.401 162 443.401 159.6 445.801C157.3 448.101 157.3 451.901 157.3 459.301L157.4 459.701Z" fill="black"/>
<path d="M157.4 502.9C157.4 504.8 157.6 507 159.1 508.4C160.5 509.7 162.4 510 164 510C164.1 510 164.3 510 164.4 510C173.1 509.8 181.9 509.9 190.5 509.9C194 509.9 197.4 509.9 200.9 509.9C201 509.9 201.2 509.9 201.3 509.9C209 509.9 212.9 509.9 215.2 507.5C217.6 505.1 217.5 501.2 217.3 493.5V493C217.3 491.5 217 489.4 215.6 488C214.2 486.7 212.2 486.5 210.2 486.6C204.9 486.7 199.4 486.7 194.2 486.7C192 486.7 189.8 486.7 187.5 486.7H173.1C165.6 486.7 161.9 486.7 159.6 489C157.3 491.3 157.3 495.1 157.4 502.5V502.9Z" fill="black"/>
</svg>
