<svg width="507" height="507" viewBox="0 0 507 507" fill="none" xmlns="http://www.w3.org/2000/svg">
<path d="M432.7 75.0996C384.9 27.1996 321.199 0.699609 253.399 0.599609C253.299 0.599609 253.1 0.599609 253 0.599609C185.9 0.599609 122.699 26.8996 74.8994 74.6996C26.9994 122.6 0.599609 186.1 0.599609 253.5C0.599609 287.7 7.29961 320.9 20.5996 352.3C33.4996 382.6 51.7997 409.8 75.1997 433.2C122.7 480.7 185.299 506.9 251.399 506.9C251.399 506.9 251.4 506.9 251.5 506.9C320 506.9 384.1 480.7 432.1 433.2C480.1 385.7 506.6 322.2 506.7 254.4C506.8 186.7 480.5 123 432.7 75.0996ZM483.899 253.2C483.999 314.9 459.999 372.8 416.399 416.4C372.799 460 314.8 484 253.1 484.1H253C191.8 484.1 134.199 460.1 90.7993 416.5C47.2993 372.9 23.3994 315 23.3994 253.6C23.3994 192.1 47.3995 134.3 90.9995 90.7996C134.6 47.2996 192.5 23.3997 254.1 23.3997C380.7 23.3997 483.799 126.5 483.899 253.2Z" fill="black"/>
<path d="M270.299 114.2C260.399 104.4 246.899 104.4 236.899 114.4C214.699 136.4 192.299 158.8 170.499 180.5L154.099 196.8C147.199 203.7 145.299 212 148.799 220.6C152.299 229.5 159.499 234.3 169.599 234.4C170.799 234.4 172 234.4 173.2 234.5C179.1 234.6 185.099 234.7 191.099 234.3C193.099 234.2 193.699 234.5 193.899 234.6C194.399 235.1 194.399 237.2 194.399 237.8C194.199 250.9 194.099 358.3 194.399 372.9C194.699 389.5 205.599 400.3 222.099 400.5C226.099 400.5 230.1 400.6 234.2 400.6C237.4 400.6 240.599 400.6 243.799 400.6C247.099 400.6 250.299 400.6 253.599 400.6H262.799C269.799 400.6 276.799 400.6 283.799 400.6C302.299 400.5 312.999 390 313.099 371.6C313.199 357.2 313.399 251.3 312.999 238.3C312.899 236 313.299 235.2 313.599 234.9C313.999 234.5 315.199 234.3 317.099 234.4C323.399 234.8 329.899 234.6 336.099 234.5H337.999C347.799 234.3 354.799 229.7 358.399 221C361.999 212.2 360.299 203.9 353.499 197C325.499 169.1 298.199 141.8 270.299 114.2ZM292.499 311.6C292.499 338.2 292.499 363.4 292.499 370.7C292.499 378.6 291.099 380 283.399 380C276.499 380 269.599 380 262.799 380H253.799C250.699 380 247.599 380 244.599 380C237.599 380 230.599 380 223.599 380C216.599 380 215.099 378.4 214.999 371.3C214.999 362.3 214.999 326.6 214.999 292C214.999 262.7 214.999 235.1 214.999 227.3C214.999 217.1 211.699 213.8 201.299 213.8C196.799 213.8 192.3 213.8 187.7 213.8C182.2 213.8 176.599 213.8 171.099 213.8H170.799C168.599 213.8 168.299 213.6 168.099 212.9C167.899 212.4 167.999 212 169.299 210.8L188.999 191.2C209.699 170.6 230.399 150 251.099 129.3C253.099 127.3 254.299 127.3 256.299 129.3C279.099 152 301.9 174.7 324.7 197.4L337.899 210.5C339.499 212.1 339.599 212.5 339.299 213.1C338.999 213.6 338.499 213.7 336.599 213.7H336.399C325.999 213.7 315.599 213.7 305.599 213.7C296.099 213.7 292.499 217.2 292.499 226.6C292.399 236.3 292.399 276.3 292.499 311.6Z" fill="black"/>
</svg>
