<svg width="267" height="68" viewBox="0 0 267 68" fill="none" xmlns="http://www.w3.org/2000/svg">
<path d="M4.60423 29.3657C3.38311 29.3657 2.21201 29.8555 1.34855 30.7273C0.485087 31.5991 0 32.7816 0 34.0146C0 35.2475 0.485087 36.43 1.34855 37.3019C2.21201 38.1737 3.38311 38.6635 4.60423 38.6635V29.3657ZM265.66 37.279C266.518 36.4079 267 35.2289 267 34C267 32.7711 266.518 31.5921 265.66 30.721L236.36 1.13696C235.48 0.366454 234.344 -0.0387663 233.18 0.00292534C232.016 0.044617 230.911 0.530123 230.088 1.36164C229.264 2.19316 228.783 3.3089 228.742 4.4841C228.701 5.6593 229.102 6.80664 229.865 7.69499L255.91 33.9927L229.851 60.305C229.087 61.1934 228.686 62.3407 228.727 63.5159C228.769 64.6911 229.25 65.8068 230.073 66.6384C230.897 67.4699 232.002 67.9554 233.166 67.9971C234.329 68.0388 235.466 67.6335 236.346 66.863L265.66 37.279ZM4.60423 38.6562H262.405V29.3657H4.60423V38.6562Z" fill="white"/>
</svg>
