<svg xmlns="http://www.w3.org/2000/svg" viewBox="0 0 21 21"><defs><style>.cls-1{fill:#1da1f2;}.cls-2{fill:#fff;}</style></defs><g id="Layer_2" data-name="Layer 2"><g id="Layer_1-2" data-name="Layer 1"><path class="cls-1" d="M21,11a4,4,0,0,0-2.15-3.6A4.08,4.08,0,0,0,19.09,6a3.91,3.91,0,0,0-3.82-4,3.66,3.66,0,0,0-1.33.25,3.75,3.75,0,0,0-6.88,0A3.66,3.66,0,0,0,5.73,2,3.91,3.91,0,0,0,1.91,6a4.08,4.08,0,0,0,.24,1.4,4.1,4.1,0,0,0-.21,7.09,4.36,4.36,0,0,0,0,.51,3.91,3.91,0,0,0,3.82,4,3.66,3.66,0,0,0,1.33-.25,3.75,3.75,0,0,0,6.88,0,3.66,3.66,0,0,0,1.33.25,3.91,3.91,0,0,0,3.82-4,4.41,4.41,0,0,0,0-.52A4,4,0,0,0,21,11Z"/><path class="cls-2" d="M14.39,7.67l-4.34,6.5a.75.75,0,0,1-.62.33A.72.72,0,0,1,9,14.37l-.12-.09L6.48,11.86a.75.75,0,0,1,1.06-1l1.77,1.76,3.83-5.74a.75.75,0,0,1,1.25.84Z"/></g></g></svg>