<svg width="326" height="325" viewBox="0 0 326 325" fill="none" xmlns="http://www.w3.org/2000/svg">
<path d="M286.552 324.31H39.4603C38.4462 324.31 37.4421 324.11 36.5052 323.722C35.5683 323.334 34.7171 322.765 34 322.048C33.2829 321.331 32.7142 320.48 32.3261 319.543C31.938 318.606 31.7383 317.602 31.7383 316.588V162.156C31.7614 160.123 32.5851 158.181 34.0307 156.752C35.4762 155.323 37.427 154.521 39.4598 154.521C41.4926 154.521 43.4434 155.323 44.8889 156.752C46.3345 158.181 47.1581 160.123 47.1813 162.156V308.867H278.83V162.156C278.819 161.134 279.01 160.121 279.393 159.174C279.775 158.227 280.342 157.365 281.061 156.639C281.779 155.912 282.634 155.336 283.576 154.942C284.519 154.548 285.53 154.346 286.552 154.346C287.573 154.346 288.585 154.548 289.527 154.942C290.47 155.336 291.325 155.912 292.043 156.639C292.761 157.365 293.328 158.227 293.711 159.174C294.094 160.121 294.285 161.134 294.273 162.156V316.588C294.273 318.635 293.46 320.599 292.012 322.048C290.564 323.496 288.6 324.309 286.552 324.31Z" fill="white"/>
<path d="M8.57356 77.2168H317.439C319.487 77.2168 321.451 78.0304 322.899 79.4785C324.347 80.9267 325.161 82.8908 325.161 84.9388V162.155C325.161 164.203 324.347 166.167 322.899 167.615C321.451 169.063 319.487 169.877 317.439 169.877H8.57356C6.52556 169.877 4.56144 169.063 3.11328 167.615C1.66513 166.167 0.851563 164.203 0.851562 162.155V84.9388C0.851562 82.8908 1.66513 80.9267 3.11328 79.4785C4.56144 78.0304 6.52556 77.2168 8.57356 77.2168ZM309.717 92.6598H16.2996V154.434H309.717V92.6598Z" fill="white"/>
<path d="M163.005 324.31C160.957 324.31 158.993 323.496 157.545 322.048C156.097 320.6 155.283 318.636 155.283 316.588V84.9388C155.306 82.9062 156.13 80.9646 157.576 79.5354C159.021 78.1062 160.972 77.3047 163.005 77.3047C165.037 77.3047 166.988 78.1062 168.434 79.5354C169.879 80.9646 170.703 82.9062 170.726 84.9388V316.583C170.727 317.597 170.528 318.602 170.14 319.539C169.752 320.477 169.184 321.328 168.467 322.046C167.75 322.764 166.898 323.333 165.961 323.721C165.024 324.11 164.02 324.31 163.005 324.31Z" fill="white"/>
<path d="M163.005 92.6602H93.5112C84.3473 92.6609 75.389 89.9439 67.7693 84.8529C60.1496 79.7619 54.2108 72.5255 50.7041 64.0591C47.1973 55.5926 46.2802 46.2764 48.0686 37.2886C49.857 28.3009 54.2706 20.0453 60.7512 13.5662C65.0436 9.25123 70.1492 5.83045 75.7724 3.50185C81.3957 1.17325 87.4249 -0.0169358 93.5112 0.000182054C118.598 0.000182054 139.962 14.7342 155.293 42.6092C162.241 55.4465 167.384 69.181 170.577 83.4242C170.801 84.5444 170.774 85.7005 170.497 86.8089C170.22 87.9173 169.701 88.9505 168.977 89.834C168.252 90.7174 167.341 91.4292 166.309 91.9179C165.276 92.4067 164.148 92.6602 163.005 92.6602ZM93.5112 15.4432C89.4404 15.42 85.4051 16.2018 81.6374 17.7436C77.8698 19.2854 74.4441 21.5568 71.5573 24.4272C68.6706 27.2976 66.3797 30.7103 64.8165 34.4692C63.2532 38.228 62.4485 42.2588 62.4485 46.3297C62.4485 50.4006 63.2532 54.4314 64.8165 58.1902C66.3797 61.949 68.6706 65.3618 71.5573 68.2321C74.4441 71.1025 77.8698 73.3739 81.6374 74.9157C85.4051 76.4575 89.4404 77.2393 93.5112 77.2162H153C150.161 67.6896 146.338 58.4841 141.594 49.7482C128.985 26.9852 112.808 15.4432 93.5112 15.4432Z" fill="white"/>
<path d="M232.5 92.66H163.005C161.863 92.6603 160.734 92.407 159.701 91.9184C158.668 91.4298 157.757 90.7181 157.032 89.8345C156.308 88.951 155.788 87.9177 155.511 86.8092C155.235 85.7006 155.207 84.5444 155.431 83.424C158.625 69.1807 163.769 55.4462 170.717 42.609C186.048 14.734 207.412 0 232.5 0C241.663 0.000101726 250.621 2.71736 258.239 7.80818C265.858 12.899 271.796 20.1347 275.303 28.6003C278.81 37.066 279.727 46.3813 277.939 55.3684C276.152 64.3555 271.739 72.6106 265.26 79.09C260.968 83.4057 255.863 86.8273 250.239 89.1566C244.616 91.4859 238.587 92.6766 232.5 92.66ZM173.01 77.216H232.5C236.571 77.2392 240.606 76.4574 244.374 74.9156C248.142 73.3737 251.567 71.1023 254.454 68.232C257.341 65.3616 259.632 61.9488 261.195 58.19C262.758 54.4312 263.563 50.4004 263.563 46.3295C263.563 42.2586 262.758 38.2278 261.195 34.469C259.632 30.7101 257.341 27.2974 254.454 24.427C251.567 21.5567 248.142 19.2853 244.374 17.7435C240.606 16.2016 236.571 15.4198 232.5 15.443C213.2 15.443 197.026 26.985 184.416 49.743C179.672 58.4805 175.849 67.6877 173.01 77.216Z" fill="white"/>
</svg>
