<svg width="312" height="312" viewBox="0 0 312 312" fill="none" xmlns="http://www.w3.org/2000/svg">
<path d="M300.457 145.107L236.747 81.3964C234.855 79.3152 232.384 77.8461 229.652 77.1771C226.936 76.7183 224.17 76.6239 221.428 76.8964C220.102 76.9643 218.625 77.0633 216.92 77.0668L91.7058 76.8688L91.5361 76.8688C83.4885 76.893 75.7799 80.1122 70.1053 85.8187C64.4307 91.5251 61.2547 99.2515 61.2755 107.299L61.4105 204.718C61.4211 212.808 64.6394 220.563 70.3599 226.284C76.0803 232.004 83.8358 235.223 91.9257 235.233L217.174 235.425L220.219 235.459C223.139 235.638 226.071 235.476 228.953 234.974C230.403 234.682 231.8 234.168 233.095 233.452C234.523 232.672 235.83 231.686 236.973 230.527L300.505 166.995C303.397 164.084 305.017 160.145 305.008 156.041C304.999 151.937 303.363 148.005 300.457 145.107ZM81.474 209.166C80.877 207.783 80.5729 206.291 80.5809 204.785L80.4345 107.363L80.426 107.27C80.4326 105.799 80.7289 104.344 81.2979 102.988C81.867 101.631 82.6976 100.4 83.7424 99.3649C84.7872 98.3295 86.0258 97.5101 87.3873 96.9534C88.7488 96.3967 90.2066 96.1137 91.6775 96.1205L216.926 96.3128C219.245 96.3116 221.559 96.5194 223.84 96.9337C225.523 97.1061 227.125 97.742 228.467 98.7707L283.077 153.381C283.784 154.091 284.181 155.052 284.182 156.054C284.184 157.056 283.79 158.018 283.086 158.731L228.657 213.159C227.309 214.237 225.727 214.986 224.039 215.345C221.788 215.944 219.47 216.25 217.141 216.255L91.9003 216.072C90.4152 216.071 88.945 215.777 87.5739 215.207C86.2028 214.636 84.9576 213.801 83.91 212.749L83.9269 212.749C82.8845 211.725 82.0513 210.508 81.474 209.166Z" fill="black"/>
<path d="M195.472 177.782C201.175 183.5 208.916 186.72 216.992 186.732C225.068 186.744 232.819 183.549 238.539 177.849C241.372 175.025 243.62 171.672 245.156 167.979C246.692 164.287 247.486 160.328 247.492 156.329C247.498 152.33 246.717 148.369 245.192 144.671C243.667 140.974 241.429 137.614 238.606 134.782C235.825 132.002 232.537 129.782 228.919 128.242C223.343 125.878 217.188 125.231 211.242 126.384C205.296 127.537 199.829 130.437 195.54 134.714C192.708 137.537 190.459 140.891 188.922 144.583C187.386 148.276 186.592 152.235 186.586 156.234C186.579 160.233 187.361 164.195 188.886 167.892C190.41 171.589 192.649 174.95 195.472 177.782ZM206.732 151.945C207.303 150.582 208.136 149.345 209.185 148.304C210.234 147.264 211.477 146.44 212.844 145.88C214.211 145.32 215.675 145.035 217.153 145.041C218.63 145.047 220.092 145.343 221.454 145.914C224.161 147.073 226.317 149.229 227.476 151.936C228.066 153.323 228.368 154.815 228.363 156.322C228.366 157.799 228.077 159.262 227.513 160.627C226.95 161.992 226.123 163.232 225.079 164.277C224.036 165.322 222.796 166.151 221.432 166.717C220.068 167.283 218.606 167.574 217.129 167.574C215.644 167.573 214.174 167.279 212.803 166.708C211.431 166.138 210.186 165.303 209.139 164.25L209.156 164.233C207.579 162.656 206.506 160.646 206.075 158.457C205.643 156.269 205.872 154.002 206.732 151.945Z" fill="black"/>
</svg>
