<svg width="312" height="312" viewBox="0 0 312 312" fill="none" xmlns="http://www.w3.org/2000/svg">
<path d="M300.899 145.107L237.188 81.3964C235.296 79.3152 232.826 77.8461 230.094 77.1771C227.377 76.7183 224.611 76.6239 221.869 76.8964C220.543 76.9643 219.067 77.0633 217.362 77.0668L92.1472 76.8688L91.9775 76.8688C83.9299 76.893 76.2213 80.1122 70.5467 85.8187C64.8721 91.5251 61.6961 99.2515 61.7169 107.299L61.8519 204.718C61.8625 212.808 65.0808 220.563 70.8013 226.284C76.5217 232.004 84.2772 235.223 92.3671 235.233L217.616 235.425L220.66 235.459C223.581 235.638 226.512 235.476 229.395 234.974C230.845 234.682 232.242 234.168 233.536 233.452C234.965 232.672 236.272 231.686 237.415 230.527L300.946 166.995C303.839 164.084 305.458 160.145 305.45 156.041C305.441 151.937 303.804 148.005 300.899 145.107ZM81.9154 209.166C81.3184 207.783 81.0143 206.291 81.0223 204.785L80.8759 107.363L80.8675 107.27C80.8741 105.799 81.1703 104.344 81.7394 102.988C82.3084 101.631 83.139 100.4 84.1838 99.3649C85.2286 98.3295 86.4672 97.5101 87.8287 96.9534C89.1902 96.3967 90.648 96.1137 92.1189 96.1205L217.367 96.3128C219.686 96.3116 222 96.5194 224.281 96.9337C225.964 97.1061 227.566 97.742 228.909 98.7707L283.519 153.381C284.225 154.091 284.622 155.052 284.624 156.054C284.625 157.056 284.231 158.018 283.527 158.731L229.098 213.159C227.75 214.237 226.169 214.986 224.48 215.345C222.23 215.944 219.911 216.25 217.582 216.255L92.3417 216.072C90.8567 216.071 89.3864 215.777 88.0153 215.207C86.6442 214.636 85.399 213.801 84.3514 212.749L84.3683 212.749C83.3259 211.725 82.4927 210.508 81.9154 209.166Z" fill="white"/>
<path d="M195.914 177.782C201.617 183.5 209.357 186.72 217.434 186.732C225.51 186.744 233.26 183.549 238.981 177.849C241.813 175.025 244.061 171.672 245.597 167.979C247.134 164.287 247.927 160.328 247.934 156.329C247.94 152.33 247.158 148.369 245.633 144.671C244.109 140.974 241.871 137.614 239.047 134.782C236.267 132.002 232.978 129.782 229.361 128.242C223.784 125.878 217.629 125.231 211.684 126.384C205.738 127.537 200.271 130.437 195.982 134.714C193.149 137.537 190.9 140.891 189.364 144.583C187.827 148.276 187.033 152.235 187.027 156.234C187.021 160.233 187.802 164.195 189.327 167.892C190.852 171.589 193.09 174.95 195.914 177.782ZM207.174 151.945C207.744 150.582 208.578 149.345 209.626 148.304C210.675 147.264 211.918 146.44 213.286 145.88C214.653 145.32 216.117 145.035 217.594 145.041C219.071 145.047 220.533 145.343 221.896 145.914C224.602 147.073 226.759 149.229 227.917 151.936C228.507 153.323 228.809 154.815 228.805 156.322C228.807 157.799 228.518 159.262 227.955 160.627C227.391 161.992 226.564 163.232 225.52 164.277C224.477 165.322 223.238 166.151 221.874 166.717C220.509 167.283 219.047 167.574 217.57 167.574C216.085 167.573 214.615 167.279 213.244 166.708C211.873 166.138 210.628 165.303 209.58 164.25L209.597 164.233C208.02 162.656 206.948 160.646 206.516 158.457C206.085 156.269 206.314 154.002 207.174 151.945Z" fill="white"/>
</svg>
