<svg xmlns="http://www.w3.org/2000/svg" xmlns:xlink="http://www.w3.org/1999/xlink" viewBox="0 0 77.38 76.73"><defs><style>.cls-1{fill:url(#linear-gradient);}.cls-2{fill:#fff;}.cls-3{fill:url(#linear-gradient-2);}.cls-4{opacity:0.5;}.cls-5{opacity:0.44;}</style><linearGradient id="linear-gradient" y1="38.36" x2="77.38" y2="38.36" gradientUnits="userSpaceOnUse"><stop offset="0" stop-color="#e19504"/><stop offset="1" stop-color="#f1c804"/></linearGradient><linearGradient id="linear-gradient-2" x1="10.66" y1="71.67" x2="60.08" y2="13.1" xlink:href="#linear-gradient"/></defs><g id="Layer_2" data-name="Layer 2"><g id="Layer_64" data-name="Layer 64"><ellipse class="cls-1" cx="38.69" cy="38.36" rx="38.69" ry="38.36"/><ellipse class="cls-2" cx="38.87" cy="38.02" rx="36.53" ry="36.22"/><ellipse class="cls-3" cx="38.87" cy="38.24" rx="34.8" ry="34.51"/><g class="cls-4"><path class="cls-2" d="M38.7,71.18A32.95,32.95,0,1,1,71.93,38.24,33.11,33.11,0,0,1,38.7,71.18Zm0-65.45A32.51,32.51,0,1,0,71.49,38.24,32.68,32.68,0,0,0,38.7,5.73Z"/></g><g class="cls-4"><path class="cls-2" d="M38.87,68.21A29.85,29.85,0,1,1,69,38.36,30,30,0,0,1,38.87,68.21ZM38.87,9a29.41,29.41,0,1,0,29.66,29.4A29.57,29.57,0,0,0,38.87,9Z"/></g><g class="cls-4"><path class="cls-2" d="M38.87,69.74A31.38,31.38,0,1,1,70.51,38.36,31.55,31.55,0,0,1,38.87,69.74Zm0-62.31a30.94,30.94,0,1,0,31.2,30.93A31.11,31.11,0,0,0,38.87,7.43Z"/></g><g class="cls-5"><polygon points="49.08 30.54 45.3 34.32 38.63 27.65 32.13 34.15 28.3 30.31 38.58 20.03 49.08 30.54"/><polygon points="49.16 43.44 38.8 53.8 28.38 43.38 32.16 39.6 38.75 46.19 45.33 39.61 49.16 43.44"/><rect x="49.09" y="34.29" width="5.35" height="5.42" transform="translate(-11 47.44) rotate(-45)"/><rect x="22.94" y="34.12" width="5.35" height="5.42" transform="translate(-18.54 28.9) rotate(-45)"/><rect x="36.1" y="34.29" width="5.35" height="5.42" transform="translate(-14.81 38.26) rotate(-45)"/></g><polygon class="cls-2" points="49.07 30.18 45.29 33.97 38.62 27.3 32.13 33.8 28.29 29.96 38.57 19.68 49.07 30.18"/><polygon class="cls-2" points="49.16 43.09 38.8 53.45 28.38 43.03 32.16 39.25 38.75 45.84 45.33 39.26 49.16 43.09"/><rect class="cls-2" x="49.09" y="33.94" width="5.35" height="5.42" transform="translate(-10.76 47.34) rotate(-45)"/><rect class="cls-2" x="22.93" y="33.77" width="5.35" height="5.42" transform="translate(-18.29 28.79) rotate(-45)"/><rect class="cls-2" x="36.1" y="33.94" width="5.35" height="5.42" transform="translate(-14.56 38.15) rotate(-45)"/></g></g></svg>