<svg xmlns="http://www.w3.org/2000/svg" xmlns:xlink="http://www.w3.org/1999/xlink" viewBox="0 0 77.39 76.97"><defs><style>.cls-1{fill:#fff;}.cls-2{fill:url(#linear-gradient);}.cls-3{fill:url(#linear-gradient-2);}.cls-4{opacity:0.5;}.cls-5{opacity:0.44;}.cls-6{fill:#fefefe;}</style><linearGradient id="linear-gradient" x1="0.01" y1="38.36" x2="77.39" y2="38.36" gradientUnits="userSpaceOnUse"><stop offset="0" stop-color="#102b86"/><stop offset="1" stop-color="#5f91d2"/></linearGradient><linearGradient id="linear-gradient-2" x1="17.17" y1="66.36" x2="59.21" y2="12.36" xlink:href="#linear-gradient"/></defs><g id="Layer_2" data-name="Layer 2"><g id="Layer_62" data-name="Layer 62"><ellipse class="cls-1" cx="38.69" cy="38.61" rx="38.69" ry="38.36"/><ellipse class="cls-2" cx="38.7" cy="38.36" rx="38.69" ry="38.36"/><ellipse class="cls-1" cx="38.87" cy="38.27" rx="36.53" ry="36.22"/><ellipse class="cls-3" cx="38.87" cy="38.49" rx="34.8" ry="34.51"/><g class="cls-4"><path class="cls-1" d="M38.7,71.43A32.95,32.95,0,1,1,71.93,38.49,33.12,33.12,0,0,1,38.7,71.43ZM38.7,6A32.51,32.51,0,1,0,71.49,38.49,32.68,32.68,0,0,0,38.7,6Z"/></g><g class="cls-4"><path class="cls-1" d="M38.87,68.45A29.84,29.84,0,1,1,69,38.61,30,30,0,0,1,38.87,68.45Zm0-59.25A29.41,29.41,0,1,0,68.53,38.61,29.58,29.58,0,0,0,38.87,9.2Z"/></g><g class="cls-4"><path class="cls-1" d="M38.87,70A31.37,31.37,0,1,1,70.51,38.61,31.54,31.54,0,0,1,38.87,70Zm0-62.31a30.94,30.94,0,1,0,31.2,30.94A31.11,31.11,0,0,0,38.87,7.67Z"/></g><g class="cls-5"><polygon points="50.53 38.01 38.7 44.99 38.7 18.47 50.53 38.01"/><polygon points="26.88 38.01 38.7 44.99 38.7 18.47 26.88 38.01"/><polygon points="50.53 38.01 38.7 32.66 38.7 44.99 50.53 38.01"/><polygon points="38.7 44.99 26.88 38.01 38.7 32.66 38.7 44.99"/><polygon points="50.53 40.33 38.7 47.43 38.7 56.83 50.53 40.33"/><polygon points="26.88 40.33 38.7 47.43 38.7 56.83 26.88 40.33"/></g><polygon class="cls-6" points="50.52 37.57 38.69 44.55 38.69 18.03 50.52 37.57"/><polygon class="cls-1" points="26.86 37.57 38.69 44.55 38.69 18.03 26.86 37.57"/><polygon class="cls-6" points="50.52 37.57 38.69 32.23 38.69 44.55 50.52 37.57"/><polygon class="cls-1" points="38.69 44.55 26.86 37.57 38.69 32.23 38.69 44.55"/><polygon class="cls-6" points="50.52 39.9 38.69 46.99 38.69 56.4 50.52 39.9"/><polygon class="cls-1" points="26.86 39.9 38.69 46.99 38.69 56.4 26.86 39.9"/></g></g></svg>