<svg xmlns="http://www.w3.org/2000/svg" xmlns:xlink="http://www.w3.org/1999/xlink" viewBox="0 0 238.7 238.69"><defs><style>.cls-1{isolation:isolate;}.cls-2{fill:url(#linear-gradient);}.cls-3{opacity:0.48;fill:url(#linear-gradient-2);}.cls-4{stroke:#fff;stroke-width:1.59px;fill:url(#linear-gradient-3);}.cls-13,.cls-36,.cls-37,.cls-4,.cls-41,.cls-43,.cls-44,.cls-45,.cls-46,.cls-47,.cls-48,.cls-49,.cls-5,.cls-50,.cls-51,.cls-53{stroke-miterlimit:10;}.cls-5{fill:#f7f7f7;}.cls-13,.cls-42,.cls-5,.cls-50,.cls-51,.cls-53{stroke:#222;stroke-width:0.16px;}.cls-10,.cls-37,.cls-51,.cls-6{fill:#9c9c9c;}.cls-11,.cls-30,.cls-31,.cls-32,.cls-33,.cls-34,.cls-35,.cls-39,.cls-52,.cls-54,.cls-56,.cls-58,.cls-59,.cls-6,.cls-61,.cls-64,.cls-7,.cls-9{mix-blend-mode:multiply;}.cls-11,.cls-34,.cls-38,.cls-52,.cls-61,.cls-7{opacity:0.5;}.cls-13,.cls-32,.cls-33,.cls-34,.cls-42,.cls-8{fill:#4d4d4d;}.cls-53,.cls-9{fill:#dcdcdc;}.cls-11{fill:#7d7d7d;}.cls-12{fill:#222;}.cls-14,.cls-38,.cls-54{fill:#d4d4d4;}.cls-15,.cls-35{fill:#a7a7a7;}.cls-16{fill:url(#linear-gradient-4);}.cls-17{fill:url(#linear-gradient-5);}.cls-18{fill:#ccc;}.cls-19{fill:#b5b5b5;}.cls-20{fill:url(#linear-gradient-6);}.cls-21,.cls-41,.cls-50{fill:none;}.cls-22{fill:url(#linear-gradient-7);}.cls-23{fill:url(#linear-gradient-8);}.cls-24{fill:url(#linear-gradient-9);}.cls-25{fill:url(#linear-gradient-10);}.cls-26{fill:#fff;}.cls-27{fill:url(#linear-gradient-11);}.cls-28{fill:url(#linear-gradient-12);}.cls-29{fill:url(#linear-gradient-13);}.cls-30,.cls-31,.cls-40{fill:#c6c6c6;}.cls-31{opacity:0.8;}.cls-32,.cls-59,.cls-64{opacity:0.4;}.cls-33{opacity:0.3;}.cls-36{fill:#797979;}.cls-36,.cls-37,.cls-49{stroke:#6a6a6a;stroke-width:0.08px;}.cls-41{stroke:#494949;}.cls-41,.cls-43,.cls-44,.cls-45,.cls-46,.cls-47,.cls-48{stroke-width:0.11px;}.cls-42{stroke-linecap:round;stroke-linejoin:round;}.cls-43{fill:#a0a0a0;}.cls-43,.cls-44,.cls-45,.cls-46,.cls-47,.cls-48{stroke:#595959;}.cls-44{fill:#909090;}.cls-45{fill:#9d9d9d;}.cls-46{fill:#6b6b6b;}.cls-47{fill:#bdbdbd;}.cls-48{fill:#979797;}.cls-49{fill:#848484;}.cls-52{fill:#616161;}.cls-54{opacity:0.7;}.cls-55{fill:#eee;}.cls-56{fill:#e6e6e6;}.cls-57{fill:#595959;}.cls-58,.cls-59{fill:#4f4f4f;}.cls-60,.cls-61{fill:#363636;}.cls-62{fill:#828282;}.cls-63,.cls-64{fill:#323232;}.cls-65{fill:#b4b4b4;}.cls-66{fill:#999;}</style><linearGradient id="linear-gradient" x1="6450.05" y1="5635.87" x2="6555.31" y2="5453.55" gradientTransform="translate(6622.03 5664.06) rotate(180)" gradientUnits="userSpaceOnUse"><stop offset="0" stop-color="#7f8184"/><stop offset="0.23" stop-color="#a0a3a5"/><stop offset="0.53" stop-color="#d1d4d5"/><stop offset="1" stop-color="#e5e6e7"/></linearGradient><linearGradient id="linear-gradient-2" x1="6443" y1="5648.08" x2="6562.36" y2="5441.34" xlink:href="#linear-gradient"/><linearGradient id="linear-gradient-3" x1="57.77" y1="187.14" x2="186.61" y2="43.79" gradientUnits="userSpaceOnUse"><stop offset="0" stop-color="#9d9d9d"/><stop offset="0.53" stop-color="#7c7c7c"/><stop offset="1" stop-color="#202020"/></linearGradient><linearGradient id="linear-gradient-4" x1="135.56" y1="140.31" x2="108.86" y2="143.5" gradientUnits="userSpaceOnUse"><stop offset="0" stop-color="#fff"/><stop offset="1" stop-color="#9e9e9e"/></linearGradient><linearGradient id="linear-gradient-5" x1="132.9" y1="81.71" x2="111.67" y2="100.37" xlink:href="#linear-gradient-4"/><linearGradient id="linear-gradient-6" x1="135.46" y1="97.53" x2="136.86" y2="95.28" gradientUnits="userSpaceOnUse"><stop offset="0" stop-color="#212121"/><stop offset="1" stop-color="#b5b5b5"/></linearGradient><linearGradient id="linear-gradient-7" x1="170.69" y1="107.09" x2="137.62" y2="136.14" xlink:href="#linear-gradient-4"/><linearGradient id="linear-gradient-8" x1="115.2" y1="147.36" x2="138.53" y2="147.36" xlink:href="#linear-gradient-4"/><linearGradient id="linear-gradient-9" x1="136.18" y1="72.62" x2="125.21" y2="86.12" xlink:href="#linear-gradient-4"/><linearGradient id="linear-gradient-10" x1="136.01" y1="98.45" x2="131.4" y2="110.22" xlink:href="#linear-gradient-4"/><linearGradient id="linear-gradient-11" x1="152.26" y1="87.79" x2="163.94" y2="72.59" gradientUnits="userSpaceOnUse"><stop offset="0" stop-color="#6a6a6a"/><stop offset="0.38" stop-color="#a1a1a1"/><stop offset="1" stop-color="#cfcfcf"/></linearGradient><linearGradient id="linear-gradient-12" x1="79.32" y1="167.91" x2="149.18" y2="62.89" xlink:href="#linear-gradient-11"/><linearGradient id="linear-gradient-13" x1="107.22" y1="186.47" x2="177.08" y2="81.45" xlink:href="#linear-gradient-11"/></defs><g class="cls-1"><g id="Layer_2" data-name="Layer 2"><g id="Layer_1-2" data-name="Layer 1"><path id="Path_105193" data-name="Path 105193" class="cls-2" d="M36.41,184.12c.16.22.34.45.52.67A105.24,105.24,0,0,0,202.4,54.71v0l-.62-.78-.05-.07A105.24,105.24,0,0,0,36.41,184.12ZM28.65,69.05a103.86,103.86,0,0,1,17.06-22.7c.2-.21.4-.4.6-.59A103.69,103.69,0,0,1,193.06,192.29l-.07.06q-.33.35-.69.69l0,0a103.71,103.71,0,0,1-163.63-124Z"/><path id="Path_105194" data-name="Path 105194" class="cls-3" d="M25.29,192.78l.6.78A119.34,119.34,0,0,0,213.53,46.05l0,0c-.23-.3-.46-.59-.7-.88l-.05-.08A119.34,119.34,0,0,0,25.29,192.78ZM16.5,62.31A118,118,0,0,1,35.85,36.57l.67-.67a117.58,117.58,0,0,1,166.4,166.15.13.13,0,0,1-.07.06c-.25.28-.51.53-.78.79l0,0A117.6,117.6,0,0,1,16.5,62.31Z"/><path class="cls-4" d="M206.85,119.35a88,88,0,0,1-25.55,62.06l-.51.51A88.15,88.15,0,0,1,56,57.34l.05-.05.59-.59h0a88.16,88.16,0,0,1,150.16,62.66Z"/><path class="cls-5" d="M89.81,118.8s3.25,2.61,8.74,1.41a5.77,5.77,0,0,1,1.91,4.89c-.27,3.21-1,4.19-2.21,4.37s-5.41.94-8.36-1.6S89.81,118.8,89.81,118.8Z"/><path class="cls-6" d="M93.16,126.13c.61-.41,1.32-.35,3.15-.3s2.33.49,2.28,1.7a7.07,7.07,0,0,1-.43,2,11.78,11.78,0,0,1-6.64-.58A5.86,5.86,0,0,1,93.16,126.13Z"/><g class="cls-7"><path class="cls-8" d="M97.3,127.36a.14.14,0,0,1,.23-.06c.4.38.14,1.17,0,1.64,0,.19-.11.42-.18.66l-.73.08c.09-.22.17-.45.25-.68C97.06,128.46,97.14,127.9,97.3,127.36Z"/><path class="cls-8" d="M96.25,127.29a.11.11,0,0,1,.2,0,3.64,3.64,0,0,1-.14,2.38l-.77,0c.11-.29.22-.59.32-.88A13,13,0,0,1,96.25,127.29Z"/><path class="cls-8" d="M94.87,127.72c.07-.2,0-.35.22-.47a.13.13,0,0,1,.17,0c.24.39,0,1,0,1.41a7.49,7.49,0,0,1-.22,1l-.78-.06c.1-.32.21-.63.31-.91S94.76,128.06,94.87,127.72Z"/><path class="cls-8" d="M93.79,127.17a.16.16,0,0,1,.28,0,2.93,2.93,0,0,1-.2,1.51c-.07.28-.15.56-.23.84q-.35-.06-.69-.15l.15-.48A6.2,6.2,0,0,1,93.79,127.17Z"/><path class="cls-8" d="M92,128.55a3.16,3.16,0,0,1,1-1.47c.09-.06.24,0,.2.15-.23.57-.47,1.15-.64,1.73,0,.1,0,.19-.07.29a6.56,6.56,0,0,1-.62-.23C91.84,128.85,91.9,128.69,92,128.55Z"/></g><path class="cls-9" d="M89.81,118.8a7.28,7.28,0,0,0,1.49.83c.07.55.15,1.09.25,1.63a6,6,0,0,0,.65,2.44c.87,1.14,3,.69,4.28.73.83,0,2.2.12,2.45-.94a4.72,4.72,0,0,0-.47-3.26l.09,0a5.77,5.77,0,0,1,1.91,4.89c-.27,3.21-1,4.19-2.21,4.37s-5.41.94-8.36-1.6S89.81,118.8,89.81,118.8Z"/><path class="cls-9" d="M89.81,118.8a5.34,5.34,0,0,0,.7.44,28,28,0,0,1,1.42,6.1,3.55,3.55,0,0,0,.89,2.32c.78.71,2.32.76,3.32.78s2.06.09,2.59-.79a5.69,5.69,0,0,0,.55-2.65c.09-1.48.22-3.53-.8-4.77l.07,0a5.77,5.77,0,0,1,1.91,4.89c-.27,3.21-1,4.19-2.21,4.37s-5.41.94-8.36-1.6S89.81,118.8,89.81,118.8Z"/><path class="cls-10" d="M100.07,129.16a12.28,12.28,0,0,0,1.27-4.7A8.26,8.26,0,0,0,101,122a6.71,6.71,0,0,0-.79-2.05c-.09,0-.08-.19,0-.19a11.4,11.4,0,0,0,2.86-.15,3.64,3.64,0,0,1,.71-.8,6.43,6.43,0,0,1,2-1,5.15,5.15,0,0,0,2.22-1.27c.23-.26.25-.93.58-1.07s.72.27.9.52a2,2,0,0,1,.2,1.42,2.34,2.34,0,0,1-.48,1.16,8.43,8.43,0,0,1,3-.81,14.6,14.6,0,0,1,1.75,0,1.41,1.41,0,0,1,1.1.53c.45.75-.35,1.27-1,1.45-.41.11-.84.14-1.26.22a8,8,0,0,0-.93.25c-.13,0-.67.17-.72.35.54,0,1.09,0,1.63-.08s1.27-.11,1.91-.13,1.83.21,1.8,1.15c0,.77-1.32,1.09-1.89,1.22-.28.07-3,.31-3.07.38a1.93,1.93,0,0,0,.83.15,7.9,7.9,0,0,1,.85.07l1.84.28a1.54,1.54,0,0,1,1.07.65.89.89,0,0,1,0,1.11,1.43,1.43,0,0,1-1.06.31,9,9,0,0,1-1.94-.09c-.33-.07-1.48-.41-1.85-.1.1.28.45.43.79.55s.79.19,1.18.32a2.13,2.13,0,0,1,1.38,1.17.82.82,0,0,1-.38,1.11,4,4,0,0,1-2.22-.27,8.27,8.27,0,0,0-2.62-.33,21.65,21.65,0,0,0-2.77.59,2.71,2.71,0,0,1-1.51-.23h0a2,2,0,0,0-1.07,0l-1.37.26c-.46.1-.92.18-1.37.29a6.54,6.54,0,0,1-1,.22h0C100.19,129.38,100,129.28,100.07,129.16Z"/><path class="cls-11" d="M100.25,129.26h0a6.54,6.54,0,0,0,1-.22c.45-.11.91-.19,1.37-.29l1.37-.26a2,2,0,0,1,1.07,0h0a2.71,2.71,0,0,0,1.51.23,21.65,21.65,0,0,1,2.77-.59,8.27,8.27,0,0,1,2.62.33,4,4,0,0,0,2.22.27.82.82,0,0,0,.38-1.11s0,0,0,0c0,.28-.32.44-.56.48a3.18,3.18,0,0,1-1.45-.3c-.39-.13-.79-.23-1.18-.38s-1.34-.74-.61-1.24a1.5,1.5,0,0,1,.9-.15.81.81,0,0,1-.43-.4c.37-.31,1.52,0,1.85.1a9,9,0,0,0,1.94.09,1.43,1.43,0,0,0,1.06-.31.89.89,0,0,0,0-1.11l-.18-.21a.59.59,0,0,1-.47.87,5,5,0,0,1-2,0c-.72-.12-2,0-2.32-.92-.14-.44.23-.66.65-.75a.69.69,0,0,1-.23-.09c0-.07,2.79-.31,3.07-.38.57-.13,1.86-.45,1.89-1.22a1.39,1.39,0,0,0,0-.3,4.85,4.85,0,0,1-2.33.87,10.17,10.17,0,0,1-1.83,0,1.7,1.7,0,0,1-1.28-.57c-.25-.41.21-.76.7-1l-.57,0c.05-.18.59-.31.72-.35a8,8,0,0,1,.93-.25c.42-.08.85-.11,1.26-.22.64-.18,1.44-.7,1-1.45a.65.65,0,0,0-.15-.18c0,.76-2,1.17-2.61,1.29-.86.18-3.33.68-2.88-.91l-.18.08a2.34,2.34,0,0,0,.48-1.16,2,2,0,0,0-.2-1.42,1.66,1.66,0,0,0-.48-.47,1.49,1.49,0,0,1,.34.79,2.11,2.11,0,0,1-.86,1.81,3.75,3.75,0,0,0-.82,1,6.37,6.37,0,0,0-.37,1.22,3,3,0,0,1-1.09,1.91,2,2,0,0,1-3.08-1.44,3.65,3.65,0,0,1,.21-1.6,3.38,3.38,0,0,0-.27.36,11.4,11.4,0,0,1-2.86.15c-.11,0-.12.15,0,.19A6.71,6.71,0,0,1,101,122a8.26,8.26,0,0,1,.37,2.42,12.28,12.28,0,0,1-1.27,4.7C100,129.28,100.19,129.38,100.25,129.26Zm6.17-4.52a3,3,0,0,0,2-2.37c0-.58-.07-1.73.66-1.42.28.12.56,1,.6,1.25a11.12,11.12,0,0,1,0,2.08,3.58,3.58,0,0,1-.56,2,2.83,2.83,0,0,1-2,.75,6.87,6.87,0,0,1-2-.13,1.69,1.69,0,0,1-1.29-.87C103.44,124.8,105.78,124.9,106.42,124.74Z"/><path class="cls-11" d="M101.34,124.46A8.26,8.26,0,0,0,101,122a6.71,6.71,0,0,0-.79-2.05c-.09,0-.08-.19,0-.19h.63a5.47,5.47,0,0,1,1.55,2.52,12,12,0,0,1,0,5.07c0,.17.22.23.31.09a4,4,0,0,0,.36-2,3.12,3.12,0,0,0,2,2.15,4.2,4.2,0,0,0,3.58-.27c1.13-.76,1.32-2.73,1.38-4a13.46,13.46,0,0,0,0-1.42,14.49,14.49,0,0,1,.21,2.58c0,1.17-.37,2.54.91,3.12.7.32,2.56.92,3.57.54a.67.67,0,0,1-.43.5,4,4,0,0,1-2.22-.27,8.27,8.27,0,0,0-2.62-.33,21.65,21.65,0,0,0-2.77.59,2.71,2.71,0,0,1-1.51-.23h0a2,2,0,0,0-1.07,0l-1.37.26c-.46.1-.92.18-1.37.29a6.54,6.54,0,0,1-1,.22h0c-.06.12-.23,0-.18-.1A12.28,12.28,0,0,0,101.34,124.46Z"/><path class="cls-12" d="M100.25,129.26h0a6.54,6.54,0,0,0,1-.22c.45-.11.91-.19,1.37-.29l1.37-.26a2,2,0,0,1,1.07,0h0a2.71,2.71,0,0,0,1.51.23,21.65,21.65,0,0,1,2.77-.59,8.27,8.27,0,0,1,2.62.33,4,4,0,0,0,2.22.27.82.82,0,0,0,.38-1.11,2.13,2.13,0,0,0-1.38-1.17c-.39-.13-.8-.19-1.18-.32s-.69-.27-.79-.55c.37-.31,1.52,0,1.85.1a9,9,0,0,0,1.94.09,1.43,1.43,0,0,0,1.06-.31.89.89,0,0,0,0-1.11,1.54,1.54,0,0,0-1.07-.65l-1.84-.28a7.9,7.9,0,0,0-.85-.07,1.93,1.93,0,0,1-.83-.15c0-.07,2.79-.31,3.07-.38.57-.13,1.86-.45,1.89-1.22,0-.94-1.07-1.18-1.8-1.15s-1.27.09-1.91.13-1.09,0-1.63.08c.05-.18.59-.31.72-.35a8,8,0,0,1,.93-.25c.42-.08.85-.11,1.26-.22.64-.18,1.44-.7,1-1.45a1.41,1.41,0,0,0-1.1-.53,14.6,14.6,0,0,0-1.75,0,8.43,8.43,0,0,0-3,.81,2.34,2.34,0,0,0,.48-1.16,2,2,0,0,0-.2-1.42c-.18-.25-.54-.67-.9-.52s-.35.81-.58,1.07a5.15,5.15,0,0,1-2.22,1.27,6.43,6.43,0,0,0-2,1,3.64,3.64,0,0,0-.71.8,11.4,11.4,0,0,1-2.86.15c-.11,0-.12.15,0,.19A6.71,6.71,0,0,1,101,122a8.26,8.26,0,0,1,.37,2.42,12.28,12.28,0,0,1-1.27,4.7C100,129.28,100.19,129.38,100.25,129.26Zm.08-.18a17.48,17.48,0,0,0,.84-2.29,8.26,8.26,0,0,0,.37-2.47,9.24,9.24,0,0,0-.47-2.6,4.5,4.5,0,0,0-.73-1.71,8.37,8.37,0,0,0,1.66,0,3,3,0,0,0,1-.18,3.39,3.39,0,0,0-.4,1c0,.07.07.09.1,0a4.31,4.31,0,0,1,1.5-2.1,12.08,12.08,0,0,1,2-.86,5.3,5.3,0,0,0,1.75-1,1.68,1.68,0,0,0,.46-.65c.17-.57.43-.9.92-.3a1.67,1.67,0,0,1,.27,1.34c-.09,1-1,1.58-1.38,2.49a4.8,4.8,0,0,0-.25,1.41,10.8,10.8,0,0,1-.26,1.4,3.36,3.36,0,0,1-1.75,2,0,0,0,0,0,0,0,3,3,0,0,0,2-2.1,13.63,13.63,0,0,0,.28-1.81,2.35,2.35,0,0,1,.35-1.18l.4-.53a7.82,7.82,0,0,1,1,3.8,15.61,15.61,0,0,1-.6,3.9s0,0,.05,0a9.32,9.32,0,0,0-.33-7.88h0l0-.06v0a11.45,11.45,0,0,1,3.08-.79,14.76,14.76,0,0,1,1.63,0,1.58,1.58,0,0,1,.94.31.59.59,0,0,1,0,.91c-.6.59-1.56.51-2.32.71a8.11,8.11,0,0,0-1.18.38c-.16.07-.32.16-.29.34h-.13s0,0,0,0h.2a23.4,23.4,0,0,0,3.35-.1,2.13,2.13,0,0,1,1.6.34c.48.47.2,1-.32,1.26a7.89,7.89,0,0,1-3.11.62c-.11,0-1,0-1.2.22a.33.33,0,0,1,0-.14,0,0,0,0,0-.06,0c-.07.31.2.47.48.51.69.11,1.38.15,2.07.27s1.44,0,1.9.5c.24.26.54.71.28,1a1,1,0,0,1-.87.33,9.49,9.49,0,0,1-2.13-.12,5.61,5.61,0,0,0-.91-.17c-.37,0-1.31-.06-1.09.57a.06.06,0,0,0,.12,0,.23.23,0,0,1,0-.12c.33.61,2,.84,2.4,1.07a1.77,1.77,0,0,1,.82.8c.18.4.15.9-.37,1a5.73,5.73,0,0,1-2.33-.43,8,8,0,0,0-2.29-.24,9.89,9.89,0,0,0-2.15.44,2.87,2.87,0,0,1-2.33-.17,3.44,3.44,0,0,1-1.35-1.27c0-.08-.4-.38-.36-.3a4.5,4.5,0,0,0,1.55,1.67,2.17,2.17,0,0,0-.36,0l-1.34.23c-.51.1-1,.17-1.55.3A9.44,9.44,0,0,1,100.33,129.08Z"/><path class="cls-13" d="M99,119.9s.15-.57,1.14-.42,2.32,2.16,2,5.42-1.91,4.91-2.66,5.06a.93.93,0,0,1-1-.28s2.19-.84,2.19-4.48S99,119.9,99,119.9Z"/><path class="cls-13" d="M98,120.38a1,1,0,0,1,.87-.85c.77,0,2.34,1.74,2.24,5.15s-1.5,5.1-2.74,5.2c-.6.05-.67-.25-.67-.25a2.33,2.33,0,0,0,1.86-1.89C100,126,99.93,119.93,98,120.38Z"/><path class="cls-14" d="M103.34,119.75c.49-.89,2.1-1.52,3-1.84a3.78,3.78,0,0,0,1.88-1.18c.29-.38.13-1.07.63-1,.23,0,.29.26.19.21-.61-.31-.36.42-.62.92a2.44,2.44,0,0,1-1.06.87c-1.12.55-2.77.53-4.07,2.11A1.05,1.05,0,0,1,103.34,119.75Z"/><path class="cls-14" d="M110.05,118.71c1.21-.59,3.4-1.2,4.59-.3,0,0,0,.09,0,.07a6.68,6.68,0,0,0-4.53.29S110,118.73,110.05,118.71Z"/><path class="cls-14" d="M112.05,120.88c1.06,0,3.54-.88,4.12.5a0,0,0,0,1,0,0,2.66,2.66,0,0,0-2.28-.53c-.59,0-1.2,0-1.79.05C112,120.93,112,120.88,112.05,120.88Z"/><path class="cls-14" d="M112.18,123.61c.92.18,1.86.15,2.78.31.48.09,1,.34,1,.89a0,0,0,0,1-.07,0A2.21,2.21,0,0,0,114,124a5.42,5.42,0,0,1-1.79-.35S112.16,123.61,112.18,123.61Z"/><path class="cls-14" d="M111.62,126.32c1,.16,2.28.37,2.66,1.41,0,0,0,0-.06,0a2.45,2.45,0,0,0-1.36-1,13.26,13.26,0,0,1-1.25-.45S111.61,126.31,111.62,126.32Z"/><path class="cls-14" d="M104.73,119c.75-.09,1.41.88.22,1.66-1,.65-1.51-.26-1-1.14A1,1,0,0,1,104.73,119Z"/><path class="cls-14" d="M103.4,120.84c.15-.18.51-.09.4.34s-.41.26-.47-.06A.32.32,0,0,1,103.4,120.84Z"/><path class="cls-15" d="M98.52,119.9c.89-.45,1.46.82,1.71,1.46a8.49,8.49,0,0,1,.45,4.34c0,.13-.06.34-.07.23a19.24,19.24,0,0,0-.43-3.44c-.22-.89-1-2.54-1.64-2.48C98.48,120,98.47,119.92,98.52,119.9Z"/><path class="cls-15" d="M101.64,124.66a.14.14,0,0,1,.11-.07h0a.09.09,0,0,1,.1,0,0,0,0,0,0,0,0,.08.08,0,0,1,0,0,.33.33,0,0,1,0,.29.12.12,0,0,1-.19,0A.32.32,0,0,1,101.64,124.66Z"/><path class="cls-15" d="M99.73,119.68s.85-.28,1.47,1a8.68,8.68,0,0,1,.72,3.36c0,.3,0,.25-.22-.67S101.08,120.27,99.73,119.68Z"/><path class="cls-16" d="M132.41,113.94a19.74,19.74,0,0,0-9.8,4.29A18.85,18.85,0,0,0,116,132.39v36.36L112,170V133a19.18,19.18,0,0,1,6.77-14.42A20.58,20.58,0,0,1,131.65,114Z"/><path class="cls-17" d="M135.22,84.35c-8.85.09-16.23,6.68-18.22,15a38.42,38.42,0,0,0-4.28,2.21c1.15-9.47,9.16-17.36,18.93-17.45Z"/><path class="cls-18" d="M118.83,70.88a0,0,0,0,1,0,0s-.07,0-.06-.07a.08.08,0,0,1,.07,0S118.84,70.84,118.83,70.88Z"/><path class="cls-19" d="M116.75,71c-.1,0-.18,0-.18-.14l0,0C116.69,70.85,116.73,70.91,116.75,71Z"/><path class="cls-18" d="M120.19,70.34s0,0-.06,0a.08.08,0,0,1-.06-.08,0,0,0,0,1,.06,0A.08.08,0,0,1,120.19,70.34Z"/><line class="cls-20" x1="138.07" y1="96.44" x2="134.21" y2="96.41"/><line class="cls-21" x1="119.4" y1="142.19" x2="115.2" y2="142.99"/><path class="cls-22" d="M171.25,132.61c0,.1,0,.21,0,.31a35.89,35.89,0,0,1-26.14,34.63,36.64,36.64,0,0,0,22.88-34c0-.11,0-.21,0-.31a36.85,36.85,0,0,0-2.9-14.35l0-.08a35.94,35.94,0,0,0-14.05-17,36.71,36.71,0,0,0-12.93-4.93,37.33,37.33,0,0,0-3.86-.47l3.86,0a36.06,36.06,0,0,1,16.49,5.3,35.32,35.32,0,0,1,13.81,16.67l0,.07A36.15,36.15,0,0,1,171.25,132.61Z"/><path class="cls-23" d="M138.53,151.36a19.72,19.72,0,0,1-6.14,1.16h-.63A19.34,19.34,0,0,1,115.2,143l4.2-.8a18.93,18.93,0,0,0,16.26,9.38h.62A18.62,18.62,0,0,0,138.53,151.36Z"/><polygon class="cls-24" points="135.22 68.18 135.22 84.35 131.65 84.11 131.65 67.65 135.16 68.18 135.22 68.18"/><polygon class="cls-25" points="135.22 96.36 135.22 113.71 132.41 113.94 131.65 114 131.65 96.33 135.22 96.36"/><path class="cls-26" d="M161.82,84.38a7.78,7.78,0,1,1,6.71-6.7A7.78,7.78,0,0,1,161.82,84.38Zm0-14.89A7.24,7.24,0,1,0,168,75.73,7.25,7.25,0,0,0,161.77,69.49Z"/><path class="cls-27" d="M167,77.52a6.23,6.23,0,1,1-7-7A6.26,6.26,0,0,1,167,77.52Z"/><path class="cls-28" d="M131.65,67.64V84.11c-9.77.09-17.78,8-18.93,17.45A38.42,38.42,0,0,1,117,99.35a36.84,36.84,0,0,1,14.65-3V114a20.58,20.58,0,0,0-12.84,4.59A19.18,19.18,0,0,0,112,133v37H94.79V104.2a36.87,36.87,0,0,1,36.8-36.56Z"/><path class="cls-29" d="M168,133.2c0,.1,0,.2,0,.31-.16,18.94-14.07,34.48-32.56,36.36h0c-1.27.09-2.55.14-3.84.14-1.09,0-2.18,0-3.26-.1h0a36.87,36.87,0,0,1-13.1-3.71V143a19.28,19.28,0,0,0,16.56,9.54h.63c9.48-.26,17.79-7.38,19.06-16.58a17.58,17.58,0,0,0,.19-2.43v-.25a19.19,19.19,0,0,0-6.77-14.67,20.85,20.85,0,0,0-10.66-4.46V96.41a36.72,36.72,0,0,1,16.79,5.4,35.94,35.94,0,0,1,14.05,17l0,.08A36.85,36.85,0,0,1,168,133.2Z"/><path class="cls-5" d="M68.16,140.42s0,3,0,4.4a.94.94,0,0,0-.72,1,3.58,3.58,0,0,0-1.12,2.39c-.15,1.63,1.68,4.2,4.61,4.47s7.16-2.93,7.93-3.7a14.32,14.32,0,0,0,6-8.93Z"/><path class="cls-30" d="M68.16,140.42s0,3,0,4.4a.94.94,0,0,0-.72,1,3.58,3.58,0,0,0-1.12,2.39c-.15,1.63,1.68,4.2,4.61,4.47s7.16-2.93,7.93-3.7a14.32,14.32,0,0,0,6-8.93Z"/><path class="cls-30" d="M66.36,148.21a4.32,4.32,0,0,1,.28-1.14,2.25,2.25,0,0,0,.59,1.39c.34.39.88,1.1,1.48,1s.32-.62.16-.88c-.55-.89-1.45-1.66-1.4-2.73h0a2,2,0,0,1,0-.26.13.13,0,0,0,0-.06.79.79,0,0,1,.09-.23,3,3,0,0,0,.5,1.47,3.81,3.81,0,0,0,1.25,1.39.13.13,0,0,0,.17-.19,12.17,12.17,0,0,1-1.09-1.75,2.15,2.15,0,0,1-.27-1.21c.77,1.55,2.13,3,3.76,3.09a.23.23,0,0,0,.17-.35c-.63-.73-1.59-1.2-2.2-1.94a12.19,12.19,0,0,0,2.46.42,5.06,5.06,0,0,0,3.15-.2c.16-.08.1-.3,0-.38-2.19-1.35-5.64-.65-7.28-2.84,0-1.21,0-2.36,0-2.36l16.76-.37a14.32,14.32,0,0,1-6,8.93c-.77.77-5,4-7.93,3.7S66.21,149.84,66.36,148.21Z"/><path class="cls-31" d="M66.37,148.13c2.94,3.65,8.18,1.89,9.12,1.31a.7.7,0,0,0,.06-1.11,6.08,6.08,0,0,0-2.49-.87,6.43,6.43,0,0,1-1.34-.46,17.77,17.77,0,0,0,2.6.4,8.57,8.57,0,0,0,3.53-.23A3.54,3.54,0,0,0,80,144.94c.22-1-.73-1.27-1.53-1.14a18.53,18.53,0,0,1-4.14.22,14.08,14.08,0,0,1-6.18-1.57c0-1.08,0-2,0-2l16.76-.37a14.32,14.32,0,0,1-6,8.93c-.77.77-5,4-7.93,3.7s-4.76-2.84-4.61-4.47A.19.19,0,0,0,66.37,148.13Z"/><path class="cls-12" d="M68.18,144.31c0-.05,0-.19,0-.14,0,.25,0,.65.06.9a3.22,3.22,0,0,0,.25.92,4.79,4.79,0,0,0,1,1.56,3.75,3.75,0,0,1-1.09-1.37A3,3,0,0,1,68.18,144.31Z"/><path class="cls-12" d="M67.47,145.49s0,0,0,0a2.91,2.91,0,0,0,.16.88c.08.23.39.75.37.73a3,3,0,0,1-.45-.72A1.19,1.19,0,0,1,67.47,145.49Z"/><path class="cls-12" d="M68.77,151.78a11.08,11.08,0,0,0,.76-1.64,5.29,5.29,0,0,0,.59-1.36c0-.32,0-.65.31-.86a5.19,5.19,0,0,1,1.15-.52l.39-.13c.15-.06.07-.11,0-.19s-.38-.34-.46-.55c-.16-.36.17-.65.37-.92.34-.46.66-.91,1-1.33s.66-1,1.06-1.46c0,0,.05,0,0,0-.29.43-.52.91-.83,1.32s-.72,1-1,1.45c-.12.18-.24.36-.37.53s.26.62.37.8.21.33,0,.41a.49.49,0,0,1-.17,0,1.34,1.34,0,0,0-.51.17l-.6.27c-.27.12-.45.22-.5.53s0,.44,0,.66a3.85,3.85,0,0,1-.6,1.24c-.29.53-.64,1-.94,1.54Z"/><path class="cls-10" d="M59.62,156a1.33,1.33,0,0,1-.07-.56.12.12,0,0,1-.08-.12,1.13,1.13,0,0,1,.33-.57,9.2,9.2,0,0,1,.81-.84,17.76,17.76,0,0,1,2.14-1.63,6.55,6.55,0,0,0,2-2,6.43,6.43,0,0,0,1.07-2.18l-.06-.16a.09.09,0,0,1,.16-.08,6.39,6.39,0,0,0,.31.65c.15.21.32.4.49.6a7,7,0,0,0,1.07,1.11,6.66,6.66,0,0,0,2.77,1.16,13.43,13.43,0,0,0,3.1.18,17.91,17.91,0,0,0,1.79-.11c.63-.07,1.24-.23,1.86-.36,0,0,.07.05,0,.07l-.09,0A36.28,36.28,0,0,1,74,155.89a9.42,9.42,0,0,0-1.42,2.58,3,3,0,0,0,.64,2.54c.9,1.36,2.33,2.86,2.22,4.61-.09,1.35-1.32,2.19-2.43,2.75-.1.1-.18.21-.28.3a1.4,1.4,0,0,1-.92.31,6.25,6.25,0,0,1-2.2-.59A7.76,7.76,0,0,1,67.3,167a17.34,17.34,0,0,1-2-2.07c-.67-.79-1.26-1.65-1.87-2.49s-1.24-1.64-1.85-2.48a10.94,10.94,0,0,1-1.46-2.55C59.9,157,59.77,156.51,59.62,156Z"/><path class="cls-14" d="M64.74,152.66c-1,1-2.64,1.33-3.25,2.73a3.29,3.29,0,0,0-.22,1.72,9.37,9.37,0,0,1-.62-2.49,23.88,23.88,0,0,1,2.15-1.69,10.67,10.67,0,0,0,2.58-2.52l.08.12A2.44,2.44,0,0,1,64.74,152.66Z"/><path class="cls-8" d="M64.11,153.22a4.5,4.5,0,0,1,.42,1.76,4.15,4.15,0,0,1-.68,1.88,18.08,18.08,0,0,0-1.77,3.41c0,.1-.07.21-.1.32-.15-.19-.29-.39-.44-.59a10.94,10.94,0,0,1-1.46-2.55c-.18-.46-.31-.94-.46-1.41a1.33,1.33,0,0,1-.07-.56.12.12,0,0,1-.08-.12,1.13,1.13,0,0,1,.33-.57,9.2,9.2,0,0,1,.81-.84,17.76,17.76,0,0,1,2.14-1.63,7.65,7.65,0,0,0,.9-.69A7.76,7.76,0,0,0,64.11,153.22Z"/><path class="cls-15" d="M64.09,153.17c-1,.64-2.11,1.1-2.6,2.22a3.32,3.32,0,0,0-.22,1.72,9,9,0,0,1-.62-2.48,22.31,22.31,0,0,1,2.15-1.7c.34-.25.66-.49,1-.75C63.85,152.51,64,152.85,64.09,153.17Z"/><path class="cls-11" d="M59.62,156a1.33,1.33,0,0,1-.07-.56.12.12,0,0,1-.08-.12,1.13,1.13,0,0,1,.33-.57c.07-.09.14-.16.21-.24a12.55,12.55,0,0,0,1,2.34,13,13,0,0,0,1.48,2.31c.53.62,1.25,1,1.79,1.62s1,1.57,1.5,2.31a7.23,7.23,0,0,0,1.62,1.6c.59.4,2.3,1.22,2.88.39.42-.6-.42-1.68-.73-2.14a9.56,9.56,0,0,1-1.09-1.85,15.48,15.48,0,0,0-1-2.43c-.66-1.09-1.78-1.77-2.58-2.75-.23-.28-.87-1.07-.06-.92s1.38.53,2.12.6c1,.09,2-1.3,1.21-2.13-1.11-1.16-2.68-2.32-2.9-4a4.29,4.29,0,0,0,.54-1.34l-.06-.16a.09.09,0,0,1,.16-.08,6.39,6.39,0,0,0,.31.65c.15.21.32.4.49.6a7,7,0,0,0,1.07,1.11,6.66,6.66,0,0,0,2.77,1.16,13.43,13.43,0,0,0,3.1.18,17.91,17.91,0,0,0,1.79-.11c.63-.07,1.24-.23,1.86-.36,0,0,.07.05,0,.07l-.09,0A36.28,36.28,0,0,1,74,155.89a9.42,9.42,0,0,0-1.42,2.58,3,3,0,0,0,.64,2.54c.9,1.36,2.33,2.86,2.22,4.61-.09,1.35-1.32,2.19-2.43,2.75-.1.1-.18.21-.28.3a1.4,1.4,0,0,1-.92.31,6.25,6.25,0,0,1-2.2-.59A7.76,7.76,0,0,1,67.3,167a17.34,17.34,0,0,1-2-2.07c-.67-.79-1.26-1.65-1.87-2.49s-1.24-1.64-1.85-2.48a10.94,10.94,0,0,1-1.46-2.55C59.9,157,59.77,156.51,59.62,156Z"/><path class="cls-11" d="M64.51,163.67c2.15,1.5,5,3.22,7.73,2.05a1.9,1.9,0,0,0,1.36-1.88,3.81,3.81,0,0,0-.61-1.52c-.33-.57-.58-1.19-.87-1.79a3.88,3.88,0,0,0-2.2-2.32,12.07,12.07,0,0,1-3.77-2.12c1.42.81,3.07,1.59,4.66,1.3a2.6,2.6,0,0,0,1.82-1.13,2,2,0,0,0,.45-1.77c-.19-.46-1-.44-1.41-.48a5.31,5.31,0,0,1-2.56-.77,8,8,0,0,1-3.43-4.59,2.85,2.85,0,0,0,.14-.5l-.06-.16a.09.09,0,0,1,.16-.08,6.39,6.39,0,0,0,.31.65c.15.21.32.4.49.6a7,7,0,0,0,1.07,1.11,6.66,6.66,0,0,0,2.77,1.16,13.43,13.43,0,0,0,3.1.18,17.91,17.91,0,0,0,1.79-.11c.63-.07,1.24-.23,1.86-.36,0,0,.07.05,0,.07l-.09,0A36.28,36.28,0,0,1,74,155.89a9.42,9.42,0,0,0-1.42,2.58,3,3,0,0,0,.64,2.54c.9,1.36,2.33,2.86,2.22,4.61-.09,1.35-1.32,2.19-2.43,2.75-.1.1-.18.21-.28.3a1.4,1.4,0,0,1-.92.31,6.25,6.25,0,0,1-2.2-.59A7.76,7.76,0,0,1,67.3,167a17.34,17.34,0,0,1-2-2.07c-.46-.54-.88-1.11-1.29-1.69Q64.24,163.49,64.51,163.67Z"/><path class="cls-12" d="M60.08,157.45A10.94,10.94,0,0,0,61.54,160c.61.84,1.25,1.64,1.85,2.48s1.2,1.7,1.87,2.49a17.34,17.34,0,0,0,2,2.07,7.76,7.76,0,0,0,2.33,1.35,6.25,6.25,0,0,0,2.2.59,1.4,1.4,0,0,0,.92-.31c.1-.09.18-.2.28-.3,1.11-.56,2.34-1.4,2.43-2.75.11-1.75-1.32-3.25-2.22-4.61a3,3,0,0,1-.64-2.54A9.42,9.42,0,0,1,74,155.89a36.28,36.28,0,0,0,3.23-4.64l.09,0s0-.08,0-.07c-.62.13-1.23.29-1.86.36a17.91,17.91,0,0,1-1.79.11,13.43,13.43,0,0,1-3.1-.18,6.66,6.66,0,0,1-2.77-1.16,7,7,0,0,1-1.07-1.11c-.17-.2-.34-.39-.49-.6a6.39,6.39,0,0,1-.31-.65.09.09,0,0,0-.16.08l.06.16a6.43,6.43,0,0,1-1.07,2.18,6.55,6.55,0,0,1-2,2A17.76,17.76,0,0,0,60.61,154a9.2,9.2,0,0,0-.81.84,1.13,1.13,0,0,0-.33.57.12.12,0,0,0,.08.12,1.33,1.33,0,0,0,.07.56C59.77,156.51,59.9,157,60.08,157.45ZM60,156.36a2.86,2.86,0,0,1-.23-1.07,2.45,2.45,0,0,1,.56-.71,10.65,10.65,0,0,1,1.11-1c.71-.58,1.51-1,2.21-1.62a6.22,6.22,0,0,0,1.51-1.87,6.44,6.44,0,0,0,.78-1.76,1.9,1.9,0,0,0,.24.47c.19.24.39.47.58.7a5.19,5.19,0,0,0,1,1,7.44,7.44,0,0,0,2.79,1.15,15.07,15.07,0,0,0,3.29.17,8.85,8.85,0,0,0,3.35-.53c-1,1.64-2.33,3.08-3.45,4.66a9.51,9.51,0,0,0-1.23,2.23,2.48,2.48,0,0,0,.13,2c.74,1.54,2.15,2.83,2.55,4.52a2.41,2.41,0,0,1-.61,2.34,6.22,6.22,0,0,1-1.1.89,1.56,1.56,0,0,0-.7.39,1.25,1.25,0,0,1-1.23.37,9.92,9.92,0,0,1-2.26-.72,11.15,11.15,0,0,1-4.08-3.49c-.59-.74-1.13-1.51-1.68-2.28s-1.08-1.41-1.6-2.13a12.29,12.29,0,0,1-1.51-2.47C60.22,157.22,60.09,156.79,60,156.36Z"/><path class="cls-13" d="M60.61,154a2.23,2.23,0,0,0-.07,1.75c.34,1.07,1.28,3.67,2.47,4.84S64.42,163,65.34,164s2.85,3.21,4.92,3.79a5.87,5.87,0,0,0,4.19-.35s.15.34-.45.81-1.19,1.22-2.06,1.39a7.11,7.11,0,0,1-5.44-2.17,18.91,18.91,0,0,1-3.75-5.27c-.54-1.05-2.12-2-3-4.39s-.77-2.71-.43-3S60.36,153.65,60.61,154Z"/><path class="cls-32" d="M60.2,158.75c.89,1.66,2.09,2.51,2.55,3.4a18.91,18.91,0,0,0,3.75,5.27,7.11,7.11,0,0,0,5.44,2.17c.87-.17,1.45-.92,2.06-1.39s.45-.81.45-.81a5.87,5.87,0,0,1-4.19.35c-2.07-.58-4-2.79-4.92-3.79s-1.14-2.24-2.33-3.41-2.13-3.77-2.47-4.84a2.4,2.4,0,0,1,0-1.62c-.9.86-.14,2.52.31,3.45a19.36,19.36,0,0,0,2.07,3.29c.18.25-.13.62-.4.46A7.18,7.18,0,0,1,60.2,158.75Zm3.12,3.71c-.21-.6.23-.32.34-.22a10,10,0,0,1,1,1.71A17.49,17.49,0,0,0,66,165.53,7.43,7.43,0,0,0,69.62,168c.21.07.19.49-.1.48a5.87,5.87,0,0,1-3.73-2.17A11.33,11.33,0,0,1,63.32,162.46Z"/><path class="cls-13" d="M78.45,150.05s.45,1.79-1.93,2.66-6.27,1.3-8.69-.71-2.94-3.68-2-4.39c0,0,.74,3.15,3.45,3.85A11,11,0,0,0,78.45,150.05Z"/><path class="cls-33" d="M78.45,150.05s.45,1.79-1.93,2.66-6.27,1.3-8.69-.71-2.94-3.68-2-4.39c0,0,.74,3.15,3.45,3.85A11,11,0,0,0,78.45,150.05Z"/><path class="cls-33" d="M66,149.89a7.9,7.9,0,0,0,1.17,1.41,7.44,7.44,0,0,0,3.12,1.51c.19.05,2.11.06.06-.28a5.82,5.82,0,0,1-3.14-1.6,8.47,8.47,0,0,1-1.25-1.61,7.27,7.27,0,0,1-.47-1.25,1.09,1.09,0,0,1,.34-.46s.74,3.15,3.45,3.85a11,11,0,0,0,9.2-1.41s.45,1.79-1.93,2.66-6.27,1.3-8.69-.71a7.3,7.3,0,0,1-2.34-2.87A8.18,8.18,0,0,0,66,149.89Z"/><path class="cls-13" d="M79.09,148.86s.55,1-1.6,2.15-7,2.35-10-.3-1.35-4.11-.72-3.8a1.6,1.6,0,0,0,.43,2.19,8.32,8.32,0,0,0,6.49,2.05A8.89,8.89,0,0,0,79.09,148.86Z"/><path class="cls-34" d="M65.69,148a4.11,4.11,0,0,0,1.61,2.3,7.06,7.06,0,0,0,5.22,1.64c2.21-.13,2-.54,1.87-.51a8.44,8.44,0,0,1-6.11-1,4.71,4.71,0,0,1-1.67-1.62c-.27-.48-.58-1.18-.06-1.64l.07-.07a1.65,1.65,0,0,0,.53,2,8.32,8.32,0,0,0,6.49,2.05,8.89,8.89,0,0,0,5.45-2.29s.55,1-1.6,2.15-7,2.35-10-.3C66.12,149.55,65.7,148.61,65.69,148Z"/><path class="cls-13" d="M59.2,111.39a4,4,0,0,0-.93.76,3,3,0,0,1-.38-1.2,5.31,5.31,0,0,1,1-.34A2.12,2.12,0,0,0,59.2,111.39Z"/><path class="cls-13" d="M61.26,107.4a2.85,2.85,0,0,1,1.92,1,.16.16,0,0,1-.15.27,6,6,0,0,0-2.55-.25c0-.32,0-.63,0-1A3.82,3.82,0,0,1,61.26,107.4Z"/><path class="cls-13" d="M59.29,107.93a3.39,3.39,0,0,1,1.14-.47c0,.32,0,.63,0,1a2,2,0,0,0-.74.32A7.82,7.82,0,0,1,59.29,107.93Z"/><path class="cls-13" d="M59.29,107.93a7.82,7.82,0,0,0,.45.8,2,2,0,0,0-.49.54l-.87-.47A3.16,3.16,0,0,1,59.29,107.93Z"/><path class="cls-13" d="M58,109.53a2.48,2.48,0,0,1,.36-.73l.87.47a2.69,2.69,0,0,0-.2.38c0,.1-.07.2-.1.3a7,7,0,0,0-1-.22Z"/><path class="cls-13" d="M59,110a1.66,1.66,0,0,0,0,.66,5.31,5.31,0,0,0-1,.34,3.57,3.57,0,0,1,.07-1.22A7,7,0,0,1,59,110Z"/><path class="cls-13" d="M59.2,111.39l.2.31a1,1,0,0,0,.24.23c-.27.32-.52.63-.74.95l-.22-.2a3,3,0,0,1-.41-.53A4,4,0,0,1,59.2,111.39Z"/><path class="cls-13" d="M61,112.31c.61,0,.71,1.17.08,1.24a2.86,2.86,0,0,1-2.18-.67c.22-.32.47-.63.74-.95A2.27,2.27,0,0,0,61,112.31Z"/><path class="cls-15" d="M58.57,109.11a3.2,3.2,0,0,1,1-1,2.27,2.27,0,0,1,1.35-.26,0,0,0,1,1,0,0,2.76,2.76,0,0,0-2.15,1.28,3.09,3.09,0,0,0-.48,1.22,2.46,2.46,0,0,0,.37,1.62s0,0,0,0A2.46,2.46,0,0,1,58.57,109.11Z"/><path class="cls-5" d="M70.13,107.83l-4.36-.64c-1.8-.26-3.92-.22-4.52.86s-2.13,8.25-2.65,12.21-1.68,12-.86,13.67,6.27,2.42,6.72,2.53l8.21-23.14Z"/><path class="cls-5" d="M62.93,129.58c.45-3.18,3-16.53,3.28-19.06s-.54-2.74-1.39-3.14a5.44,5.44,0,0,0-1.73-.27,10.56,10.56,0,0,1,2.68.08l4.36.64,2.54,5.49-8,22.63c-.78-.17-1.36-.34-1.36-.34C62,134.36,62.48,132.77,62.93,129.58Z"/><path class="cls-9" d="M62.93,129.58c.45-3.18,3-16.53,3.28-19.06s-.54-2.74-1.39-3.14a5.44,5.44,0,0,0-1.73-.27,10.56,10.56,0,0,1,2.68.08l4.36.64,2.54,5.49-8,22.63c-.78-.17-1.36-.34-1.36-.34C62,134.36,62.48,132.77,62.93,129.58Z"/><path class="cls-9" d="M66.21,110.52a5.13,5.13,0,0,0,0-1.79c.34.56.38,1.25.73,1.8a1.6,1.6,0,0,0,1.43.49.32.32,0,0,0,.3-.39,15,15,0,0,1-.72-3.12l2.2.32,2.54,5.49-8,22.63c-.78-.17-1.36-.34-1.36-.34-1.3-1.25-.8-2.84-.35-6S65.92,113.05,66.21,110.52Z"/><path class="cls-9" d="M63.22,135.55c.05-.65.12-1.31.21-2,.46-3.42,1.16-6.8,1.87-10.18.36-1.67.73-3.34,1.17-5a22,22,0,0,1,1.63-4.74c.51-.93,1.55-1.45,1.16-2.64a8.41,8.41,0,0,1-.54-2.14c0-.43,0-.85,0-1.27l1.45.21,2.54,5.49-8,22.63c-.78-.17-1.36-.34-1.36-.34Z"/><path class="cls-5" d="M58.6,120.26c.52-4,2-11.13,2.65-12.21a2.33,2.33,0,0,1,1.84-.94,5.44,5.44,0,0,1,1.73.27c.85.4,1.69.6,1.39,3.14s-2.83,15.88-3.28,19.06-1,4.78.35,6c0,0,.58.17,1.36.34l-.18.51c-.45-.11-5.9-.82-6.72-2.53S58.07,124.22,58.6,120.26Z"/><path class="cls-9" d="M58.53,124.57c.39-1.34,1.68-2.57,3.4-1.66,1.1.58,1.5-.27,1.7-1.34.12-.72,2.78-12.15,2.14-13.63.39.38.62,1.07.44,2.58-.29,2.53-2.83,15.88-3.28,19.06s-1,4.78.35,6c0,0,.58.17,1.36.34l-.18.51c-.45-.11-5.9-.82-6.72-2.53a11.44,11.44,0,0,1-.22-4.25A34.46,34.46,0,0,1,58.53,124.57Z"/><path class="cls-9" d="M58.27,134a12.8,12.8,0,0,0,1.85.33,1.89,1.89,0,0,0,1.42-.19,2.41,2.41,0,0,0,.74-1.22c.18-.56.27-1.27.43-1.94-.34,2.27-.52,3.55.57,4.6,0,0,.58.17,1.36.34l-.18.51c-.45-.11-5.9-.82-6.72-2.53a1.52,1.52,0,0,1-.12-.36A1.24,1.24,0,0,0,58.27,134Z"/><path class="cls-5" d="M61.11,123a1.48,1.48,0,0,0-1.92,1.37c-.19,1.19-.47,3.41-.64,5.05s-.62,3.79.94,4.13,1.78-1.85,2-3.58.47-4.15.62-5.23A1.5,1.5,0,0,0,61.11,123Z"/><path class="cls-9" d="M61.11,123a1.48,1.48,0,0,0-1.92,1.37c-.19,1.19-.47,3.41-.64,5.05s-.62,3.79.94,4.13,1.78-1.85,2-3.58.47-4.15.62-5.23A1.5,1.5,0,0,0,61.11,123Z"/><path class="cls-9" d="M61.11,123a1.48,1.48,0,0,0-1.92,1.37c-.19,1.19-.47,3.41-.64,5.05s-.62,3.79.94,4.13,1.78-1.85,2-3.58.47-4.15.62-5.23A1.5,1.5,0,0,0,61.11,123Z"/><path class="cls-35" d="M58.55,129.43c.17-1.64.45-3.86.64-5.05A1.48,1.48,0,0,1,61.11,123a1,1,0,0,1,.27.11,1.46,1.46,0,0,0-1.84,1.36c-.2,1.18-.47,3.36-.64,5s-.63,3.72.94,4.07l.3,0a1.18,1.18,0,0,1-.65,0C57.93,133.22,58.37,131.08,58.55,129.43Z"/><path class="cls-36" d="M60.51,124.48l.5-.12s.6,0,.6.83a.8.8,0,0,1-.75.77l-.38-.16Z"/><path class="cls-37" d="M60.1,125.14c0,.37.2.67.45.67s.45-.3.45-.67-.2-.67-.45-.67S60.1,124.77,60.1,125.14Z"/><path class="cls-36" d="M60,128l.49-.12s.6,0,.6.83a.79.79,0,0,1-.74.78l-.39-.17Z"/><path class="cls-37" d="M59.56,128.63c0,.37.2.67.44.67s.45-.3.45-.67-.2-.68-.45-.68S59.56,128.25,59.56,128.63Z"/><path class="cls-36" d="M59.52,131.2l.5-.12s.6,0,.59.83a.79.79,0,0,1-.74.77l-.38-.16Z"/><path class="cls-37" d="M59.11,131.86c0,.37.2.67.45.67s.44-.3.44-.67-.2-.67-.44-.67S59.11,131.49,59.11,131.86Z"/><path class="cls-38" d="M60.24,124.87c.08-.54.59-.41.57.12,0,.2-.16.56-.43.42S60.22,125,60.24,124.87Z"/><path class="cls-38" d="M59.64,128.38c.09-.54.59-.41.57.12,0,.2-.15.56-.42.42S59.62,128.55,59.64,128.38Z"/><path class="cls-38" d="M59.25,131.64c.08-.54.58-.41.57.12,0,.2-.16.56-.43.42S59.22,131.81,59.25,131.64Z"/><path class="cls-10" d="M87.87,148.48a14,14,0,0,1,1.36-3.21,21.87,21.87,0,0,1,1.92-2.85,5.53,5.53,0,0,1,1.07-1.09,2.4,2.4,0,0,1,.64-.32.7.7,0,0,1,.47,0,4.54,4.54,0,0,1,1.64.72c.57.36,1.12.75,1.67,1.14a14.29,14.29,0,0,0,3.6,2.27,1.78,1.78,0,0,1,.23-.31c.28-.31.79-.26,1.16-.22h0a11.13,11.13,0,0,1,2.28-2.42,7.7,7.7,0,0,1,3.1-1.59,3.25,3.25,0,0,1,1.64.06,5.32,5.32,0,0,1,1.36.52c.27-.06.11.49,0,.61-.15.33-.5.57-.71.87s-.59.77-.87,1.17a33.65,33.65,0,0,0-3,5.23c-.42.87-.83,1.73-1.26,2.59a24,24,0,0,1-1.51,2.52c-.52.79-1.09,1.55-1.57,2.36a8.4,8.4,0,0,0-1,2.5.06.06,0,0,0,0,0,.07.07,0,0,1,0,.09l-.06,0h0a1.27,1.27,0,0,1-1.05-.12c-.64-.3-1.31-.54-1.95-.87a27.21,27.21,0,0,1-3.51-2.11c-1.08-.75-2.15-1.53-3.18-2.36a13.23,13.23,0,0,1-2.8-2.79.06.06,0,0,1,0-.08,1.29,1.29,0,0,1-.09-.75A9.49,9.49,0,0,1,87.87,148.48Z"/><path class="cls-8" d="M96.78,150.86a2.06,2.06,0,0,1,1.2-1,9.15,9.15,0,0,1,2.22-.12,39.73,39.73,0,0,0,5,0q-.45,1-.93,1.92a24,24,0,0,1-1.51,2.52c-.52.79-1.09,1.55-1.57,2.36a8.4,8.4,0,0,0-1,2.5.06.06,0,0,0,0,0,.07.07,0,0,1,0,.09l-.06,0h0a1.27,1.27,0,0,1-1.05-.12c-.64-.3-1.31-.54-1.95-.87a27.21,27.21,0,0,1-3.51-2.11l-.19-.13C94.46,154.24,95.65,152.55,96.78,150.86Z"/><path class="cls-11" d="M87.87,148.48a14,14,0,0,1,1.36-3.21,21.87,21.87,0,0,1,1.92-2.85,5.53,5.53,0,0,1,1.07-1.09,2.4,2.4,0,0,1,.64-.32.7.7,0,0,1,.47,0,3.52,3.52,0,0,1,1.14.43,5.61,5.61,0,0,0-2.56,3.35c-.62,1.74-1.24,3.64.51,4.9,1.06.77,3.94,2.55,4.5,1a30.9,30.9,0,0,1,1.87-3.81,3.2,3.2,0,0,1,1.45-1.7,1.78,1.78,0,0,1,.23-.31.83.83,0,0,1,.56-.25,3.15,3.15,0,0,0-1,1.43,15.55,15.55,0,0,0-1.85,3.66c0,.14,0,1.17.7-.17,1.27-2.49,2-4.56,2.91-5.12,0,0,0,0,0,0l.11-.15a22,22,0,0,0-1.79,3.44c-.29.61-4.29,7.89-1,7.06,3.51-.88,5-7.28,6.39-10a8.26,8.26,0,0,1,1.64-2.36,3.44,3.44,0,0,1,1.43-.91,3.18,3.18,0,0,0,.9-.35l.08-.08a3,3,0,0,1,.36.19c.27-.06.11.49,0,.61-.15.33-.5.57-.71.87s-.59.77-.87,1.17a33.65,33.65,0,0,0-3,5.23c-.42.87-.83,1.73-1.26,2.59a24,24,0,0,1-1.51,2.52c-.52.79-1.09,1.55-1.57,2.36a8.4,8.4,0,0,0-1,2.5.06.06,0,0,0,0,0,.07.07,0,0,1,0,.09l-.06,0h0a1.27,1.27,0,0,1-1.05-.12c-.64-.3-1.31-.54-1.95-.87a27.21,27.21,0,0,1-3.51-2.11c-1.08-.75-2.15-1.53-3.18-2.36a13.23,13.23,0,0,1-2.8-2.79.06.06,0,0,1,0-.08,1.29,1.29,0,0,1-.09-.75A9.49,9.49,0,0,1,87.87,148.48Z"/><path class="cls-11" d="M87.87,148.48a14,14,0,0,1,1.36-3.21,22.21,22.21,0,0,1,1.62-2.46,27.93,27.93,0,0,0-1.1,5.87A3.85,3.85,0,0,0,91,152.06a28,28,0,0,0,3.23,2.38,9,9,0,0,0,3.44,1.76c1.29.2,2.2-.83,3-1.7.61-.65,1.17-1.34,1.79-2s1.37-1.2,2.07-1.79l.34-.28c-.2.41-.39.82-.6,1.22a24,24,0,0,1-1.51,2.52c-.52.79-1.09,1.55-1.57,2.36a8.4,8.4,0,0,0-1,2.5.06.06,0,0,0,0,0,.07.07,0,0,1,0,.09l-.06,0h0a1.27,1.27,0,0,1-1.05-.12c-.64-.3-1.31-.54-1.95-.87a27.21,27.21,0,0,1-3.51-2.11c-1.08-.75-2.15-1.53-3.18-2.36a13.23,13.23,0,0,1-2.8-2.79.06.06,0,0,1,0-.08,1.29,1.29,0,0,1-.09-.75A9.49,9.49,0,0,1,87.87,148.48Z"/><path class="cls-12" d="M87.54,150.15a1.29,1.29,0,0,0,.09.75.06.06,0,0,0,0,.08,13.23,13.23,0,0,0,2.8,2.79c1,.83,2.1,1.61,3.18,2.36a27.21,27.21,0,0,0,3.51,2.11c.64.33,1.31.57,1.95.87a1.27,1.27,0,0,0,1.05.12h0l.06,0a.07.07,0,0,0,0-.09.06.06,0,0,1,0,0,8.4,8.4,0,0,1,1-2.5c.48-.81,1-1.57,1.57-2.36a24,24,0,0,0,1.51-2.52c.43-.86.84-1.72,1.26-2.59a33.65,33.65,0,0,1,3-5.23c.28-.4.58-.78.87-1.17s.56-.54.71-.87c.06-.12.22-.67,0-.61a5.32,5.32,0,0,0-1.36-.52,3.25,3.25,0,0,0-1.64-.06,7.7,7.7,0,0,0-3.1,1.59,11.13,11.13,0,0,0-2.28,2.42h0c-.37,0-.88-.09-1.16.22a1.78,1.78,0,0,0-.23.31,14.29,14.29,0,0,1-3.6-2.27c-.55-.39-1.1-.78-1.67-1.14a4.54,4.54,0,0,0-1.64-.72.7.7,0,0,0-.47,0,2.4,2.4,0,0,0-.64.32,5.53,5.53,0,0,0-1.07,1.09,21.87,21.87,0,0,0-1.92,2.85,14,14,0,0,0-1.36,3.21A9.49,9.49,0,0,0,87.54,150.15Zm.34-.6a11.46,11.46,0,0,1,.35-1.4,12.9,12.9,0,0,1,1.22-2.77,24.87,24.87,0,0,1,1.72-2.6c.51-.66,1.14-1.51,2-1.61l0,0a9.7,9.7,0,0,1,2,1c.59.41,1.19.8,1.77,1.23a8.39,8.39,0,0,0,3.22,1.87,3,3,0,0,0-.31,1.08s0,0,0,0a4.62,4.62,0,0,1,.6-1.22,1,1,0,0,1,1-.29,7.61,7.61,0,0,0-1.08,2.06c0,.06.58-.86,1.2-1.85a9.81,9.81,0,0,1,2.33-2.56,7.7,7.7,0,0,1,2.91-1.6,3.54,3.54,0,0,1,1.77,0,6.63,6.63,0,0,1,1.32.37s0,.08,0,.07,0,.27,0,.32a1.38,1.38,0,0,1-.44.58,7.53,7.53,0,0,0-.79,1c-.49.67-1,1.33-1.43,2a53.33,53.33,0,0,0-2.51,4.8,36.13,36.13,0,0,1-2.74,4.75A12.08,12.08,0,0,0,100,159.1v0l-.11,0a1.24,1.24,0,0,1-.47-.11l-.82-.35c-.63-.27-1.24-.57-1.84-.9a29.92,29.92,0,0,1-3.28-2c-1-.74-2.07-1.47-3.05-2.28A31.72,31.72,0,0,1,87.9,151a1.13,1.13,0,0,1-.13-.56A6.61,6.61,0,0,1,87.88,149.55Z"/><path class="cls-5" d="M66,128.5s-1.31,1-2,4.06,1.32,9.87,9.28,12.85,8.6,2.16,9.71,3.42,1.32,1.22,1.7,1,.49-.17.89.48.77.5,1.16.5c0,0,.06-4.06,1.75-6a43.83,43.83,0,0,1,4.17-4s-.77-1.3-4.12-3a41.57,41.57,0,0,0,.61-4.32,19.7,19.7,0,0,1-10,.59C73.61,133,67.76,131.07,66,128.5Z"/><path class="cls-9" d="M66,128.5c1.8,2.57,8.68,4.58,14.2,5.7a13.47,13.47,0,0,0,9.06-1,43.81,43.81,0,0,1-.69,4.59c.52.27,1,.52,1.39.77-.79-.36-1.58-.73-2.39-1a35.53,35.53,0,0,0-6.14-1.75,23.19,23.19,0,0,0-6.11-.42,29.72,29.72,0,0,0-4.79.44,4.28,4.28,0,0,1,2.38-.69.3.3,0,0,0,.11-.57,28.24,28.24,0,0,0-2.49-1.49,4.19,4.19,0,0,0-2.73-.69,1.42,1.42,0,0,0-.73,2,1.33,1.33,0,0,0,1.19.4,13.92,13.92,0,0,1,1.83,0,2.78,2.78,0,0,0-1.06.69c-.52.58,0,1.32.48,1.67a12.53,12.53,0,0,0,1.58.84c.58.29,1.14.65,1.7,1A37,37,0,0,0,77,141c2.68,1.15,5.81,2.42,8.8,2.13a5.22,5.22,0,0,0,2.84-1.34c.85-.7,2-1.94,3.22-1.78H92a4,4,0,0,1,.7.78,43.83,43.83,0,0,0-4.17,4c-1.69,1.94-1.75,6-1.75,6-.39,0-.76.16-1.16-.5s-.51-.67-.89-.48-.58.22-1.7-1-1.74-.43-9.71-3.42-9.93-9.82-9.28-12.85S66,128.5,66,128.5Z"/><g class="cls-39"><path class="cls-40" d="M66,128.5c1.8,2.57,6.69,4.45,12.21,5.57a23.15,23.15,0,0,0,11-.86,43.81,43.81,0,0,1-.69,4.59c.52.27,1,.52,1.39.77-.79-.36-1.58-.73-2.39-1a35.53,35.53,0,0,0-6.14-1.75,24.18,24.18,0,0,0-5.18-.46c-.62-.08-1.24-.14-1.86-.16s-2.57.38-3.12.39c.36-.08,2.18-.56,2.53-.61s.94-.09.62-.24c-2.47-1.15-4.71-1.81-6.48-3.39-.46-.42-1.1-1.49-1.87-1.18s-.87.86-1.18,1.61c-.51,1.21-.45,3.15.46,3.34a11,11,0,0,0,3.63-.09c-1,.59-2.13,1.44-2.23,2.49-.15,1.64,1.52,2.77,2.7,3.58,1,.65,1.94,1.24,3,1.82A20.4,20.4,0,0,1,74.13,144a1.3,1.3,0,0,0,.92.3c.92-.18,1.06-1.08,1.43-1.82.23-.46.46-.93.72-1.36,2.55,1.08,5.49,2.23,8.31,2.05a9,9,0,0,0-.79,5c0,.27.46.42.57.12a17.81,17.81,0,0,1,1.91-4,12.76,12.76,0,0,0-1.46,4.53c0,.18.36.64.4.46.72-3.57,2.1-7.82,5.78-9.2h0a4,4,0,0,1,.7.78,43.83,43.83,0,0,0-4.17,4c-1.69,1.94-1.75,6-1.75,6-.39,0-.76.16-1.16-.5s-.51-.67-.89-.48-.58.22-1.7-1-1.74-.43-9.71-3.42-9.93-9.82-9.28-12.85S66,128.5,66,128.5Z"/></g><path class="cls-5" d="M87.37,138.77a33.93,33.93,0,0,0-7.59-.87c-.72,0-.75,0-1.07.57a8,8,0,0,0-.7,3.68,5.33,5.33,0,0,0,.75,3c.2.25.35.23.82.28s5.58.4,6.27.5.92.32,1-.13a15,15,0,0,1,.15-2.56c.2-1.12.7-3,.85-3.46S88.34,139.09,87.37,138.77Z"/><path class="cls-9" d="M78.25,139.76a4.11,4.11,0,0,0,.13,2,1.24,1.24,0,0,0,2,.54c.5-.42.21-2,.1-2.5-.16-.79-.5-1.64-1.38-1.81h0a.54.54,0,0,1,.24-.05,3.21,3.21,0,0,1,.73.27c.5.25.92.61,1.43.83a6.89,6.89,0,0,0,1.49.29,5.25,5.25,0,0,1,1.42.46,4.14,4.14,0,0,0-2.24,0c-.81.37-.52,1.72-.36,2.41a.17.17,0,0,0,.14.1c.88.12,2.61.82,3.17-.22a2.68,2.68,0,0,0,.2-.89c.06-.34.23-1.65.29-.75a8.31,8.31,0,0,0,.36,2.43c0,.09.16.08.23,0,.83-.69.51-2,1.07-2.89.29-.44.52-.8.42-1.12.52.27.21.5.09.89s-.65,2.34-.85,3.46a15,15,0,0,0-.15,2.56c0,.45-.25.23-1,.13s-5.8-.45-6.27-.5-.62,0-.82-.28a5.33,5.33,0,0,1-.75-3A10.12,10.12,0,0,1,78.25,139.76Z"/><path class="cls-9" d="M78.18,142.45c.14.85.41,2.21,1.51,2.23,1.35,0,1.2-1.75,1.27-2.61a4.82,4.82,0,0,0-.15-2.53,3.48,3.48,0,0,0-.87-1.1,1.43,1.43,0,0,0-.38-.31l-.26-.21h.06l.2.05a2.91,2.91,0,0,1,1.79,1.68,7.49,7.49,0,0,1-.07,2.54c-.06.51-.25,1.35.16,1.78s1.45.35,2.11.43c.47,0,1,.24,1.42-.07.17-.14.19-.44.24-.64.1-.41.22-.83.32-1.25l0-.13a1.88,1.88,0,0,0,.12.45,2.86,2.86,0,0,0,.11,1.2.38.38,0,0,0,.63.16A2.65,2.65,0,0,0,87,143c0,.1,0,.2,0,.29a15,15,0,0,0-.15,2.56c0,.45-.25.23-1,.13s-5.8-.45-6.27-.5-.62,0-.82-.28a5.33,5.33,0,0,1-.75-3c0-.31,0-.61,0-.89C78.08,141.66,78.12,142.06,78.18,142.45Z"/><path class="cls-13" d="M91.86,140.11c-1.34.49-3.27,2.34-4.62,6s-.93,5.8-.32,5.82.49-.53.8-2.2,2.09-7.35,4.88-8.79c.42-.21,1.33-.16.8-.67A1.48,1.48,0,0,0,91.86,140.11Z"/><path class="cls-13" d="M94.48,141.48s0-.58-.75-.81-2,.38-3.6,2.7a18.3,18.3,0,0,0-2.71,7.37c-.28,2.13,1.08,1.8,1.29,1.51a14.29,14.29,0,0,1,1.22-5.64C91.29,143.43,93.19,141.32,94.48,141.48Z"/><path class="cls-12" d="M66.48,134.58a3.58,3.58,0,0,1,.39-1.83c0-.05.11,0,.09,0a5.49,5.49,0,0,0-.31,1.8c0,.3,0,.6-.08.9a1.57,1.57,0,0,0,.24,1c.08.14.14.29.22.43.23.42.67.24,1,.08.18-.08.49-.27.64-.06s0,.49-.08.64c-.15.56.69.86,1.05,1.08a12.31,12.31,0,0,0,1.8.85c.54.21,1.11.34,1.65.57,0,0,0,.05,0,0a16.69,16.69,0,0,1-3.62-1.38c-.35-.21-.81-.39-1-.78a.67.67,0,0,1,0-.42c0-.13.29-.63-.06-.57s-.82.56-1.25.29a1,1,0,0,1-.26-.36l-.34-.65C66.28,135.75,66.47,135.08,66.48,134.58Z"/><path class="cls-41" d="M111,141.6c-.68-.61-1.13-.83-1.63-.76s-2.21.67-3.3,4.16a24.71,24.71,0,0,1-3.73,8c-1.46,1.82-3.49,4.17-3.51,5.39s.49,1,1.19,1.28,1.38.71,2.3-.19,3.7-6,4.76-8.06S112.75,143.19,111,141.6Z"/><path class="cls-42" d="M102.33,153a24.71,24.71,0,0,0,3.73-8c1.09-3.49,2.81-4.08,3.3-4.16s1,.15,1.63.76a1.2,1.2,0,0,1,.34.6c-.14-.24-.34-.37-.61-.17a8.19,8.19,0,0,0-2.72,3.54,23.8,23.8,0,0,1-3.52,6.78,18.3,18.3,0,0,0-3.24,5.26c-.42,1.21-.52,1.93-.12,2.21.2.14.68,0,1.23-.39l0,0c-.92.9-1.6.49-2.3.19s-1.21-.07-1.19-1.28S100.87,154.82,102.33,153Z"/><path class="cls-33" d="M102.33,153a16.88,16.88,0,0,0,2.23-3.88c-.11.58-.47,1.22-.06,1.74a.29.29,0,0,0,.16.11c.56.05,1.8-2.61,2.18-3.68a13.69,13.69,0,0,1,1.32-2.69,6.3,6.3,0,0,1,1.39-1.5,7.64,7.64,0,0,0-1.55,2.47,23.8,23.8,0,0,1-3.52,6.78,18.3,18.3,0,0,0-3.24,5.26c-.42,1.21-.52,1.93-.12,2.21.2.14.68,0,1.23-.39l0,0c-.92.9-1.6.49-2.3.19s-1.21-.07-1.19-1.28S100.87,154.82,102.33,153Z"/><path class="cls-42" d="M101.12,159.82c-.4-.28-.3-1,.12-2.21a18.3,18.3,0,0,1,3.24-5.26,23.8,23.8,0,0,0,3.52-6.78,8.19,8.19,0,0,1,2.72-3.54c.27-.2.47-.07.61.17.54,2.17-3.31,7.39-4.26,9.22-1,2-3.76,7-4.72,8C101.8,159.79,101.32,160,101.12,159.82Z"/><path class="cls-32" d="M110.29,142.38l.43-.35c.27-.2.47-.07.61.17a2.71,2.71,0,0,1,0,1.13Z"/><path class="cls-32" d="M109.53,143.12c.18-.2.36-.37.52-.53l1.17,1.1c0,.19-.12.4-.19.6C110.54,143.88,110.05,143.49,109.53,143.12Z"/><path class="cls-32" d="M109.76,144.77a11.55,11.55,0,0,0-.94-.76,6.94,6.94,0,0,1,.5-.65c.55.39,1.07.81,1.59,1.25-.11.26-.22.52-.35.78C110.29,145.19,110,145,109.76,144.77Z"/><path class="cls-32" d="M108.16,145.18a7.85,7.85,0,0,1,.49-.91c.39.27.74.63,1.11.91.22.17.44.34.67.5l-.37.71A16.48,16.48,0,0,0,108.16,145.18Z"/><path class="cls-32" d="M107.72,146.3l.28-.73,0-.09a16.57,16.57,0,0,1,1.88,1.19l-.46.81A6.48,6.48,0,0,0,107.72,146.3Z"/><path class="cls-32" d="M107.31,147.33l.3-.74a6.38,6.38,0,0,1,1.67,1.17c-.13.23-.27.45-.4.67C108.37,148,107.84,147.68,107.31,147.33Z"/><path class="cls-32" d="M106.88,148.33c.1-.24.21-.47.3-.7.52.35,1,.69,1.53,1.07l-.41.68C107.83,149,107.35,148.67,106.88,148.33Z"/><path class="cls-32" d="M106.3,149.53c.15-.3.3-.6.44-.91l1.39,1-.5.8A13.66,13.66,0,0,0,106.3,149.53Z"/><path class="cls-32" d="M107,151.5c-.44-.31-.88-.61-1.3-.93.14-.24.29-.5.42-.76a12.28,12.28,0,0,1,1.31.92c-.16.26-.29.5-.39.69Z"/><path class="cls-32" d="M105,151.74c.21-.28.41-.58.6-.89.43.32.88.62,1.32.93l-.49.92C105.91,152.39,105.42,152.08,105,151.74Z"/><path class="cls-32" d="M104.18,152.7l.3-.35.29-.36c.47.36,1,.67,1.47,1l-.38.7C105.31,153.34,104.72,153.05,104.18,152.7Z"/><path class="cls-32" d="M103.56,153.49,104,153c.56.36,1.16.66,1.72,1-.13.25-.27.51-.42.76A18.6,18.6,0,0,1,103.56,153.49Z"/><path class="cls-32" d="M102.22,155.56c.12-.22.26-.45.4-.68.65.38,1.25.83,1.87,1.25l-.46.77A16.92,16.92,0,0,1,102.22,155.56Z"/><path class="cls-32" d="M101.62,156.71c.12-.27.27-.56.44-.87a16.92,16.92,0,0,0,1.81,1.34l-.42.69Z"/><path class="cls-32" d="M101.18,157.78l.06-.17c.06-.18.15-.39.24-.61.6.38,1.21.75,1.8,1.15l-.54.8C102.2,158.58,101.7,158.17,101.18,157.78Z"/><path class="cls-32" d="M102.55,159.2l-.2.23c-.55.36-1,.53-1.23.39s-.32-.8,0-1.72C101.57,158.47,102,158.86,102.55,159.2Z"/><path class="cls-32" d="M102.79,154.61c.18-.29.38-.57.58-.86a18.07,18.07,0,0,0,1.76,1.25l-.48.85C104,155.44,103.43,155,102.79,154.61Z"/><path class="cls-12" d="M85.45,143.61c0-.5,0-1,0-1.51a9.76,9.76,0,0,0-.09-1.32,1.1,1.1,0,0,1,.2-.91,2.63,2.63,0,0,1,1-.62,3.4,3.4,0,0,1,1.18-.2s0,0,0,0a4,4,0,0,0-2,.81c-.36.31-.28.74-.23,1.15s.07.8.08,1.2a14.6,14.6,0,0,1-.1,2.19c-.1.86.4,1.2,1.08,1.56,0,0,0,0,0,0a1.54,1.54,0,0,1-1.18-1.14A5.59,5.59,0,0,1,85.45,143.61Z"/><path class="cls-12" d="M78.75,145c.38.36.7.21,1.11.07a2,2,0,0,0,.87-.54,1.38,1.38,0,0,0,.31-1.09c0-.42,0-.85,0-1.27a4.49,4.49,0,0,0-.12-2.57,5,5,0,0,0-.77-.95c-.33-.35-.75-.75-1.24-.38,0,0,0,0,0,0a.59.59,0,0,1,.75-.15,3.5,3.5,0,0,1,1.08,1,2.22,2.22,0,0,1,.59,1.17,15,15,0,0,1-.09,1.89c0,1,.25,2-.59,2.7a2.92,2.92,0,0,1-1,.47.76.76,0,0,1-.94-.3S78.73,145,78.75,145Z"/><path class="cls-12" d="M81.34,139.64a6.17,6.17,0,0,1,1.87,0c.3,0,.6,0,.91.06s.77.23,1.16.28a0,0,0,1,1,0,0,4.1,4.1,0,0,1-.7-.12,5.78,5.78,0,0,0-1.1-.11c-.36,0-.72,0-1.08,0a4.6,4.6,0,0,0-1.05,0S81.32,139.65,81.34,139.64Z"/><path class="cls-12" d="M81.06,144.54a15.59,15.59,0,0,0,4.15.39s0,0,0,0A16.76,16.76,0,0,1,83,145,4.43,4.43,0,0,1,81,144.6S81,144.52,81.06,144.54Z"/><path class="cls-9" d="M79.73,142.12c0,.4.23.73.51.73s.51-.33.51-.73-.23-.74-.51-.74S79.73,141.71,79.73,142.12Z"/><path class="cls-37" d="M79.86,142c0,.29.16.53.37.53s.37-.24.37-.53-.17-.52-.37-.52S79.86,141.71,79.86,142Z"/><g class="cls-39"><path class="cls-10" d="M76.35,135.11c.88-.16,1.9-.31,3-.42a7.62,7.62,0,0,0-3.72,7.74A9.73,9.73,0,0,0,76.78,146l-1.27-.2c-.48-.08-.94-.17-1.39-.28a14.29,14.29,0,0,1-.43-2.76A10.19,10.19,0,0,1,76.35,135.11Z"/></g><path class="cls-14" d="M76.65,137.42c-.62,0-1.24,0-1.87-.06a10.64,10.64,0,0,1,1.31-2h0c.78-.15,2.67-.37,2.8-.37A8.73,8.73,0,0,0,76.65,137.42Z"/><path class="cls-5" d="M89.71,119.68S91.85,128,89,132.92c0,0-1.52,1.62-8.38,1.53s-14-2.18-15.82-4.37a19.74,19.74,0,0,1,1.29-6.32l5.38-9.71Z"/><path class="cls-9" d="M66.06,123.76l5.38-9.71,18.27,5.63s.11.43.25,1.15a6.92,6.92,0,0,0-1.25.7,6.93,6.93,0,0,1-3.2.74,30.15,30.15,0,0,1-6.64-.36c-1.08-.2-2.11-.51-3.17-.78a1,1,0,0,0-1.08.56,6,6,0,0,0-.45,1.22,7.41,7.41,0,0,1-.68,1.42,18.39,18.39,0,0,0-1.31,2.58c-.23.64-.55,1.46-.12,2.09a1.94,1.94,0,0,0,1.28.84c.55.08,1.69-3,2.13-4.29.17-.45.24,3.08.81,3.22a4.57,4.57,0,0,1,1.17.53,15.5,15.5,0,0,0,5.58,2,16.77,16.77,0,0,0,3.32.17,4.35,4.35,0,0,0,2.31-.47,4.92,4.92,0,0,0,1.7-2.68A11.67,11.67,0,0,1,89,132.92s-1.52,1.62-8.38,1.53-14-2.18-15.82-4.37A19.74,19.74,0,0,1,66.06,123.76Z"/><path class="cls-30" d="M66.06,123.76l5.38-9.71,2.16.66a1.21,1.21,0,0,0,.05.18,25.39,25.39,0,0,1,.85,2.82,12.31,12.31,0,0,1,.12,3.15,7.94,7.94,0,0,1-2.71,5A10.53,10.53,0,0,1,68.65,127a2.07,2.07,0,0,0-1.74.55,1.89,1.89,0,0,0-.34,1.74,3,3,0,0,0,1.48,1.36c3.69,2.1,8.07,3,12.26,3.42,1.23.13,2.48.23,3.72.29a31.87,31.87,0,0,1-3.44.12c-6.86-.09-14-2.18-15.82-4.37A19.74,19.74,0,0,1,66.06,123.76Z"/><path class="cls-5" d="M86.87,123.73a23.49,23.49,0,0,1-6.72-.57c-3.06-.72-3.38-.45-3.93.57a17.61,17.61,0,0,0-1.44,5.48c0,1.22.79,1.62,2.16,2.24a17.59,17.59,0,0,0,7.07.94c2.51-.19,4.41-.34,4.91-3s.59-4.41-.23-5.13A2,2,0,0,0,86.87,123.73Z"/><path class="cls-5" d="M76.52,130.33c-.45-1.67.8-4.71,1.09-5.55s.83-1.15,3.46-.55a21.83,21.83,0,0,0,6.43.35c1.09-.1,1.22-.07,1.56.5a1.79,1.79,0,0,1,.2.54,13.65,13.65,0,0,1-.34,3.79c-.5,2.64-2.4,2.79-4.91,3a18.94,18.94,0,0,1-6.2-.63A2.24,2.24,0,0,1,76.52,130.33Z"/><path class="cls-9" d="M77.61,124.78a1.18,1.18,0,0,1,.55-.71c-1.09,2.43,2.27,4.71,4.51,5.42a5.52,5.52,0,0,0,4.94-.65,3.34,3.34,0,0,0,1.26-4,2.94,2.94,0,0,1,.19.29,1.79,1.79,0,0,1,.2.54,13.65,13.65,0,0,1-.34,3.79c-.5,2.64-2.4,2.79-4.91,3a18.94,18.94,0,0,1-6.2-.63,2.24,2.24,0,0,1-1.29-1.43C76.07,128.66,77.32,125.62,77.61,124.78Z"/><path class="cls-9" d="M76.91,126.83a5.28,5.28,0,0,0,.7,2.55,4.73,4.73,0,0,0,3.57,1.93,13.16,13.16,0,0,0,5.12-.17,3.54,3.54,0,0,0,2.1-1.46,10.85,10.85,0,0,0,.77-1.79c-.07.47-.15,1-.25,1.52-.5,2.64-2.4,2.79-4.91,3a18.94,18.94,0,0,1-6.2-.63,2.24,2.24,0,0,1-1.29-1.43A7.19,7.19,0,0,1,76.91,126.83Z"/><path class="cls-9" d="M76.22,123.73c.55-1,.87-1.29,3.93-.57a23.49,23.49,0,0,0,6.72.57,2,2,0,0,1,2.39,1.89,1.79,1.79,0,0,0-.2-.54c-.34-.57-.47-.6-1.56-.5a21.83,21.83,0,0,1-6.43-.35c-2.63-.6-3.16-.3-3.46.55s-1.54,3.88-1.09,5.55a2.24,2.24,0,0,0,1.29,1.43,6.59,6.59,0,0,1-.87-.31c-1.37-.62-2.14-1-2.16-2.24A17.61,17.61,0,0,1,76.22,123.73Z"/><path class="cls-9" d="M76.22,123.73a2,2,0,0,1,.6-.77.68.68,0,0,0,.69,1,4.39,4.39,0,0,1,1.2,0,1.11,1.11,0,0,0-1.1.85c-.29.84-1.54,3.88-1.09,5.55a2.24,2.24,0,0,0,1.29,1.43,6.59,6.59,0,0,1-.87-.31c-1.37-.62-2.14-1-2.16-2.24A17.61,17.61,0,0,1,76.22,123.73Z"/><path class="cls-9" d="M75.19,126.75c0,.09,0,.18,0,.27a.63.63,0,0,0,1.17.32c.51-.9.7-3.35,2-3.35a1.07,1.07,0,0,0-.76.79c-.29.84-1.54,3.88-1.09,5.55a2.24,2.24,0,0,0,1.29,1.43,6.59,6.59,0,0,1-.87-.31c-1.37-.62-2.14-1-2.16-2.24A11,11,0,0,1,75.19,126.75Z"/><path class="cls-43" d="M82.8,127.42l.27-1.69c.63.07,1.2.11,1.71.13a18.34,18.34,0,0,1-.11,1.85A12,12,0,0,1,82.8,127.42Z"/><path class="cls-44" d="M84.41,129.38a16.15,16.15,0,0,1-1.91-.21c.1-.58.21-1.19.3-1.75a12,12,0,0,0,1.87.29C84.61,128.24,84.53,128.81,84.41,129.38Z"/><path class="cls-45" d="M86.52,127.72a12.77,12.77,0,0,1-.21,1.66c-.56,0-1.21,0-1.9,0,.12-.57.2-1.14.26-1.67A14.37,14.37,0,0,0,86.52,127.72Z"/><path class="cls-46" d="M86.54,125.85a9.91,9.91,0,0,0,1.35-.15,6.83,6.83,0,0,1,.14,1.83,10.88,10.88,0,0,1-1.51.19A15,15,0,0,0,86.54,125.85Z"/><path class="cls-47" d="M86.52,127.72a14.37,14.37,0,0,1-1.85,0,18.34,18.34,0,0,0,.11-1.85c.7,0,1.29,0,1.76,0A15,15,0,0,1,86.52,127.72Z"/><path class="cls-43" d="M86.52,127.72a10.88,10.88,0,0,0,1.51-.19,8.39,8.39,0,0,1-.24,1.72c-.3,0-.82.1-1.48.13A12.77,12.77,0,0,0,86.52,127.72Z"/><path class="cls-48" d="M82.5,129.17a16.15,16.15,0,0,0,1.91.21,10.15,10.15,0,0,1-.56,1.77,9.55,9.55,0,0,1-1.73-.25C82.22,130.56,82.36,129.9,82.5,129.17Z"/><path class="cls-46" d="M86.31,129.38a8.38,8.38,0,0,1-.53,1.7,9.15,9.15,0,0,1-1.93.07,10.15,10.15,0,0,0,.56-1.77C85.1,129.41,85.75,129.41,86.31,129.38Z"/><path class="cls-47" d="M87.79,129.25a8.18,8.18,0,0,1-.49,1.45,7,7,0,0,1-1.52.38,8.38,8.38,0,0,0,.53-1.7C87,129.35,87.49,129.29,87.79,129.25Z"/><path class="cls-49" d="M80.06,124.83a1.68,1.68,0,0,0-.47-.06,1.4,1.4,0,0,0-.67,1,1.38,1.38,0,0,0,.24,1.11,3.29,3.29,0,0,0,.44.11Z"/><path class="cls-49" d="M79.33,128.45a1.64,1.64,0,0,0-.47-.06,1.4,1.4,0,0,0-.67,1,1.36,1.36,0,0,0,.24,1.11,3.29,3.29,0,0,0,.44.11Z"/><path class="cls-13" d="M64.8,129.22c.78,2.35,8.1,4.56,15.15,4.89s9.19-1.68,9.19-1.68a.87.87,0,0,1,0,1,7.87,7.87,0,0,1-3.55,1.19,32.85,32.85,0,0,0-8.42.3c-9.29-.58-12.56-4.33-12.56-4.33A2.05,2.05,0,0,1,64.8,129.22Z"/><path class="cls-12" d="M73,135.94a45.1,45.1,0,0,1,8.54-1.23,29,29,0,0,1,4.47.19,16,16,0,0,1,2,.3c.26.07,1.44.34.8,0A29,29,0,0,0,73,135.94Z"/><path class="cls-50" d="M87.89,125.7a16.72,16.72,0,0,1-4.82,0s-.63,4.13-.95,5.17a9.68,9.68,0,0,0,5.18-.2A8.66,8.66,0,0,0,87.89,125.7Z"/><path class="cls-37" d="M79.22,125.8c-.13.61,0,1.16.38,1.23s.71-.36.84-1,0-1.16-.38-1.23S79.35,125.19,79.22,125.8Z"/><path class="cls-37" d="M78.49,129.42c-.13.61,0,1.16.38,1.23s.71-.36.84-1,0-1.16-.38-1.23S78.62,128.81,78.49,129.42Z"/><path class="cls-14" d="M79.45,125.57c.11-.78.85-.59.83.18,0,.29-.23.82-.63.62S79.41,125.82,79.45,125.57Z"/><path class="cls-14" d="M79,128.8c.34-.49.92.82.15.85a.3.3,0,0,1-.29-.25A.81.81,0,0,1,79,128.8Z"/><path class="cls-15" d="M67.27,131.75a33.62,33.62,0,0,0,10.39,2.51c.06,0,.06.1,0,.1a20.79,20.79,0,0,1-10.41-2.57S67.25,131.74,67.27,131.75Z"/><path class="cls-14" d="M99.89,146.33c.21-.52.39-1.17,1-1.32a0,0,0,0,1,0,.08,4,4,0,0,0-1,1.58,16.38,16.38,0,0,1-.83,1.68s0,0,0,0C99.37,147.67,99.62,147,99.89,146.33Z"/><path class="cls-14" d="M101.08,147.28a10.91,10.91,0,0,1,2.53-4.33,7.77,7.77,0,0,1,4-2.08c.58-.13.08.76-.52.93C105.44,142.26,103.83,143,101.08,147.28Z"/><path class="cls-14" d="M99.61,145.34a3.11,3.11,0,0,0-.49.36c-.58.61-1.74-.24-2.58-.79s-3.08-2.11-3.08-2.11c1-1.73,1.43-.47,3.21.69A20.12,20.12,0,0,0,99.61,145.34Z"/><path class="cls-15" d="M89,146.57a11.56,11.56,0,0,1,2.69-4.74c1.88-1.75,2.36-.64,2.36-.64S91.35,141.51,89,146.57Z"/><path class="cls-15" d="M87.82,145.87s2.69-6.46,5.19-5.55C93,140.32,91,140.21,87.82,145.87Z"/><path class="cls-15" d="M108.33,142.41a8.58,8.58,0,0,0-1.83,2.87c-.14.33-.28.65-.41,1a21.23,21.23,0,0,1,.75-2.55,5.5,5.5,0,0,1,1.74-2.19,3.44,3.44,0,0,1,1.07-.53,3.66,3.66,0,0,1,.87.48A2.93,2.93,0,0,0,108.33,142.41Z"/><path class="cls-51" d="M76.15,118.94c-1.51-.79-4.14-.79-6,3a6.45,6.45,0,0,0,0,5.7,5.67,5.67,0,0,0,1.18,1.11c-.44.07-1.21,0-2.12-1.1s-1.51-5.47,1.65-8.63,8.42-1.63,7.22,3c-.17-.08-.33-.17-.49-.26A3.3,3.3,0,0,0,76.15,118.94Z"/><path class="cls-52" d="M77.63,121.72a3.3,3.3,0,0,0-1.48-2.78,3.63,3.63,0,0,0-2.6-.3,3.92,3.92,0,0,1,2.7,0c1.07.43.2-.34-.17-.47-3.24-1.11-5.74,1.32-6.91,4.17-.15.36.15.76.3.4a9.56,9.56,0,0,1,2.11-2.91,7.92,7.92,0,0,0-1.43,2.1,6.45,6.45,0,0,0,0,5.7,5.67,5.67,0,0,0,1.18,1.11c-.44.07-1.21,0-2.12-1.1s-1.51-5.47,1.65-8.63,8.42-1.63,7.22,3C78,121.9,77.79,121.81,77.63,121.72Z"/><path class="cls-5" d="M84.68,132.67a26.24,26.24,0,0,1-9.61-1.89,18.17,18.17,0,0,1-3.7-2,5.67,5.67,0,0,1-1.18-1.11,6.45,6.45,0,0,1,0-5.7c1.86-3.8,4.49-3.8,6-3a3.3,3.3,0,0,1,1.48,2.78c.16.09.32.18.49.26a36.45,36.45,0,0,0,8,2.84C87.34,128.32,84.68,132.67,84.68,132.67Z"/><path class="cls-5" d="M84.68,132.67a26.24,26.24,0,0,1-9.61-1.89,18.17,18.17,0,0,1-3.7-2,5.67,5.67,0,0,1-1.18-1.11,6.45,6.45,0,0,1,0-5.7c1.86-3.8,4.49-3.8,6-3a3.3,3.3,0,0,1,1.48,2.78c.16.09.32.18.49.26a36.45,36.45,0,0,0,8,2.84C87.34,128.32,84.68,132.67,84.68,132.67Z"/><path class="cls-10" d="M99.7,131.63a2.87,2.87,0,0,1-1.13.05l-.11,0,.23.08c.55.2,1.63.59,1.22,1.39-.33.62-1.3.72-1.9.69H98a.37.37,0,0,1,.19.32.8.8,0,0,1-.64.76A4.15,4.15,0,0,1,96,135a13.72,13.72,0,0,1-2.11-.29A16.45,16.45,0,0,1,90,133.26c-.29-.14-.55-.34-.85-.47a3.06,3.06,0,0,0-1.16-.17,16,16,0,0,0-2.18.11c0,.05-.13,0-.09-.06A8.48,8.48,0,0,0,87,128.36c.06-.71.19-1.41.18-2.12a5.91,5.91,0,0,0-.14-1.11,2.46,2.46,0,0,0-.17-.63l.11-.15a6.4,6.4,0,0,0,1.06.25,6.89,6.89,0,0,1,1.11.15,3.37,3.37,0,0,1,2.11-1.7c.48-.2,1-.35,1.44-.56s.78-.42,1.19-.61a1.43,1.43,0,0,1,1-.16.74.74,0,0,1,.36.83,2.55,2.55,0,0,1-.9,1.27,3.84,3.84,0,0,1-1,.75,10.15,10.15,0,0,1,1.7.45c.73.25,1.45.5,2.15.79s1.34.47,2,.77a2.3,2.3,0,0,1,1.16,1c.42.84-.65,1.24-1.28,1.24a5.62,5.62,0,0,1-1.22-.18c-.39-.08-.78-.13-1.18-.2l.55.19c.59.19,1.19.34,1.77.56a2.58,2.58,0,0,1,1.51,1.23C100.76,131,100.2,131.47,99.7,131.63Z"/><path class="cls-11" d="M99.7,131.63a2.87,2.87,0,0,1-1.13.05l-.11,0,.23.08c.55.2,1.63.59,1.22,1.39-.33.62-1.3.72-1.9.69H98a.37.37,0,0,1,.19.32.8.8,0,0,1-.64.76,2.21,2.21,0,0,1-.59.12,1.24,1.24,0,0,0,.29-.2c.38-.35,0-.74-.37-.87-1-.39-2-.75-3.06-1.15a11.36,11.36,0,0,1,2.18.43c.44.07.87.15,1.31.19s1.78.32,1.83-.38-1.41-.92-1.78-1.05c-1-.35-3.16-.92-3.27-1.38-.44-.66,1.69.31,2.42.47a17.09,17.09,0,0,0,1.73.35c.53.06,1.93,0,1-.81s-3.09-1.33-4.12-2,.22-.73.51-.66a17.38,17.38,0,0,0,4,.53c.17,0-.54-.25-.69-.31a31.72,31.72,0,0,0-3.47-.94,11.85,11.85,0,0,0-3.17-.46c-1.46.14-2.5.74-2.63,1.92-.09.79-.13,1.42-.19,1.06a5.68,5.68,0,0,0-.17-1.32c-.32-.32-.93.1-1.21.65a17.63,17.63,0,0,0-.72,1.61,6,6,0,0,1-1.33,2l-.27,0c0,.05-.13,0-.09-.06A8.48,8.48,0,0,0,87,128.36c.06-.71.19-1.41.18-2.12a5.91,5.91,0,0,0-.14-1.11,2.46,2.46,0,0,0-.17-.63l.11-.15a6.4,6.4,0,0,0,1.06.25,6.89,6.89,0,0,1,1.11.15,3.37,3.37,0,0,1,2.11-1.7c.48-.2,1-.35,1.44-.56s.78-.42,1.19-.61a1.43,1.43,0,0,1,1-.16.74.74,0,0,1,.36.83,2.55,2.55,0,0,1-.9,1.27,3.84,3.84,0,0,1-1,.75,10.15,10.15,0,0,1,1.7.45c.73.25,1.45.5,2.15.79s1.34.47,2,.77a2.3,2.3,0,0,1,1.16,1c.42.84-.65,1.24-1.28,1.24a5.62,5.62,0,0,1-1.22-.18c-.39-.08-.78-.13-1.18-.2l.55.19c.59.19,1.19.34,1.77.56a2.58,2.58,0,0,1,1.51,1.23C100.76,131,100.2,131.47,99.7,131.63Z"/><path class="cls-11" d="M97.75,126.6a29.91,29.91,0,0,0-4.25-1.13,7.08,7.08,0,0,0-1.45-.16l-.36,0a7.73,7.73,0,0,0,2.82-2c.19-.21.25-.44,0-.61s-.85.11-1.1.22c-1.2.53-2.72.89-3.42,2.11s-.28,2.49-.44,3.75a14.2,14.2,0,0,0-.15-1.6c-.07-.53-.16-1.87-1-1.77-.62.08-.6,1.54-.66,2a7.9,7.9,0,0,1-1.11,3,14.14,14.14,0,0,0,.3-2c.06-.71.19-1.41.18-2.12a5.91,5.91,0,0,0-.14-1.11,2.46,2.46,0,0,0-.17-.63l.11-.15a6.4,6.4,0,0,0,1.06.25,6.89,6.89,0,0,1,1.11.15,3.37,3.37,0,0,1,2.11-1.7c.48-.2,1-.35,1.44-.56s.78-.42,1.19-.61a1.43,1.43,0,0,1,1-.16.74.74,0,0,1,.36.83,2.55,2.55,0,0,1-.9,1.27,3.84,3.84,0,0,1-1,.75,10.15,10.15,0,0,1,1.7.45c.73.25,1.45.5,2.15.79s1.34.47,2,.77a2.3,2.3,0,0,1,1.16,1,.65.65,0,0,1-.11.82C100.34,127.47,98.49,126.85,97.75,126.6Z"/><path class="cls-12" d="M100.52,130.43A2.58,2.58,0,0,0,99,129.2c-.58-.22-1.18-.37-1.77-.56l-.55-.19c.4.07.79.12,1.18.2a5.62,5.62,0,0,0,1.22.18c.63,0,1.7-.4,1.28-1.24a2.3,2.3,0,0,0-1.16-1c-.63-.3-1.32-.51-2-.77s-1.42-.54-2.15-.79a10.15,10.15,0,0,0-1.7-.45,3.84,3.84,0,0,0,1-.75,2.55,2.55,0,0,0,.9-1.27.74.74,0,0,0-.36-.83,1.43,1.43,0,0,0-1,.16c-.41.19-.78.44-1.19.61s-1,.36-1.44.56a3.37,3.37,0,0,0-2.11,1.7A6.89,6.89,0,0,0,88,124.6a6.4,6.4,0,0,1-1.06-.25l-.11.15a2.46,2.46,0,0,1,.17.63,5.91,5.91,0,0,1,.14,1.11c0,.71-.12,1.41-.18,2.12a8.48,8.48,0,0,1-1.28,4.31c0,.06,0,.11.09.06a16,16,0,0,1,2.18-.11,3.06,3.06,0,0,1,1.16.17c.3.13.56.33.85.47a16.45,16.45,0,0,0,3.93,1.45A13.72,13.72,0,0,0,96,135a4.15,4.15,0,0,0,1.49-.11.8.8,0,0,0,.64-.76.37.37,0,0,0-.19-.32H98c.6,0,1.57-.07,1.9-.69.41-.8-.67-1.19-1.22-1.39l-.23-.08.11,0a2.87,2.87,0,0,0,1.13-.05C100.2,131.47,100.76,131,100.52,130.43Zm-.31.68a1.56,1.56,0,0,1-1,.42,3.52,3.52,0,0,1-1-.06c-.29-.05-.56-.15-.84-.18a17.13,17.13,0,0,0-2.13-.57c-.07,0-.09.07,0,.09.86.35,1.78.52,2.66.85.46.17,2.58.75,1.7,1.52a2.52,2.52,0,0,1-2.12.39c-.94-.14-1.85-.42-2.78-.59,0,0,0,0,0,0a22.39,22.39,0,0,0,2.89.77c.21.1.48.23.37.51a.74.74,0,0,1-.58.47,5,5,0,0,1-1.49.07,13.71,13.71,0,0,1-3.69-.77c-.57-.21-1.11-.46-1.67-.7a7.69,7.69,0,0,1-.9-.47,2,2,0,0,0-.58-.27,10.21,10.21,0,0,0-3.17,0,8.94,8.94,0,0,0,1.28-4.53,10.39,10.39,0,0,0,.13-2.36,8.59,8.59,0,0,0-.2-1c0-.07,0-.13,0-.18.35.11,1.75.22,2.19.35,0,0,0-.06,0-.09.83-1.5,2.64-1.64,4-2.42a5,5,0,0,1,1-.48.91.91,0,0,1,.54,0,.61.61,0,0,1,.3.76,2.91,2.91,0,0,1-.92,1.17,3.33,3.33,0,0,1-1.21.82.05.05,0,0,0,0,.1l.2,0a21.84,21.84,0,0,1,3.5,1.1c.58.22,1.15.47,1.73.68a3.68,3.68,0,0,1,1.56.86c.21.24.43.57.23.89a.82.82,0,0,1-.47.37,2.58,2.58,0,0,1-1.14.05c-.87-.13-1.74-.3-2.62-.42l-.33-.12c-.06,0-.1.07,0,.09a16.37,16.37,0,0,0,2.56,1,4.15,4.15,0,0,1,2,1C100.34,130.43,100.5,130.81,100.21,131.11Z"/><path class="cls-6" d="M75.07,130.78a21,21,0,0,1-2.84-1.44,2,2,0,0,0,1.19-1c.84-1.5,1.4-3.87,3.42-4.24s5.5,1.14,5.5,3.09c0,1.61-.38,4.51-1.34,5.22A24,24,0,0,1,75.07,130.78Z"/><g class="cls-7"><path class="cls-8" d="M74.47,130.51a9.2,9.2,0,0,0,2.72-3.95c.19-.44.44-.42.62-.34s.11.78-.94,2.73a8.8,8.8,0,0,1-1.4,2l-.4-.16Z"/><path class="cls-8" d="M74.58,128.16A14.68,14.68,0,0,0,76,125.8c.23-.42.81-.45.48.3a13.88,13.88,0,0,1-2.72,4.07c-.3-.14-.57-.28-.82-.42A4.15,4.15,0,0,0,74.58,128.16Z"/><path class="cls-8" d="M79.62,129.46c.66-1.77.51-2.29.88-2.33s.33.82-.11,2.46a11.7,11.7,0,0,1-1,2.5l-1-.24A9.15,9.15,0,0,0,79.62,129.46Z"/><path class="cls-8" d="M79.91,132.2a7.32,7.32,0,0,0,1-2.19c.49-1.64.4-2.29.7-2.33s.31.69-.06,2.45a9.21,9.21,0,0,1-.87,2.2Z"/><path class="cls-8" d="M76.37,131.27A7.5,7.5,0,0,0,77.93,129c.62-1.32.81-2.44,1.21-2.32s.2,1.08-.51,2.68a10.11,10.11,0,0,1-1.29,2.27Z"/></g><path class="cls-12" d="M79.75,122.79a11.35,11.35,0,0,1-4.19-2.35s0,0,0,0a15.09,15.09,0,0,0,2,1.3c.7.36,1.48.59,2.15,1C79.83,122.74,79.8,122.81,79.75,122.79Z"/><path class="cls-13" d="M83.77,133a1.13,1.13,0,0,0,1.24.74c.95-.12,2.09-2.1,2.55-5.14s.08-5.49-1.77-4.25a7.43,7.43,0,0,1,0,4.69C85.05,131.89,84.18,133,83.77,133Z"/><path class="cls-9" d="M84.68,132.67c-.56,0-1.11,0-1.66-.08a4.75,4.75,0,0,0,.48-.79,4.13,4.13,0,0,0,.45-3,2.43,2.43,0,0,0-1.84-1.27c-1.36-.36-2.7-.77-4-1.25A14.7,14.7,0,0,0,74,125a1.6,1.6,0,0,0-1.58.65,4.09,4.09,0,0,0-.1,2.74,7.81,7.81,0,0,0,.33,1,.13.13,0,0,0,.07.17h0c-.53-.31-1-.6-1.31-.85a5.67,5.67,0,0,1-1.18-1.11,6.45,6.45,0,0,1,0-5.7c1.86-3.8,4.49-3.8,6-3a3.3,3.3,0,0,1,1.48,2.78c.16.09.32.18.49.26a36.45,36.45,0,0,0,8,2.84C87.34,128.32,84.68,132.67,84.68,132.67Z"/><path class="cls-9" d="M84.68,132.67l-.6,0a14.61,14.61,0,0,0,.55-3.11,5.59,5.59,0,0,0-.62-3.32c-.77-1.21-2.22-1.73-3.49-2.28a33.49,33.49,0,0,1-3.36-1.47c-.6-.34-1.18-.72-1.81-1-.93-.44-2.15-.8-3,0-2.15,2.1-.58,5.17-.18,7.82q-.47-.28-.81-.54a5.67,5.67,0,0,1-1.18-1.11,6.45,6.45,0,0,1,0-5.7c1.86-3.8,4.49-3.8,6-3a3.3,3.3,0,0,1,1.48,2.78c.16.09.32.18.49.26a36.45,36.45,0,0,0,8,2.84C87.34,128.32,84.68,132.67,84.68,132.67Z"/><path class="cls-9" d="M75.62,120.36a.74.74,0,0,0-.15-.39,1.42,1.42,0,0,0-1.64-.38,5.22,5.22,0,0,0-3,3,7,7,0,0,0,.13,5.78,4,4,0,0,1-.72-.74,6.45,6.45,0,0,1,0-5.7c1.86-3.8,4.49-3.8,6-3a3.16,3.16,0,0,1,1.47,2.6A8,8,0,0,1,75.62,120.36Z"/><path class="cls-13" d="M82.28,132.57a1.28,1.28,0,0,0,1,.89c.82.11,2.38-.94,2.88-5s-.07-5.69-2-4.15c0,0,1,.09,1,1.38S84.13,133.29,82.28,132.57Z"/><path class="cls-14" d="M96.9,134.67a9.29,9.29,0,0,1-3.93-.58,10.36,10.36,0,0,1-3.54-1.93c-.05,0,0-.1.06-.08a25.06,25.06,0,0,0,3.62,1.54c1.24.42,2.55.49,3.79.86A.1.1,0,0,1,96.9,134.67Z"/><path class="cls-14" d="M89.1,132.25a4.26,4.26,0,0,1-1.88,0,0,0,0,0,1,0-.05c.31,0,.61,0,.92,0a6,6,0,0,1,1,0A0,0,0,0,1,89.1,132.25Z"/><path class="cls-14" d="M98.8,133.34a6.85,6.85,0,0,1-2.87-.28,10.43,10.43,0,0,1-3.23-1.49s0-.08,0-.06c.91.4,1.82.78,2.76,1.1a14.86,14.86,0,0,0,3.3.6A.07.07,0,0,1,98.8,133.34Z"/><path class="cls-14" d="M98.43,131.29a10.18,10.18,0,0,1-4.72-1.65s0-.06,0,0c.78.3,1.55.63,2.34.91s1.6.4,2.38.65A.07.07,0,0,1,98.43,131.29Z"/><path class="cls-14" d="M99.18,128.32a6.43,6.43,0,0,1-1.75-.08c-.65-.1-1.25-.38-1.9-.48,0,0,0,0,0,0,1.22.08,2.41.39,3.63.45C99.24,128.17,99.27,128.31,99.18,128.32Z"/><path class="cls-14" d="M81.55,131.94A13.86,13.86,0,0,1,73.07,129c0-.05,0-.13.06-.09a24.48,24.48,0,0,0,8.45,2.84C81.67,131.8,81.64,131.94,81.55,131.94Z"/><path class="cls-15" d="M83.39,132.62a3,3,0,0,0,.6-.42,1.59,1.59,0,0,0,.13-.13A1.39,1.39,0,0,1,83.39,132.62Z"/><path class="cls-15" d="M85.07,131.56c-.34.76-.94,1.85-1.95,1.58A.17.17,0,0,1,83,133c1.38.13,2-1.9,2.3-3a16.81,16.81,0,0,0,.39-2.64.49.49,0,0,0,0-.12c.08-.12.14.08.14.13a13.45,13.45,0,0,1-.15,2.21A8.19,8.19,0,0,1,85.07,131.56Z"/><path class="cls-15" d="M86.31,132c-.33.71-.76,1.52-1.64,1.48h0c.76-.2,1.27-1.31,1.54-1.93a13.33,13.33,0,0,0,1.1-3.5v.21A11.5,11.5,0,0,1,86.31,132Z"/><path class="cls-14" d="M74.33,118.24c-2-.24-4,2-4.77,3.87-.41.93-.09,0-.07,0,1.71-4.61,5-3.82,4.55-3.9Z"/><path class="cls-41" d="M72.29,105.5c.17-.78-.05-1.48-.48-1.57s-.91.46-1.08,1.23,0,1.48.48,1.57S72.12,106.27,72.29,105.5Z"/><path class="cls-41" d="M71.21,106.73a2.33,2.33,0,0,0,.61.08,2,2,0,0,0,.55-2.74,4.71,4.71,0,0,0-.56-.14Z"/><path class="cls-41" d="M71.25,108.23c.06-.24,0-.47-.15-.5s-.29.15-.35.4,0,.47.16.5S71.2,108.48,71.25,108.23Z"/><path class="cls-41" d="M70.91,108.63a.68.68,0,0,0,.19,0,.54.54,0,0,0,.27-.42.52.52,0,0,0-.09-.45l-.18,0Z"/><path class="cls-5" d="M84.93,90.45c-6.67-.87-15.86,1-17.17,11.5-.2,1.6,0,7.37,2,10.06l-.75,1.24a17.63,17.63,0,0,0,11.6,8.32c7.67,1.74,10.9-1.89,10.9-1.89L91,118.8s5.94-2,7.28-11S93.68,91.6,84.93,90.45Z"/><path class="cls-9" d="M69.8,112l-.75,1.24a17.63,17.63,0,0,0,11.6,8.32c7.67,1.74,10.9-1.89,10.9-1.89L91,118.8s5.94-2,7.28-11a14.55,14.55,0,0,0-6.91-15.09c1.25,1.15,2.72,2.1,3.25,3.8a.07.07,0,0,1-.09.09,32.48,32.48,0,0,0-14.29,1.2,28.8,28.8,0,0,1-6.39,1.49c-1.19.08-3.18.12-3-1.56a6.68,6.68,0,0,1,.6-1.9A7.39,7.39,0,0,1,72.57,94a10.11,10.11,0,0,1,3.61-2.74l.49-.23c-4.34,1.31-8.11,4.5-8.91,11C67.56,103.55,67.76,109.32,69.8,112Zm16.39-3.41a25.89,25.89,0,0,1,.88-4.18A22.57,22.57,0,0,1,88.32,101a5.68,5.68,0,0,1,1.62-2.13,4,4,0,0,1,2.49-.76.08.08,0,0,1,.09-.09,5.57,5.57,0,0,1,3.34,1.81,6.58,6.58,0,0,1,1.36,3.29,17.38,17.38,0,0,1-.89,7.73,10.26,10.26,0,0,1-2.56,4.39,7.59,7.59,0,0,1-4.31,2.28,2.89,2.89,0,0,1-1.88-.4,2.81,2.81,0,0,1-1-1.82A19,19,0,0,1,86.19,108.6Z"/><path class="cls-9" d="M69.8,112l-.75,1.24a17.63,17.63,0,0,0,11.6,8.32c7.67,1.74,10.9-1.89,10.9-1.89L91,118.8a7.69,7.69,0,0,0,2-1.12,16,16,0,0,1-7.69-.11,13.8,13.8,0,0,1-4.45-1.84c-1.4-.92-1.55-2.48-1.63-4a39.41,39.41,0,0,1,.5-9.14,7.7,7.7,0,0,1,.51-1.88,3,3,0,0,1,1-1.13c.82-.65,1.82-1,2.65-1.66a6.1,6.1,0,0,0-2.39.36,3.22,3.22,0,0,0-1.91,1.24,8.63,8.63,0,0,0-1.5,2.69,19.81,19.81,0,0,0-1,3.65,38,38,0,0,0-.73,5.71c0,2.52.13,2.81-.15,2.62-.9-.64-1-2.36-1-2.77.26-2.72.7-4.92,1-7.06a2.49,2.49,0,0,0-.71-2.36,3.21,3.21,0,0,0-2.74-.38c-.93.19-.45-.93-1.37-.76-2.09.37-2.34,3.24-3.09,3.71,0,0-.1,0-.1,0a15.07,15.07,0,0,1,.94-6.48c.41-1.07.87-2.12,1.37-3.16A13.29,13.29,0,0,0,67.76,102C67.56,103.55,67.76,109.32,69.8,112Zm1.27,1.5a17.31,17.31,0,0,0,4.08,3.23A27.05,27.05,0,0,0,82,119.35s0,.14-.62.25a10.89,10.89,0,0,1-6.81-1.72,11.32,11.32,0,0,1-3.11-2.82A2.23,2.23,0,0,1,71.07,113.51Z"/><path class="cls-9" d="M69.8,112l-.75,1.24a17.63,17.63,0,0,0,11.6,8.32c7.67,1.74,10.9-1.89,10.9-1.89L91,118.8a4.7,4.7,0,0,0,.55-.24c-2.62-.18-5.28,0-7.85-.59a7.64,7.64,0,0,1-3.58-1.87,9.1,9.1,0,0,1-2.31-4.68,14.71,14.71,0,0,1-.24-1.62,7.87,7.87,0,0,0-.46,2.88,16.11,16.11,0,0,0,.19,2.84s.15.78-.71.37a14.51,14.51,0,0,1-3.34-2,26.84,26.84,0,0,1-3.56-3.26,16.11,16.11,0,0,1-1.3-1.66v0A9.26,9.26,0,0,0,69.8,112Zm.68.87c.36-.08.79.33,1,.53a13.31,13.31,0,0,1,1,1,28.77,28.77,0,0,0,4.25,2.74,29.89,29.89,0,0,0,6.77,2.18l1.66.37a2.29,2.29,0,0,1,1,.41c.52.44-.55.82-.81.9-2.15.65-4.45.07-6.52-.6a17.31,17.31,0,0,1-5.42-2.78,15.88,15.88,0,0,1-2.57-2.48,3.27,3.27,0,0,1-.76-1.42C70.1,113.43,70.15,113,70.48,112.88Z"/><path class="cls-53" d="M81.41,99.76a19.79,19.79,0,0,1,11.4-1.92,9.49,9.49,0,0,1,1.63,4.24,7.12,7.12,0,0,1-.56,4.4,5.53,5.53,0,0,0-.15,2.32c.08,1,1,3.25-.52,5.93-1.08,1.9-3.66,2.77-5.63,3.1-3-.18-6.42-.7-7.92-2C79.66,115.78,77.75,107.3,81.41,99.76Z"/><path class="cls-54" d="M81.41,99.76a19.79,19.79,0,0,1,11.4-1.92,9.49,9.49,0,0,1,1.63,4.24,12.44,12.44,0,0,1,.11,1.57A11.29,11.29,0,0,0,93,102a.08.08,0,0,0-.12.09,10.66,10.66,0,0,1,.59,1.4c.09.28.39,1.19-.23,1a11.23,11.23,0,0,1-2.43-1.63,14.48,14.48,0,0,0-2.7-1.27c-.08,0-.13.1,0,.14.41.24,2.24,2.27,1.27,2.58a2.46,2.46,0,0,1-1.34-.12,10,10,0,0,1-1.43-.6,21,21,0,0,0-2.48-1.21.07.07,0,0,0-.08.11c.15.22.32.42.47.65,0,.07.51.84.22.84a2.76,2.76,0,0,1-1.41-.74c-.06,0-.12,0-.11.09a8.11,8.11,0,0,1,.19,1.47,1.19,1.19,0,0,1-.14.72c-.18.24-.49,0-.69-.07a.07.07,0,0,0-.1,0,20.64,20.64,0,0,0-1.74,3.72c-.13.48-.47.34-.75.59a.7.7,0,0,0-.14.37,4,4,0,0,0,.13,1.37,7.19,7.19,0,0,0,1.83,3.54,8.38,8.38,0,0,0,3.48,2,14.29,14.29,0,0,0,3.26.58l-.92.18c-3-.18-6.42-.7-7.92-2C79.66,115.78,77.75,107.3,81.41,99.76Z"/><path class="cls-54" d="M90.36,113.29a2.07,2.07,0,0,1,.42-.14,2.73,2.73,0,0,0,.89-.24c.13-.09.27-.32.17-.47-.22-.36-.86-.11-1.28,0a1.44,1.44,0,0,1,.44-.28s.08-.08,0-.12a1.34,1.34,0,0,1-.51-1.08,4.37,4.37,0,0,1,.23-1.13,12.19,12.19,0,0,1,.84-2.23A3.36,3.36,0,0,1,92.91,106a1.6,1.6,0,0,1,1.16-.08,4.76,4.76,0,0,0-.19.57,5.53,5.53,0,0,0-.15,2.32c0,.35.15.84.24,1.44a2.65,2.65,0,0,1-.64,1.57,1,1,0,0,1-1.19.27,1.25,1.25,0,0,1-.52-.71,5.64,5.64,0,0,1,0-1.92c.3-1.06-.28-.45-.54.43a1.91,1.91,0,0,0,.16,1.84c.32.31,1,.48.79,1.06a2.19,2.19,0,0,1-.55.83,1.08,1.08,0,0,1-.56.1S90.12,113.43,90.36,113.29Z"/><path class="cls-54" d="M93.76,107a.38.38,0,0,0-.12-.09c-.61-.35-1.37.44-1.74.85a7.56,7.56,0,0,0-.84,1.1,7.19,7.19,0,0,1,.53-1.28A3.36,3.36,0,0,1,92.91,106a1.6,1.6,0,0,1,1.16-.08,4.76,4.76,0,0,0-.19.57C93.83,106.68,93.8,106.84,93.76,107Z"/><path class="cls-54" d="M86.56,105.79a5.09,5.09,0,0,0-1.7.45,4.79,4.79,0,0,0-1.55,1.28A2.89,2.89,0,0,1,84.54,106a4.51,4.51,0,0,1,1.43-.61c1-.24,2.49-.5,3.24.36,0,0,.06,0,.08,0a2.81,2.81,0,0,1,.49,1.14,3.26,3.26,0,0,1,.06,1.39,4.14,4.14,0,0,0-.65-1.55A3,3,0,0,0,86.56,105.79Z"/><path class="cls-54" d="M84.19,110.31c.31.09-.09-.35.25-1.44.46-1.44,1.93-3,3.6-2.15a1.74,1.74,0,0,1,.8,1A3.43,3.43,0,0,1,88,111a2.1,2.1,0,0,1-1.92.75c-.44,0-.14.52-.3.82a1.73,1.73,0,0,0-.29-.94,1.88,1.88,0,0,0-.6-.77,2.34,2.34,0,0,0-1.69-.49A1.34,1.34,0,0,1,84.19,110.31Z"/><path class="cls-54" d="M81.41,99.76a19.79,19.79,0,0,1,11.4-1.92,9.49,9.49,0,0,1,1.63,4.24,11.42,11.42,0,0,1,.11,1.8,7,7,0,0,0-.56-.73c0-.06-.14,0-.12.07a3.71,3.71,0,0,1,.22,1.23c0,.21,0,.54-.23.65s-.63,0-.87-.19a15.58,15.58,0,0,1-1.76-1.49,11.66,11.66,0,0,0-1.9-1.38c-.06,0-.15,0-.11.1.3.4,1.52,2.24.49,2.41a4.93,4.93,0,0,1-2.54-.59c-.77-.34-1.51-.74-2.27-1.1-.07,0-.15,0-.11.1s.21.32.3.48a2.09,2.09,0,0,1,.19.4c.08.15,0,.24-.23.27s-.54-.28-.84-.36a.08.08,0,0,0-.1.07,5.46,5.46,0,0,1-.07,1.76c-.25.6-.88.82-1.26.19,0,0-.06-.22-.09-.18s-1,2.52-1.23,3c-.12.26-.23.51-.36.76a1.58,1.58,0,0,1-.54.55.69.69,0,0,0-.26.59c0,3.88,2.87,5.91,6.26,6.43a31.13,31.13,0,0,0,3.62.21,11.82,11.82,0,0,1-2.6.72c-3-.18-6.42-.7-7.92-2C79.66,115.78,77.75,107.3,81.41,99.76Z"/><path class="cls-55" d="M84.71,110.72a2,2,0,0,1,0-1.72c.78-2.06,2.13-2.45,3-2.16a1.56,1.56,0,0,1,1,1.35,3.59,3.59,0,0,1-1.57,3.27,1.81,1.81,0,0,1-1.77-.11A2,2,0,0,0,84.71,110.72Z"/><path class="cls-56" d="M84.71,110.72a2,2,0,0,1,.62.63,1.81,1.81,0,0,0,1.77.11,3.59,3.59,0,0,0,1.57-3.27,1.56,1.56,0,0,0-1-1.35c-.88-.29-2.23.1-3,2.16A2,2,0,0,0,84.71,110.72Zm.17-1.65c.31-.82,1-2,2-2.06s1.34,1,1.28,1.81a2.86,2.86,0,0,1-1.68,2.46,1.6,1.6,0,0,1-1.36-.47A1.56,1.56,0,0,1,84.88,109.07Z"/><path class="cls-5" d="M76.18,100.73a9.66,9.66,0,0,0-4-.15c-1.09.27-2.92,2.13-3.4,5.08s.78,4.56,2,4.93,2.28,1.12,3.29.71.78-2.24,1.75-5.68S77.19,101,76.18,100.73Z"/><path class="cls-9" d="M68.83,105.66a8.15,8.15,0,0,1,1.36-3.39c-.14.34-.26.68-.37,1s-.32,1.15,0,1.56a2.11,2.11,0,0,0,1.16.67,16.27,16.27,0,0,0,2,.42,3.81,3.81,0,0,0,2-.1,2.76,2.76,0,0,0,1.3-1.37c-.09.35-.2.73-.32,1.14-1,3.44-.75,5.27-1.75,5.68s-2-.34-3.29-.71S68.34,108.61,68.83,105.66Z"/><path class="cls-51" d="M73.66,110.26a48.55,48.55,0,0,1,.86-5.7c.49-2.63,1.44-3.71,1.87-3.66a.5.5,0,0,1,.29.19c.34.59,0,1.89-.76,4.53-1,3.44-.75,5.27-1.75,5.68l-.12,0C73.76,111.24,73.67,110.71,73.66,110.26Z"/><path class="cls-51" d="M73,110a34.6,34.6,0,0,1,1.1-6.44c.47-1.58,1.09-2.57,1.67-2.8a1.66,1.66,0,0,1,.21-.06l.23.06a.83.83,0,0,1,.5.36.5.5,0,0,0-.29-.19c-.43-.05-1.38,1-1.87,3.66a48.55,48.55,0,0,0-.86,5.7c0,.45.1,1,.39,1.08a1.77,1.77,0,0,1-.6.08C73.12,111.19,73,110.86,73,110Z"/><path class="cls-13" d="M97.8,99.43s-.37-1.31-.78-1.57a19.34,19.34,0,0,0-7.92-1.2,20.47,20.47,0,0,0-8.77,2.69c-.6.37-1.94,3.62-2.39,5.94s-1.08,9.41.33,11.72c.41.67,1,.94,2.62,1.31s8.32,2.31,12.1-.45c0,0-10.38.56-13.33-2.09,0,0-1.91-8.48,1.75-16C81.41,99.76,89.55,95.24,97.8,99.43Z"/><path class="cls-57" d="M84,106.4h0v0a5.37,5.37,0,0,1,3.75-1.68,1.89,1.89,0,0,1,1.58.47,2.3,2.3,0,0,1,.43,1.78s0,0,0,0v0a3.07,3.07,0,0,0-2.68-1.36,5.76,5.76,0,0,0-1.59.27,4.65,4.65,0,0,0-1.43.61S84,106.42,84,106.4Z"/><path class="cls-58" d="M84.05,106.44a4.65,4.65,0,0,1,1.43-.61,5.76,5.76,0,0,1,1.59-.27,3.07,3.07,0,0,1,2.68,1.36v0s0,0,0,0a2.3,2.3,0,0,0-.43-1.78,1.89,1.89,0,0,0-1.58-.47A5.37,5.37,0,0,0,84,106.37v0h0S84,106.46,84.05,106.44Zm1.26-.73a3.46,3.46,0,0,0-.7.26,6.31,6.31,0,0,1,3-1.11,1.72,1.72,0,0,1,1.7.54,3,3,0,0,1,.35,1.27,3,3,0,0,0-2.5-1.27A5.81,5.81,0,0,0,85.31,105.71Z"/><path class="cls-57" d="M92.29,106.2a2.1,2.1,0,0,1,1.41-.91c1-.11.23,1.93,0,2.27h0l0,0s0,0,0,0,.25-.69,0-.72a4.29,4.29,0,0,0-.62,0,2.21,2.21,0,0,0-1.38.63,2.25,2.25,0,0,1-.12.21A7.43,7.43,0,0,1,92.29,106.2Z"/><path class="cls-59" d="M84,106.4h0v0a2.85,2.85,0,0,1,.45-.47h0a8.13,8.13,0,0,0,1-.34,9.2,9.2,0,0,1,1.46-.29,2.73,2.73,0,0,1,2.39.65.08.08,0,0,0,.13,0,5.73,5.73,0,0,0-.13-.7,2.36,2.36,0,0,1,.41,1.77s0,0,0,0v0a3.07,3.07,0,0,0-2.68-1.36,5.76,5.76,0,0,0-1.59.27,4.65,4.65,0,0,0-1.43.61S84,106.42,84,106.4Z"/><path class="cls-59" d="M92.29,106.2a2.74,2.74,0,0,1,.7-.66,2.09,2.09,0,0,0-.52.94c0,.06,0,.13.1.09a2.5,2.5,0,0,1,.82-.4c.17,0,.42-.08.5.13l.09.28a.08.08,0,0,0,.1,0,3.94,3.94,0,0,1-.38.93h0l0,0s0,0,0,0,.25-.69,0-.72a4.29,4.29,0,0,0-.62,0,2.21,2.21,0,0,0-1.38.63,2.25,2.25,0,0,1-.12.21A7.43,7.43,0,0,1,92.29,106.2Z"/><path class="cls-58" d="M91.52,107.74a2.25,2.25,0,0,0,.12-.21A2.21,2.21,0,0,1,93,106.9a4.29,4.29,0,0,1,.62,0c.25,0,0,.58,0,.72s0,0,0,0l0,0h0c.23-.34,1-2.38,0-2.27a2.1,2.1,0,0,0-1.41.91A7.43,7.43,0,0,0,91.52,107.74Zm.34-.6c.2-.33.42-.65.65-1h0a2.05,2.05,0,0,1,.95-.65c.79-.26.61.65.4,1.36,0,0,0,0,0,0-.13-.18-.37-.14-.57-.13A2.55,2.55,0,0,0,91.86,107.14Z"/><path class="cls-12" d="M87.58,106.71c1.28.31,1.5,2.06,1,3.07,0,0-.08,0-.07,0,.34-1,.3-2.5-.94-2.89a2.05,2.05,0,0,0-1.8.56,3.82,3.82,0,0,0-1.12,1.79s0,0,0,0C84.87,107.89,86.06,106.33,87.58,106.71Z"/><path class="cls-55" d="M93.2,107.93c-.5-.05-1.35.72-1.57,2.49s1.12,1.66,1.27,1.59.94-.39,1-2.25C93.86,109.51,93.75,108,93.2,107.93Z"/><path class="cls-56" d="M91.63,110.42c.22-1.77,1.07-2.54,1.57-2.49a.39.39,0,0,1,.26.16c-.27,0-.68.42-.78.61-.38.76-.91,2-.44,2.79.37.64,1.16-.1,1.37-.7a3.86,3.86,0,0,0,.24-1.13.38.38,0,0,1,0,.1c0,1.86-.81,2.18-1,2.25S91.4,112.18,91.63,110.42Z"/><path class="cls-12" d="M85.24,111.22l.1.07a2,2,0,0,0,1.79.13s0,0,0,0a1.93,1.93,0,0,1-1.72,0A1.67,1.67,0,0,0,85.24,111.22Z"/><path class="cls-12" d="M84.91,110.86a1.53,1.53,0,0,0-.3-.19,1.7,1.7,0,0,1-.09-1.25,0,0,0,0,1,0,0A2.38,2.38,0,0,0,84.91,110.86Z"/><path class="cls-12" d="M92,111.82a1.2,1.2,0,0,0,1.15,0,1.53,1.53,0,0,0,.68-.88,0,0,0,0,1,0,0,1.64,1.64,0,0,1-.72,1,1,1,0,0,1-1.15-.15S92,111.81,92,111.82Z"/><path class="cls-60" d="M85,108.72c-.42.83-.31,1.73.24,2s1.35-.17,1.78-1,.31-1.74-.25-2S85.46,107.88,85,108.72Z"/><path d="M85.42,108.82c-.24.48-.19,1,.13,1.15s.76-.1,1-.57.19-1-.12-1.16S85.66,108.34,85.42,108.82Z"/><path class="cls-61" d="M85,108.72c.42-.84,1.22-1.28,1.77-1s.67,1.17.26,2a1.58,1.58,0,0,0,0-1.25c-.37-.65-1.2.1-1.49.46s-.72,1.53,0,1.73a1.28,1.28,0,0,0,.89-.14,1.1,1.1,0,0,1-1.16.23C84.73,110.45,84.62,109.55,85,108.72Z"/><path class="cls-26" d="M85.58,108.05a.52.52,0,0,0,0,.73.53.53,0,0,0,.7-.22.55.55,0,0,0,0-.74A.54.54,0,0,0,85.58,108.05Z"/><path class="cls-60" d="M91.72,110c0,.84.32,1.53.74,1.54s.77-.66.79-1.5-.32-1.53-.74-1.54S91.74,109.2,91.72,110Z"/><path d="M91.94,109.91c0,.55.19,1,.44,1s.47-.43.48-1-.19-1-.44-1S92,109.36,91.94,109.91Z"/><path class="cls-61" d="M92.51,108.54c.27,0,.5.29.63.72a.46.46,0,0,0-.38-.25c-.36,0-.53.67-.56.93-.06.46,0,1.26.66,1.19a.36.36,0,0,0,.18-.07c-.14.32-.35.52-.58.52-.42,0-.75-.7-.74-1.54S92.09,108.53,92.51,108.54Z"/><path class="cls-26" d="M92,109.33c-.07.28,0,.54.14.58s.32-.16.38-.44,0-.55-.14-.59S92.06,109,92,109.33Z"/><path class="cls-57" d="M78.27,110.39c0-.55,0-1.14.08-1.78.3-5,2.05-8.62,2.58-8.92a21.76,21.76,0,0,1,8.17-2.58,26.31,26.31,0,0,1,3.09.07l.27,0a12.36,12.36,0,0,1,2,2.66,9.77,9.77,0,0,1,.78,1.89,13.3,13.3,0,0,1,.31,1.89,1.58,1.58,0,0,1,0,.94c-.13.22-.36,0-.43-.16-.24-.35-.35-.78-.57-1.15A5.79,5.79,0,0,0,93.33,102a5.22,5.22,0,0,1,.53,1.28c.07.31.45,1.61-.18,1.6-.33,0-.69-.47-.89-.68A8.19,8.19,0,0,0,91.47,103c-.48-.31-1-.62-1.46-.89s-.86-.3-1.27-.47a4.78,4.78,0,0,1,.76,1.77c.08.46-.24.67-.66.67a5.87,5.87,0,0,1-2.06-.67,11.53,11.53,0,0,1-2.3-1.09c.11.32.23.63.33,1,0,.14.16.41,0,.54-.28.29-.79-.33-1-.58a5.07,5.07,0,0,1,0,1.29,2.45,2.45,0,0,1-.34,1.18c-.18.22-.37.15-.52-.05a1.53,1.53,0,0,1-.28-.78.06.06,0,0,1,0,0,3.88,3.88,0,0,1-.21.63c-.16.4-.35.79-.52,1.19s-.42.9-.57,1.37a12,12,0,0,1-.37,1.16c-.17.37-.48.62-.78.22a2.15,2.15,0,0,1-.28-.93c0-.24-.07-.49-.09-.74,0,.18-.13.36-.19.53-.13.34-.25.66-.41,1a3.46,3.46,0,0,1-1,1.31Z"/><path class="cls-62" d="M81.7,102.08a4.16,4.16,0,0,1,.81-1.77,1.13,1.13,0,0,1,.45-.23.18.18,0,0,0,.1-.09c.12-.24.14-.1.3,0s.22,0,.3-.08.19-.25.43-.17.24.09.36.13.63.16.72-.09-.26-.71.14-.67a3.09,3.09,0,0,0,1.09.11.08.08,0,0,0,0-.09,1.3,1.3,0,0,0-.41-.46,2.31,2.31,0,0,1,1.32.13,5.76,5.76,0,0,0,1,.22c.23,0,.56.06.65-.21s-.1-.49-.21-.69c.85.08,1.57.67,2.44.72.47,0,.37-.31.21-.6.76-.07,1.34.66,2,.81.26,0,.29-.12.25-.32a10.48,10.48,0,0,1,.74,1.15,9.77,9.77,0,0,1,.78,1.89,12.34,12.34,0,0,1,.3,1.82.06.06,0,0,0-.06,0,5.8,5.8,0,0,0-1.88-3.6c-.41-.4-1-1.06-1.58-1.15a.91.91,0,0,0-.62.14c-.41.22-.88-.18-1.27-.32-.06,0-.13.07-.07.12a10.94,10.94,0,0,1,3.11,3.9,10.05,10.05,0,0,0-.91-.82,17,17,0,0,0-1.74-1.29,10.73,10.73,0,0,0-1.87-1c-.31-.13-.63-.23-.94-.36A2.09,2.09,0,0,0,87,99a.07.07,0,0,0-.07.09c.1.5-.36.31-.65.24a.77.77,0,0,0-.54,0s0,.08,0,.12c.49.53,1.09.94,1.56,1.49a15.29,15.29,0,0,1,1.22,1.68,14,14,0,0,1-2-1.32,7.14,7.14,0,0,0-2.07-1.23c-.41-.11-.62.09-.59.51a8.29,8.29,0,0,0,.51,1.94c-.25-.43-.46-.88-.69-1.32,0-.07-.13,0-.14,0a13.22,13.22,0,0,0,0,3.08,3.86,3.86,0,0,1-.41-1.46,8.14,8.14,0,0,0-.2-1.77.07.07,0,0,0-.12,0,2.33,2.33,0,0,0-.64,1c-.19.49-.37,1-.58,1.45l-.27.63A20.4,20.4,0,0,1,81.7,102.08Z"/><path class="cls-59" d="M78.27,110.39c0-.55,0-1.14.08-1.78.3-5,2.05-8.62,2.58-8.92.11-.07.39-.22.8-.42a25.52,25.52,0,0,0-1.31,7.44c0,.34-.15,1,.11,1.31s.63-.59.68-.73c.34-.84.78-1.64,1.07-2.51a20.39,20.39,0,0,0,.6-2.2,7.43,7.43,0,0,0,.16,1.89c0,.13.2.73.45.63s.32-.95.31-1.25c0-.62-.12-1.24-.12-1.86a2.93,2.93,0,0,0,1.11,1.65.08.08,0,0,0,.11,0,.26.26,0,0,1-.06.19c-.28.29-.79-.33-1-.58a5.07,5.07,0,0,1,0,1.29,2.45,2.45,0,0,1-.34,1.18c-.18.22-.37.15-.52-.05a1.53,1.53,0,0,1-.28-.78.06.06,0,0,1,0,0,3.88,3.88,0,0,1-.21.63c-.16.4-.35.79-.52,1.19s-.42.9-.57,1.37a12,12,0,0,1-.37,1.16c-.17.37-.48.62-.78.22a2.15,2.15,0,0,1-.28-.93c0-.24-.07-.49-.09-.74,0,.18-.13.36-.19.53-.13.34-.25.66-.41,1a3.46,3.46,0,0,1-1,1.31Z"/><path class="cls-59" d="M93.33,102l0,.09-.3-.46c-.45-.62-.8-1.29-1.22-1.92a14.62,14.62,0,0,1,2.63,2.92,15,15,0,0,1,1,1.65.48.48,0,0,0,.16.18,1.34,1.34,0,0,1-.07.18c-.13.22-.36,0-.43-.16-.24-.35-.35-.78-.57-1.15A5.79,5.79,0,0,0,93.33,102Z"/><path class="cls-59" d="M87.57,100.17a18.06,18.06,0,0,1,4,2.42,25.81,25.81,0,0,0,2.06,1.7,1.6,1.6,0,0,0,.36.23c0,.18-.14.31-.33.31s-.69-.47-.89-.68A8.19,8.19,0,0,0,91.47,103c-.48-.31-1-.62-1.46-.89a9.59,9.59,0,0,0-1.1-.41A8.05,8.05,0,0,0,87.57,100.17Z"/><path class="cls-59" d="M83.92,100.47a32.4,32.4,0,0,0,2.94,2.27,5.77,5.77,0,0,0,2.34,1.09.75.75,0,0,0,.22,0,.69.69,0,0,1-.58.24,5.87,5.87,0,0,1-2.06-.67,16,16,0,0,1-2-.91A19.34,19.34,0,0,1,83.92,100.47Z"/><path class="cls-59" d="M78.27,110.39c0-.55,0-1.14.08-1.78.3-5,2.05-8.62,2.58-8.92a23.88,23.88,0,0,1,6.75-2.43,21.55,21.55,0,0,0-2.1,1c-.51.29-1,.6-1.56.85a6.28,6.28,0,0,0-1.1.55A4.08,4.08,0,0,0,81.7,102a8.68,8.68,0,0,0-.73,3c0,.31.22.42.44.16a4.93,4.93,0,0,0,.71-1.24,15.5,15.5,0,0,0,.75-1.71c0,.82.1,2,.52,1.93s.32-.71.3-1c0-.52-.07-1.05-.07-1.58a3.22,3.22,0,0,0,.66,1.42c.25.32.31.26.3.22a17.85,17.85,0,0,1-.74-3.18c.52.35,1,.79,1.47,1.14l.89.65A6.73,6.73,0,0,0,88.39,103c.17,0,.43.06.54-.12s-.07-.67-.22-.91-.51-.7-.78-1a6.07,6.07,0,0,0-.83-.93,4.22,4.22,0,0,1-.56-.47,9.48,9.48,0,0,1,3.75,1.68c.64.41,1.23.87,1.83,1.33.32.24.61.48.92.73a.77.77,0,0,0,.45.2.08.08,0,0,0,.08-.08,3.34,3.34,0,0,0-.83-2c-.55-.83-1.07-1.68-1.62-2.52a6.91,6.91,0,0,1,3.47,3,7.39,7.39,0,0,1,.86,1.8c0,.06.1,0,.13-.06a1.43,1.43,0,0,1-.06.87c-.13.22-.36,0-.43-.16-.24-.35-.35-.78-.57-1.15A5.79,5.79,0,0,0,93.33,102a5.22,5.22,0,0,1,.53,1.28c.07.31.45,1.61-.18,1.6-.33,0-.69-.47-.89-.68A8.19,8.19,0,0,0,91.47,103c-.48-.31-1-.62-1.46-.89s-.86-.3-1.27-.47a4.78,4.78,0,0,1,.76,1.77c.08.46-.24.67-.66.67a5.87,5.87,0,0,1-2.06-.67,11.53,11.53,0,0,1-2.3-1.09c.11.32.23.63.33,1,0,.14.16.41,0,.54-.28.29-.79-.33-1-.58a5.07,5.07,0,0,1,0,1.29,2.45,2.45,0,0,1-.34,1.18c-.18.22-.37.15-.52-.05a1.53,1.53,0,0,1-.28-.78.06.06,0,0,1,0,0,3.88,3.88,0,0,1-.21.63c-.16.4-.35.79-.52,1.19s-.42.9-.57,1.37a12,12,0,0,1-.37,1.16c-.17.37-.48.62-.78.22a2.15,2.15,0,0,1-.28-.93c0-.24-.07-.49-.09-.74,0,.18-.13.36-.19.53-.13.34-.25.66-.41,1a3.46,3.46,0,0,1-1,1.31Z"/><path class="cls-58" d="M79.2,109.24a6.83,6.83,0,0,0,.68-1.76h0v0s0,0,0,0h0l0-.11,0,0c.1.59.12,1.18.26,1.76a1.18,1.18,0,0,0,.19.41c.23.3.44-.06.52-.22a5.56,5.56,0,0,0,.34-1.07c.4-1.31,1.23-2.48,1.48-3.83,0,0,0,0,0,0s0-.08,0-.12a3.77,3.77,0,0,0,.17,1.15c.06.12.2.44.39.29s.18-.4.23-.55a6.19,6.19,0,0,0,.09-2.35s0,0,0,0a2.71,2.71,0,0,1,.09.41l.46.37a1.84,1.84,0,0,0,.22.17c.37.25.2-.3.19-.33-.14-.44-.26-.89-.36-1.34,0,0,0,0,0,0s.05.15.08.22c1.21.48,2.39,1.09,3.63,1.5.5.17,1.39.41,1.25-.44a8.23,8.23,0,0,0-.74-1.8l0-.06h0s0,0,0,0a.05.05,0,0,1,0,0,7.19,7.19,0,0,1,2.21.94,9.61,9.61,0,0,1,2,1.54,5.1,5.1,0,0,0,.46.47.88.88,0,0,0,.24.19c.32.23.32-.14.32-.26a4.28,4.28,0,0,0-.19-1.18,9.12,9.12,0,0,0-1.24-2.4s0,0,0,0a8,8,0,0,1,.78,1,3.59,3.59,0,0,1,1.69,1.89,3,3,0,0,0,.17.41c0,.08.27.59.35.36a2.44,2.44,0,0,0,0-1A9,9,0,0,0,94.35,100a12.53,12.53,0,0,0-2.16-2.77l.27,0a12.36,12.36,0,0,1,2,2.66,9.77,9.77,0,0,1,.78,1.89,13.3,13.3,0,0,1,.31,1.89,1.58,1.58,0,0,1,0,.94c-.13.22-.36,0-.43-.16-.24-.35-.35-.78-.57-1.15A5.79,5.79,0,0,0,93.33,102a5.22,5.22,0,0,1,.53,1.28c.07.31.45,1.61-.18,1.6-.33,0-.69-.47-.89-.68A8.19,8.19,0,0,0,91.47,103c-.48-.31-1-.62-1.46-.89s-.86-.3-1.27-.47a4.78,4.78,0,0,1,.76,1.77c.08.46-.24.67-.66.67a5.87,5.87,0,0,1-2.06-.67,11.53,11.53,0,0,1-2.3-1.09c.11.32.23.63.33,1,0,.14.16.41,0,.54-.28.29-.79-.33-1-.58a5.07,5.07,0,0,1,0,1.29,2.45,2.45,0,0,1-.34,1.18c-.18.22-.37.15-.52-.05a1.53,1.53,0,0,1-.28-.78.06.06,0,0,1,0,0,3.88,3.88,0,0,1-.21.63c-.16.4-.35.79-.52,1.19s-.42.9-.57,1.37a12,12,0,0,1-.37,1.16c-.17.37-.48.62-.78.22a2.15,2.15,0,0,1-.28-.93c0-.24-.07-.49-.09-.74,0,.18-.13.36-.19.53-.13.34-.25.66-.41,1a3.46,3.46,0,0,1-1,1.31v-.22A3.92,3.92,0,0,0,79.2,109.24Z"/><path class="cls-13" d="M97.65,98.57c-1.36-.91-5-1.61-8.55-1.46a21.76,21.76,0,0,0-8.17,2.58c-.53.3-2.28,3.92-2.58,8.92s.19,7.1.78,7.81,6.14,3,13.71,1.71c.44-.07,2.12-.52,1.56-1.6a19.74,19.74,0,0,1-5.75.78,17.15,17.15,0,0,1-7.2-1.42c-.71-.37-.82-.18-1.23-1.83a20.44,20.44,0,0,1,1.34-13.48c.3-.63.52-.89,2-1.45s9-2.88,14,.82c0,0,.11.22.18.41S99,99.46,97.65,98.57Z"/><path class="cls-12" d="M90.36,112.42a1.54,1.54,0,0,1,.56-.38,1,1,0,0,1-.34-.42.86.86,0,0,1,.22-1,0,0,0,0,1,0,0,.91.91,0,0,0-.08.83.79.79,0,0,0,.61.46.91.91,0,0,1,.58.15c.49.36-.06,1.17-.44,1.37,0,0,0,0,0,0,.3-.26.84-1.06.21-1.26a1.92,1.92,0,0,0-1.29.29S90.34,112.44,90.36,112.42Z"/><path class="cls-63" d="M84.78,115.05a2,2,0,0,0,1.69,1.44c.69,0,1.23-.49,1.75-.86a1.55,1.55,0,0,1,.67-.25,8.09,8.09,0,0,1-1.19-.24,12.34,12.34,0,0,1-1.18-.51,6.13,6.13,0,0,1-2-1.65A3.78,3.78,0,0,0,84.78,115.05Z"/><path class="cls-64" d="M84.49,113a6.13,6.13,0,0,0,2,1.65,12.34,12.34,0,0,0,1.18.51l.23.06a1.3,1.3,0,0,1-.72.38c-.51.08-1-.25-1.48-.16a.07.07,0,0,0,0,.11,1.37,1.37,0,0,0,1.33.52,2,2,0,0,0,.79-.22,3.9,3.9,0,0,1,.88-.41,1.54,1.54,0,0,0-.47.21c-.52.37-1.06.9-1.75.86a2,2,0,0,1-1.69-1.44A3.78,3.78,0,0,1,84.49,113Z"/><path class="cls-55" d="M87.44,115.67a6.19,6.19,0,0,1-2.83-1.14,3.14,3.14,0,0,1-.12-1.55,6.13,6.13,0,0,0,2,1.65,12.34,12.34,0,0,0,1.18.51,4.8,4.8,0,0,0,.63.15A1.62,1.62,0,0,1,87.44,115.67Z"/><path class="cls-56" d="M84.49,113a6.13,6.13,0,0,0,2,1.65,12.34,12.34,0,0,0,1.18.51l.27.07a5.58,5.58,0,0,1-1.84-.67c-.19-.09-.85-.62-1-.18s.49.7.81.83l.76.31a5.51,5.51,0,0,1-2.09-1A3.14,3.14,0,0,1,84.49,113Z"/><path class="cls-12" d="M84,112.93a.73.73,0,0,0,.33,0,3.72,3.72,0,0,0,.32,2.15,2.4,2.4,0,0,0,1.24,1.41,1.94,1.94,0,0,0,1.83-.38,2.56,2.56,0,0,1,1-.61,4.17,4.17,0,0,1,.71-.06,4,4,0,0,0,2-.32c.25-.12.54-.23.65-.52a.76.76,0,0,0,0-.73,0,0,0,0,0,0,0c.36,1-1.07,1.37-1.77,1.39a8,8,0,0,1-2.18-.22,6.57,6.57,0,0,1-3.52-2.21l.07,0c.16-.08.44-.23.5-.42a.08.08,0,0,0-.14,0,1.44,1.44,0,0,1-.49.39.89.89,0,0,1-.53.13S84,112.92,84,112.93Zm.47,0a6.13,6.13,0,0,0,2,1.65,12.34,12.34,0,0,0,1.18.51,8.09,8.09,0,0,0,1.19.24,1.55,1.55,0,0,0-.67.25c-.52.37-1.06.9-1.75.86a2,2,0,0,1-1.69-1.44A3.78,3.78,0,0,1,84.49,113Z"/><path class="cls-12" d="M84,110.38a2,2,0,0,1,1.72,1.84s0,0,0,0A2.35,2.35,0,0,0,84,110.48S84,110.38,84,110.38Z"/><path class="cls-12" d="M91.65,109.86a3.2,3.2,0,0,1,.7-1.63c.25-.28.71-.58,1.1-.36s.41,2,.41,2c-.07-.51,0-1.72-.57-1.86s-.88.46-1.1.82A3.22,3.22,0,0,0,91.8,110a3.29,3.29,0,0,0,0,1.56s0,0,0,0A2.71,2.71,0,0,1,91.65,109.86Z"/><path class="cls-65" d="M95.34,103.37s-.23-3.86-3.34-5A8.62,8.62,0,0,1,95.34,103.37Z"/><path class="cls-65" d="M93.4,103.05s-1.12-3.81-4.56-4.73A12.23,12.23,0,0,1,93.4,103.05Z"/><path class="cls-66" d="M92.67,102A6.33,6.33,0,0,0,88,99.19,8.05,8.05,0,0,1,92.67,102Z"/><path class="cls-65" d="M88.14,102.28a5.43,5.43,0,0,0-2.58-2.59A9.11,9.11,0,0,1,88.14,102.28Z"/><path class="cls-66" d="M88.07,102.33a33.33,33.33,0,0,0-3-2.32S85.38,100.51,88.07,102.33Z"/><path class="cls-65" d="M83.7,99.85a6.38,6.38,0,0,0,.58,2.8A4.23,4.23,0,0,1,83.7,99.85Z"/><path class="cls-65" d="M83.44,100.56a5.6,5.6,0,0,0-.08,3.26A3.85,3.85,0,0,1,83.44,100.56Z"/><path class="cls-66" d="M83,100.06a28.37,28.37,0,0,0-1.94,5S81.9,100.41,83,100.06Z"/><path class="cls-62" d="M92.75,106.15c.23-.22.56-.58.91-.53s.4.47.33.8c0,0,0,0,0,0,0-.33-.14-.7-.54-.51a3.38,3.38,0,0,1-.62.33S92.72,106.18,92.75,106.15Z"/><path class="cls-62" d="M85.74,105.47a12,12,0,0,1,1.14-.42,3.5,3.5,0,0,1,1.32-.23,1.42,1.42,0,0,1,1.33,1.11s0,.06-.07,0a1.91,1.91,0,0,0-.6-.75,1.69,1.69,0,0,0-1.06-.16,6.32,6.32,0,0,0-2.06.43S85.73,105.47,85.74,105.47Z"/><path class="cls-26" d="M83.5,110.71c-.09.18.08.44.36.57s.59.09.67-.09-.08-.44-.36-.57S83.58,110.53,83.5,110.71Z"/><path class="cls-26" d="M84.89,111.41a.22.22,0,0,0,0,.29.21.21,0,0,0,.28.06.19.19,0,0,0,0-.28A.2.2,0,0,0,84.89,111.41Z"/><path class="cls-26" d="M91.33,112.36a.11.11,0,1,0,.16,0A.12.12,0,0,0,91.33,112.36Z"/><path class="cls-26" d="M97.18,100.16a4.29,4.29,0,0,0-2.39-.9s4.18,7.37,1.44,14A15.57,15.57,0,0,0,97.18,100.16Z"/><g class="cls-39"><path class="cls-15" d="M68.83,105.66a8.26,8.26,0,0,1,1.2-3.15,11.74,11.74,0,0,0-.48,1.24,6.14,6.14,0,0,0-.37,3.36,2.82,2.82,0,0,0,2.38,2c.66.15,1-.2,1.17-.81a6.33,6.33,0,0,1,.72-2.09c-.07,1.16-.49,2.35-.14,3.5,0,0,.16,0,.13,0s1.13-5.95.68-2.56c-.09,1.15-.16,2.88.4,2.69.21-.07.34-.32.43-.51a8.53,8.53,0,0,0,.32-.84c-.3,1.61-.43,2.53-1.1,2.81-1,.41-2-.34-3.29-.71S68.34,108.61,68.83,105.66Z"/></g><g class="cls-7"><path class="cls-8" d="M75.56,102.26a1.3,1.3,0,0,0,.41.24c.16,0,.33,0,.49,0a.06.06,0,0,1,0,.12c-.22.08-.33.21-.58.16a1.18,1.18,0,0,1-.53-.28C75.2,102.41,75.4,102.14,75.56,102.26Z"/><path class="cls-8" d="M75.16,103.14a1.27,1.27,0,0,1,.46.24c.2.11.39,0,.6,0s.12.08.08.13a.68.68,0,0,1-.62.26.87.87,0,0,1-.67-.45A.15.15,0,0,1,75.16,103.14Z"/><path class="cls-8" d="M75.92,101.56c.08,0,.16.07.25.09a.94.94,0,0,0,.29.06s.07.05,0,.08a.37.37,0,0,1-.3.12,1,1,0,0,1-.38-.11C75.69,101.73,75.78,101.53,75.92,101.56Z"/><path class="cls-8" d="M75,104.21a1.28,1.28,0,0,0,.46.17c.16,0,.33,0,.5,0a.08.08,0,0,1,0,.15,1.18,1.18,0,0,1-.22.14.88.88,0,0,1-.39.08,1.1,1.1,0,0,1-.59-.27C74.63,104.34,74.84,104.14,75,104.21Z"/><path class="cls-8" d="M74.77,105.3c.25.15.59.36.89.19a0,0,0,0,1,.06.06c-.2.46-.86.29-1.14,0A.16.16,0,0,1,74.77,105.3Z"/><path class="cls-8" d="M74.44,106.31a.43.43,0,0,1,.36.08.65.65,0,0,0,.56,0c.08,0,.12.07.08.13a.6.6,0,0,1-.55.2,1.05,1.05,0,0,1-.52-.3A.11.11,0,0,1,74.44,106.31Z"/><path class="cls-8" d="M74.32,107.25c.12,0,.24.07.35.11a.7.7,0,0,0,.49-.06.07.07,0,0,1,.1.1.55.55,0,0,1-.53.25c-.18,0-.44-.1-.5-.28A.09.09,0,0,1,74.32,107.25Z"/><path class="cls-8" d="M74.21,108.07c.17,0,.3.16.47.16a1,1,0,0,1,.34,0,.09.09,0,0,1,0,.12c-.07.12-.28.15-.4.18a.55.55,0,0,1-.58-.35A.1.1,0,0,1,74.21,108.07Z"/><path class="cls-8" d="M74,108.93c0-.14.21,0,.29,0a.49.49,0,0,0,.3.1.65.65,0,0,1,.31,0c.06,0,.07.13,0,.15s-.35.16-.56.07S74,109.08,74,108.93Z"/><path class="cls-8" d="M74,109.65c.15,0,.26.12.39.17s.27,0,.41,0,0,.06,0,.08-.13.11-.2.15a.45.45,0,0,1-.28,0,.53.53,0,0,1-.39-.32S73.94,109.66,74,109.65Z"/><path class="cls-8" d="M74,110.38c.17,0,.3.23.47.1s.12,0,.08.08a.27.27,0,0,1-.31.11.5.5,0,0,1-.29-.2A.06.06,0,0,1,74,110.38Z"/></g><path class="cls-15" d="M97.62,98.87a8.3,8.3,0,0,0-2.74-1,21.34,21.34,0,0,0-3.56-.5,18.44,18.44,0,0,0-7.7,1.29q-.89.33-1.74.72c-.26.12-.53.24-.78.38a2.23,2.23,0,0,0-.51.74,16.7,16.7,0,0,0-1.25,3.75,29.19,29.19,0,0,0-.61,7.63c0,1.14.06,2.78.86,3.69-.08-.27-.33-.59-.43-.91a8,8,0,0,1-.28-1.46,23.39,23.39,0,0,1-.07-3.55A25.51,25.51,0,0,1,80.14,102a9.45,9.45,0,0,1,.75-1.69,2.82,2.82,0,0,1,1.5-1,26.92,26.92,0,0,1,3.7-1.27,19.39,19.39,0,0,1,7.55-.31,18.18,18.18,0,0,1,2.31.47A8.41,8.41,0,0,1,97,98.6,3.1,3.1,0,0,0,97.62,98.87Z"/><path class="cls-15" d="M94.29,116.86a10.49,10.49,0,0,1-2.82.69,16.79,16.79,0,0,1-3.68.11,35.77,35.77,0,0,1-6.49-1.17,26.11,26.11,0,0,0,6.48,1.39,13.7,13.7,0,0,0,3.56-.15A9.21,9.21,0,0,0,94.29,116.86Z"/><line class="cls-21" x1="148.32" y1="67.33" x2="148.26" y2="67.32"/></g></g></g></svg>